<svg width="362" height="362" viewBox="0 0 362 362" fill="none" xmlns="http://www.w3.org/2000/svg">
<path opacity="0.1" d="M181 358V362C180.662 362 180.324 361.995 179.986 361.993L180.009 357.997C180.339 357.999 180.669 358 181 358ZM182.01 361.234L182.013 361.993C181.675 361.995 181.338 362 181 362V358C181.331 358 181.661 357.999 181.991 357.997L182.01 361.234ZM176.056 357.933L175.946 361.928C175.274 361.909 174.604 361.889 173.934 361.863L174.087 357.867C174.742 357.892 175.399 357.915 176.056 357.933ZM188.065 361.863C187.395 361.889 186.725 361.909 186.053 361.928L185.944 357.933C186.601 357.915 187.258 357.892 187.913 357.867L188.065 361.863ZM170.149 357.673L169.907 361.663C169.234 361.622 168.562 361.577 167.892 361.529L168.177 357.543C168.833 357.59 169.491 357.633 170.149 357.673ZM194.107 361.529C193.437 361.577 192.765 361.622 192.092 361.663L191.972 359.669L191.852 357.673C192.51 357.633 193.167 357.59 193.823 357.543L194.107 361.529ZM164.251 357.218L163.877 361.196C163.208 361.134 162.541 361.068 161.874 360.998L162.291 357.023C162.943 357.092 163.597 357.156 164.251 357.218ZM200.126 360.998C199.459 361.068 198.791 361.134 198.122 361.196L198.061 360.534L197.749 357.218C198.403 357.156 199.057 357.092 199.709 357.023L200.126 360.998ZM158.366 356.566L157.859 360.533C157.193 360.448 156.527 360.36 155.863 360.268L156.413 356.307C157.063 356.397 157.714 356.483 158.366 356.566ZM205.587 356.307L206.137 360.268C205.472 360.36 204.806 360.448 204.14 360.533L203.634 356.566C204.286 356.483 204.937 356.397 205.587 356.307ZM152.516 355.721L152.195 357.694L152.196 357.695L151.877 359.666C151.212 359.558 150.548 359.447 149.885 359.332L150.567 355.395C151.216 355.507 151.865 355.615 152.516 355.721ZM211.773 357.365L212.114 359.332C211.451 359.447 210.787 359.558 210.122 359.666L209.977 358.762L209.804 357.695L209.484 355.721C210.135 355.615 210.784 355.507 211.433 355.395L211.773 357.365ZM146.693 354.679L145.934 358.551L145.923 358.6C145.263 358.47 144.605 358.338 143.948 358.201L144.763 354.288C145.405 354.422 146.049 354.552 146.693 354.679ZM218.051 358.201C217.394 358.338 216.736 358.47 216.077 358.6L215.307 354.679C215.951 354.552 216.595 354.422 217.237 354.288L218.051 358.201ZM140.906 353.44L140.003 357.336C139.348 357.184 138.695 357.03 138.043 356.871L138.989 352.985C139.627 353.141 140.266 353.292 140.906 353.44ZM223.011 352.985L223.956 356.871C223.304 357.03 222.651 357.184 221.996 357.336L221.095 353.44C221.735 353.292 222.373 353.14 223.011 352.985ZM135.17 352.01L134.137 355.871C133.486 355.697 132.837 355.52 132.189 355.339L133.266 351.489C133.899 351.666 134.534 351.84 135.17 352.01ZM229.81 355.339C229.162 355.52 228.513 355.697 227.862 355.871L226.83 352.01C227.466 351.84 228.101 351.666 228.734 351.489L229.81 355.339ZM129.482 350.387L128.9 352.3L128.901 352.301L128.512 353.583L128.32 354.21C127.678 354.015 127.036 353.816 126.396 353.614L127.601 349.804C128.226 350.001 128.854 350.196 129.482 350.387ZM235.603 353.614C234.963 353.816 234.321 354.015 233.679 354.21L233.099 352.301L232.518 350.387C233.146 350.196 233.774 350.001 234.399 349.804L235.603 353.614ZM123.851 348.572L122.56 352.355C121.924 352.139 121.289 351.919 120.656 351.695L120.745 351.446L121.989 347.926C122.608 348.145 123.229 348.36 123.851 348.572ZM241.343 351.695C240.71 351.919 240.075 352.139 239.439 352.355L238.149 348.572C238.771 348.36 239.392 348.145 240.011 347.926L241.343 351.695ZM118.287 346.57L116.869 350.309C116.24 350.07 115.612 349.827 114.986 349.582L116.445 345.86C117.057 346.1 117.672 346.337 118.287 346.57ZM247.013 349.582C246.387 349.827 245.759 350.07 245.13 350.309L243.713 346.57C244.328 346.337 244.943 346.1 245.555 345.86L247.013 349.582ZM112.793 344.382L112.021 346.226L112.022 346.227L111.252 348.069C110.631 347.81 110.012 347.547 109.395 347.28L110.978 343.61C111.581 343.871 112.186 344.128 112.793 344.382ZM252.604 347.28C251.987 347.547 251.368 347.81 250.747 348.069L249.978 346.227L249.207 344.382C249.814 344.128 250.419 343.871 251.022 343.61L252.604 347.28ZM107.372 342.008L106.539 343.825L106.54 343.826L105.708 345.642C105.097 345.362 104.488 345.078 103.881 344.792L105.586 341.178C106.18 341.458 106.775 341.734 107.372 342.008ZM258.118 344.792C257.511 345.078 256.902 345.362 256.291 345.642L255.46 343.826L254.628 342.008C255.225 341.734 255.821 341.458 256.414 341.178L258.118 344.792ZM102.037 339.455L100.251 343.032C99.6491 342.732 99.0492 342.428 98.4512 342.121L98.5137 342L100.277 338.564C100.862 338.865 101.449 339.161 102.037 339.455ZM263.548 342.121C262.95 342.428 262.35 342.732 261.748 343.032L259.963 339.455C260.551 339.161 261.138 338.865 261.723 338.564L263.548 342.121ZM96.792 336.726L94.8867 340.241C94.2949 339.92 93.706 339.595 93.1182 339.268L95.0625 335.775C95.6371 336.095 96.2135 336.412 96.792 336.726ZM268.881 339.268C268.293 339.595 267.704 339.92 267.112 340.241L265.208 336.726C265.786 336.412 266.363 336.095 266.938 335.775L268.881 339.268ZM91.6367 333.818L90.625 335.543L90.626 335.544L89.6152 337.267C89.0357 336.927 88.4582 336.584 87.8828 336.238L89.9424 332.812C90.5051 333.151 91.07 333.486 91.6367 333.818ZM274.116 336.238C273.541 336.584 272.963 336.927 272.384 337.267L272.181 336.919L271.374 335.544L270.363 333.818C270.93 333.486 271.495 333.151 272.058 332.812L274.116 336.238ZM86.584 330.743L84.4482 334.121C83.8797 333.762 83.3133 333.4 82.749 333.034L84.9229 329.68C85.4745 330.037 86.0281 330.392 86.584 330.743ZM279.25 333.034C278.686 333.4 278.119 333.762 277.551 334.121L275.416 330.743C275.972 330.392 276.526 330.037 277.077 329.68L279.25 333.034ZM81.6377 327.5L79.3896 330.806C78.8335 330.428 78.2793 330.047 77.7275 329.663L80.0117 326.382C80.5515 326.757 81.0936 327.13 81.6377 327.5ZM284.271 329.663C283.72 330.047 283.166 330.428 282.609 330.806L280.363 327.5C280.907 327.13 281.449 326.757 281.988 326.382L284.271 329.663ZM76.7988 324.094L75.6201 325.708L75.6211 325.709L74.8037 326.83L74.4424 327.324C73.8994 326.928 73.3587 326.529 72.8203 326.127L75.2129 322.923C75.7393 323.316 76.2679 323.706 76.7988 324.094ZM289.179 326.127C288.64 326.529 288.1 326.928 287.557 327.324L285.201 324.093C285.732 323.706 286.261 323.316 286.787 322.923L289.179 326.127ZM72.0781 320.527L70.8457 322.102L70.8467 322.103L69.6152 323.677C69.0857 323.263 68.5589 322.845 68.0342 322.426L70.5312 319.304C71.0446 319.714 71.5602 320.122 72.0781 320.527ZM293.965 322.426C293.44 322.845 292.913 323.263 292.384 323.677L291.153 322.103L289.922 320.527C290.44 320.122 290.955 319.714 291.469 319.304L293.965 322.426ZM67.4785 316.807L66.1943 318.34L66.002 318.571L64.9131 319.871C64.3976 319.44 63.8846 319.005 63.374 318.568L65.9727 315.532C66.4722 315.96 66.9742 316.385 67.4785 316.807ZM298.625 318.568C298.114 319.005 297.601 319.44 297.086 319.871L295.805 318.341L294.521 316.807C295.026 316.385 295.528 315.96 296.027 315.532L298.625 318.568ZM63.0049 312.935L60.3389 315.912C59.8381 315.464 59.3395 315.013 58.8438 314.56L61.543 311.611C62.0278 312.055 62.5151 312.496 63.0049 312.935ZM303.155 314.56C302.66 315.013 302.161 315.464 301.66 315.912L298.995 312.935C299.485 312.496 299.972 312.055 300.457 311.611L303.155 314.56ZM58.6621 308.916L55.8975 311.805C55.4117 311.34 54.9278 310.873 54.4473 310.403L57.2441 307.545C57.7141 308.005 58.187 308.462 58.6621 308.916ZM307.552 310.403C307.071 310.873 306.587 311.34 306.102 311.805L303.338 308.916C303.813 308.462 304.286 308.005 304.756 307.545L307.552 310.403ZM54.4551 304.756L51.5957 307.552C51.1257 307.071 50.659 306.587 50.1943 306.102L53.084 303.338C53.5385 303.813 53.9954 304.286 54.4551 304.756ZM311.805 306.102C311.34 306.587 310.873 307.071 310.403 307.552L307.545 304.756C308.005 304.286 308.462 303.813 308.916 303.338L311.805 306.102ZM50.3887 300.457L47.4395 303.155C46.9858 302.66 46.5351 302.161 46.0869 301.66L49.0654 298.995C49.5038 299.485 49.945 299.972 50.3887 300.457ZM315.912 301.66C315.464 302.161 315.013 302.66 314.56 303.155L311.611 300.457C312.055 299.972 312.496 299.485 312.935 298.995L315.912 301.66ZM46.4678 296.027L43.7275 298.372L43.4307 298.625C42.9937 298.114 42.5593 297.601 42.1279 297.086L45.1934 294.521C45.6154 295.026 46.0403 295.528 46.4678 296.027ZM319.871 297.086C319.44 297.601 319.005 298.114 318.568 298.625L315.532 296.027C315.96 295.528 316.385 295.026 316.807 294.521L319.871 297.086ZM42.6963 291.469L40.0098 293.617L39.5732 293.965C39.1535 293.44 38.7362 292.913 38.3223 292.384L41.4727 289.922C41.8776 290.44 42.2857 290.955 42.6963 291.469ZM323.677 292.384C323.263 292.913 322.845 293.44 322.426 293.965L319.304 291.469C319.714 290.955 320.122 290.44 320.527 289.922L323.677 292.384ZM39.0771 286.787L35.8721 289.179C35.4701 288.64 35.0709 288.1 34.6748 287.557L37.9072 285.201C38.2944 285.732 38.6842 286.261 39.0771 286.787ZM327.324 287.557C326.928 288.1 326.529 288.64 326.127 289.179L322.923 286.787C323.316 286.261 323.706 285.732 324.094 285.201L327.324 287.557ZM35.6182 281.988L32.3359 284.271C31.952 283.72 31.5713 283.166 31.1934 282.609L34.5 280.363C34.8697 280.907 35.2426 281.449 35.6182 281.988ZM330.806 282.609C330.428 283.166 330.047 283.72 329.663 284.271L326.382 281.988C326.757 281.449 327.13 280.906 327.5 280.362L330.806 282.609ZM32.3203 277.077L28.9648 279.25C28.5995 278.686 28.2372 278.119 27.8779 277.551L31.2568 275.416C31.6081 275.972 31.9631 276.526 32.3203 277.077ZM334.121 277.551C333.762 278.119 333.4 278.686 333.034 279.25L331.358 278.165L329.68 277.077C330.037 276.525 330.392 275.972 330.743 275.416L334.121 277.551ZM29.1875 272.058L25.7607 274.116C25.4149 273.541 25.0721 272.963 24.7324 272.384L28.1816 270.363C28.5138 270.93 28.8492 271.495 29.1875 272.058ZM335.543 271.374L337.267 272.384C336.927 272.963 336.584 273.541 336.238 274.116L332.812 272.058C333.151 271.495 333.486 270.93 333.818 270.363L335.543 271.374ZM26.2246 266.938L22.7314 268.881C22.4043 268.293 22.0785 267.704 21.7578 267.112L25.2744 265.208C25.5879 265.786 25.9049 266.363 26.2246 266.938ZM340.241 267.112C339.92 267.704 339.595 268.293 339.268 268.881L335.775 266.938C336.095 266.363 336.412 265.786 336.726 265.208L340.241 267.112ZM23.4355 261.723L21.6562 262.635L21.6572 262.636L19.8779 263.548C19.5709 262.95 19.2673 262.35 18.9668 261.748L22.5449 259.963C22.8387 260.551 23.1354 261.138 23.4355 261.723ZM343.032 261.748C342.732 262.35 342.428 262.95 342.121 263.548L341.833 263.4L338.564 261.723C338.865 261.138 339.161 260.551 339.455 259.963L343.032 261.748ZM20.8223 256.414L19.0127 257.267L17.5469 257.959L17.207 258.118C16.9206 257.511 16.6373 256.902 16.3574 256.291L19.9922 254.628C20.2657 255.225 20.5423 255.821 20.8223 256.414ZM343.825 255.46L345.642 256.291C345.362 256.902 345.078 257.511 344.792 258.118L342.986 257.268L341.178 256.414C341.458 255.82 341.734 255.225 342.008 254.628L343.825 255.46ZM18.3896 251.022L14.7188 252.604C14.4525 251.987 14.1892 251.368 13.9297 250.747L17.6182 249.207C17.8718 249.814 18.1295 250.419 18.3896 251.022ZM346.226 249.978L348.069 250.747C347.81 251.368 347.547 251.987 347.28 252.604L343.61 251.022C343.871 250.419 344.128 249.814 344.382 249.207L346.226 249.978ZM16.1396 245.555L12.417 247.013C12.1717 246.387 11.929 245.759 11.6904 245.13L15.4297 243.713C15.6629 244.328 15.8998 244.943 16.1396 245.555ZM350.309 245.13C350.07 245.759 349.827 246.387 349.582 247.013L345.86 245.555C346.1 244.943 346.337 244.328 346.57 243.713L350.309 245.13ZM14.0742 240.011L12.1875 240.677L12.1885 240.678L10.3037 241.343C10.08 240.71 9.86039 240.075 9.64355 239.439L13.4277 238.149C13.6398 238.771 13.8555 239.392 14.0742 240.011ZM352.355 239.439C352.139 240.075 351.919 240.71 351.695 241.343L349.812 240.678L347.926 240.011C348.145 239.392 348.36 238.771 348.572 238.149L352.355 239.439ZM12.1963 234.399L8.38477 235.603C8.1826 234.963 7.98429 234.321 7.78906 233.679L11.6133 232.518C11.8043 233.146 11.9985 233.774 12.1963 234.399ZM352.3 233.099L354.21 233.679C354.015 234.321 353.816 234.963 353.614 235.603L349.804 234.399C350.001 233.774 350.196 233.146 350.387 232.518L352.3 233.099ZM10.5107 228.734L6.66016 229.81C6.47922 229.162 6.30182 228.513 6.12793 227.862L9.99023 226.83C10.1603 227.466 10.3338 228.101 10.5107 228.734ZM355.871 227.862C355.697 228.513 355.52 229.162 355.339 229.81L351.489 228.734C351.666 228.101 351.84 227.466 352.01 226.83L355.871 227.862ZM9.01465 223.011L7.07031 223.483L7.07129 223.484L5.12793 223.956C4.96926 223.304 4.81468 222.651 4.66309 221.996L8.55957 221.095C8.70778 221.735 8.85952 222.373 9.01465 223.011ZM357.336 221.996C357.184 222.651 357.03 223.304 356.871 223.956L354.929 223.484L352.985 223.011C353.14 222.373 353.292 221.735 353.44 221.095L357.336 221.996ZM7.71191 217.237L3.79785 218.051C3.66128 217.394 3.52886 216.736 3.39941 216.077H3.40137L7.32129 215.307C7.44788 215.951 7.57834 216.595 7.71191 217.237ZM358.6 216.076C358.47 216.736 358.338 217.394 358.201 218.051L354.288 217.237C354.422 216.595 354.552 215.951 354.679 215.307L358.6 216.076ZM6.60547 211.433L4.63379 211.773L4.63477 211.774L2.66699 212.114C2.55215 211.451 2.44062 210.787 2.33301 210.122L6.2793 209.484C6.38453 210.135 6.49317 210.784 6.60547 211.433ZM357.694 209.804L359.666 210.122C359.558 210.787 359.447 211.451 359.332 212.114L355.395 211.433C355.507 210.784 355.615 210.135 355.721 209.484L357.694 209.804ZM5.69336 205.587L1.73145 206.137C1.63912 205.472 1.55091 204.806 1.46582 204.14L5.43359 203.634C5.5168 204.286 5.60308 204.937 5.69336 205.587ZM360.533 204.14C360.448 204.806 360.36 205.472 360.268 206.136L358.287 205.862L356.307 205.587C356.397 204.937 356.483 204.286 356.566 203.634L360.533 204.14ZM4.97656 199.709L1.00098 200.126C0.930939 199.459 0.86551 198.791 0.802734 198.122L4.78223 197.749C4.84362 198.403 4.90807 199.057 4.97656 199.709ZM361.196 198.122C361.134 198.791 361.068 199.459 360.998 200.126L357.023 199.709C357.092 199.057 357.156 198.403 357.218 197.749L361.196 198.122ZM4.45703 193.823L0.469727 194.107C0.421715 193.437 0.376616 192.765 0.335938 192.092L4.32715 191.852C4.36694 192.51 4.41007 193.167 4.45703 193.823ZM361.663 192.092C361.622 192.765 361.577 193.437 361.529 194.107L357.543 193.823C357.59 193.167 357.633 192.509 357.673 191.851L361.663 192.092ZM4.13281 187.913L0.135742 188.065C0.110026 187.395 0.0897029 186.725 0.0712891 186.053L4.06738 185.944C4.0854 186.601 4.10766 187.258 4.13281 187.913ZM361.928 186.053C361.909 186.725 361.889 187.395 361.863 188.065L357.867 187.913C357.892 187.258 357.915 186.601 357.933 185.944L361.928 186.053ZM0 181C0 180.662 0.0040076 180.324 0.00585938 179.986L4.00293 180.009C4.00112 180.339 4 180.669 4 181C4 181.331 4.00112 181.661 4.00293 181.991L0.00585938 182.013C0.00401115 181.675 0 181.338 0 181ZM361.993 182.013L357.997 181.991C357.999 181.661 358 181.331 358 181C358 180.669 357.999 180.339 357.997 180.009L361.993 179.986C361.995 180.324 362 180.662 362 181C362 181.338 361.995 181.675 361.993 182.013ZM0.135742 173.934L4.13281 174.087C4.10766 174.742 4.0854 175.399 4.06738 176.056L0.0712891 175.946C0.089071 175.298 0.108223 174.65 0.132812 174.003L0.135742 173.934ZM361.863 173.934C361.889 174.604 361.909 175.274 361.928 175.946L357.933 176.056C357.915 175.399 357.892 174.742 357.867 174.087L361.863 173.934ZM4.45703 168.177C4.41006 168.833 4.36695 169.491 4.32715 170.149L0.335938 169.907C0.37662 169.234 0.421711 168.562 0.469727 167.892L4.45703 168.177ZM361.529 167.892C361.577 168.562 361.622 169.234 361.663 169.907L359.669 170.028L359.668 170.027L357.673 170.148C357.633 169.49 357.59 168.833 357.543 168.177L361.529 167.892ZM2.9873 162.082L4.97656 162.291C4.90808 162.943 4.84361 163.597 4.78223 164.251L0.802734 163.877C0.865483 163.208 0.930972 162.541 1.00098 161.874L2.9873 162.082ZM360.998 161.873C361.068 162.54 361.134 163.208 361.196 163.877L357.218 164.251C357.156 163.597 357.092 162.943 357.023 162.291L360.998 161.873ZM3.71289 156.138L5.69336 156.413C5.60308 157.063 5.5168 157.714 5.43359 158.366L3.44922 158.112L1.46582 157.859C1.55087 157.193 1.63916 156.527 1.73145 155.863L3.71289 156.138ZM360.533 157.859L356.566 158.366C356.483 157.714 356.397 157.063 356.307 156.413L360.268 155.862C360.36 156.527 360.448 157.193 360.533 157.859ZM6.60547 150.567C6.49318 151.216 6.38452 151.865 6.2793 152.516L2.33301 151.877C2.44062 151.212 2.55215 150.548 2.66699 149.885L6.60547 150.567ZM359.332 149.885C359.447 150.548 359.558 151.212 359.666 151.877L355.721 152.516C355.615 151.865 355.507 151.216 355.395 150.567L359.332 149.885ZM7.71191 144.763C7.57834 145.405 7.44788 146.049 7.32129 146.693L3.39941 145.923C3.52892 145.263 3.66121 144.605 3.79785 143.948L7.71191 144.763ZM358.201 143.948C358.338 144.605 358.47 145.263 358.6 145.922L354.679 146.693C354.552 146.049 354.422 145.405 354.288 144.763L358.201 143.948ZM7.07129 138.516L9.01465 138.989C8.85948 139.627 8.70781 140.266 8.55957 140.906L4.66309 140.003C4.81468 139.348 4.96926 138.695 5.12793 138.043L7.07129 138.516ZM357.336 140.003L353.44 140.905C353.292 140.265 353.14 139.627 352.985 138.989L356.871 138.043C357.03 138.695 357.184 139.348 357.336 140.003ZM10.5107 133.266C10.3338 133.899 10.1603 134.534 9.99023 135.17L6.12793 134.137C6.30183 133.486 6.47921 132.837 6.66016 132.189L10.5107 133.266ZM355.339 132.189C355.52 132.837 355.697 133.486 355.871 134.137L353.942 134.653L353.941 134.652L352.01 135.17C351.84 134.534 351.666 133.899 351.489 133.266L355.339 132.189ZM12.1963 127.601C11.9985 128.226 11.8043 128.854 11.6133 129.482L7.78906 128.32C7.9843 127.678 8.18259 127.036 8.38477 126.396L12.1963 127.601ZM353.614 126.396C353.816 127.036 354.015 127.678 354.21 128.32L350.387 129.482C350.196 128.854 350.001 128.226 349.804 127.601L353.614 126.396ZM14.0742 121.989C13.8555 122.608 13.6398 123.229 13.4277 123.851L9.64355 122.56C9.86039 121.924 10.08 121.289 10.3037 120.656L14.0742 121.989ZM351.695 120.656C351.919 121.289 352.139 121.924 352.355 122.56L348.572 123.851C348.36 123.229 348.145 122.608 347.926 121.989L351.695 120.656ZM16.1396 116.445C15.8998 117.057 15.6629 117.672 15.4297 118.287L11.6904 116.869C11.929 116.24 12.1717 115.612 12.417 114.986L16.1396 116.445ZM349.582 114.986C349.827 115.612 350.07 116.24 350.309 116.869L346.57 118.287C346.337 117.672 346.1 117.057 345.86 116.445L349.582 114.986ZM18.3896 110.978C18.1295 111.581 17.8718 112.186 17.6182 112.793L15.7734 112.021L13.9297 111.252C14.1892 110.631 14.4525 110.012 14.7188 109.395L18.3896 110.978ZM347.28 109.395C347.547 110.012 347.81 110.631 348.069 111.252L346.227 112.022L346.226 112.021L344.382 112.793C344.128 112.186 343.871 111.581 343.61 110.978L347.28 109.395ZM19.0137 104.732L20.8223 105.586C20.5423 106.179 20.2657 106.775 19.9922 107.372L18.1738 106.539L16.3574 105.708C16.6373 105.097 16.9206 104.488 17.207 103.881L19.0137 104.732ZM344.792 103.881C345.078 104.488 345.362 105.097 345.642 105.708L343.826 106.54L343.825 106.539L342.008 107.372C341.734 106.775 341.458 106.179 341.178 105.586L344.792 103.881ZM21.6572 99.3643L23.4355 100.277C23.1354 100.862 22.8387 101.449 22.5449 102.037L18.9668 100.251C19.2673 99.6491 19.5709 99.0492 19.8779 98.4512L21.6572 99.3643ZM342.121 98.4512C342.428 99.0492 342.732 99.6491 343.032 100.251L339.455 102.037C339.161 101.449 338.865 100.862 338.564 100.277L342.121 98.4512ZM24.4775 94.0898L26.2246 95.0625C25.9049 95.6371 25.5879 96.2135 25.2744 96.792L21.7578 94.8867C22.0785 94.2949 22.4043 93.706 22.7314 93.1182L24.4775 94.0898ZM339.268 93.1182C339.595 93.706 339.92 94.2949 340.241 94.8867L336.726 96.792C336.412 96.2135 336.095 95.6371 335.775 95.0625L339.268 93.1182ZM29.1875 89.9424C28.8492 90.5051 28.5138 91.07 28.1816 91.6367L26.4561 90.625L24.7324 89.6152C25.0721 89.0357 25.4149 88.4582 25.7607 87.8828L29.1875 89.9424ZM336.238 87.8828C336.584 88.4582 336.927 89.0357 337.267 89.6152L335.544 90.626L335.543 90.625L333.818 91.6367C333.486 91.07 333.151 90.5051 332.812 89.9424L336.238 87.8828ZM30.6416 83.835L32.3203 84.9229C31.9631 85.4745 31.6081 86.0281 31.2568 86.584L27.8779 84.4482C28.2372 83.8797 28.5995 83.3133 28.9648 82.749L30.6416 83.835ZM333.034 82.749C333.4 83.3133 333.762 83.8797 334.121 84.4482L330.743 86.584C330.392 86.0281 330.037 85.4745 329.68 84.9229L333.034 82.749ZM35.6182 80.0117C35.2425 80.5515 34.8698 81.0936 34.5 81.6377L31.1934 79.3896C31.5713 78.8335 31.9519 78.2793 32.3359 77.7275L35.6182 80.0117ZM329.663 77.7275C330.047 78.2793 330.428 78.8335 330.806 79.3896L327.5 81.6377C327.13 81.0936 326.757 80.5515 326.382 80.0117L329.663 77.7275ZM39.0771 75.2129C38.6842 75.7391 38.2944 76.2681 37.9072 76.7988L36.291 75.6201L34.6748 74.4424C35.0709 73.8994 35.4701 73.3587 35.8721 72.8203L39.0771 75.2129ZM327.324 74.4424L325.709 75.6211L325.708 75.6201L324.093 76.7988C323.706 76.2681 323.316 75.7391 322.923 75.2129L326.127 72.8203C326.529 73.3587 326.928 73.8994 327.324 74.4424ZM42.6963 70.5312C42.2857 71.0446 41.8776 71.5602 41.4727 72.0781L38.3223 69.6152C38.7362 69.0857 39.1535 68.5589 39.5732 68.0342L42.6963 70.5312ZM322.426 68.0342C322.845 68.5589 323.263 69.0857 323.677 69.6152L320.527 72.0781C320.122 71.5602 319.714 71.0446 319.304 70.5312L322.426 68.0342ZM46.4678 65.9727C46.0403 66.4722 45.6154 66.9742 45.1934 67.4785L42.1279 64.9131C42.5593 64.3976 42.9937 63.8846 43.4307 63.374L46.4678 65.9727ZM318.568 63.374C319.005 63.8846 319.44 64.3976 319.871 64.9131L318.341 66.1953L318.34 66.1943L316.807 67.4785C316.385 66.9742 315.96 66.4722 315.532 65.9727L318.568 63.374ZM50.3887 61.543C49.945 62.0278 49.5038 62.5151 49.0654 63.0049L46.0869 60.3389C46.5351 59.8381 46.9858 59.3395 47.4395 58.8438L50.3887 61.543ZM314.56 58.8438C315.013 59.3395 315.464 59.8381 315.912 60.3389L312.935 63.0049C312.496 62.5151 312.055 62.0278 311.611 61.543L314.56 58.8438ZM54.4551 57.2441C53.9954 57.7141 53.5385 58.187 53.084 58.6621L50.1943 55.8975C50.659 55.4117 51.1257 54.9278 51.5957 54.4473L54.4551 57.2441ZM310.403 54.4473C310.873 54.9278 311.34 55.4117 311.805 55.8975L308.916 58.6621C308.462 58.187 308.005 57.7141 307.545 57.2441L310.403 54.4473ZM58.6621 53.084C58.187 53.5385 57.7141 53.9954 57.2441 54.4551L54.4473 51.5957C54.9278 51.1257 55.4117 50.6591 55.8975 50.1943L58.6621 53.084ZM306.102 50.1943C306.587 50.659 307.071 51.1257 307.552 51.5957L304.756 54.4551C304.286 53.9954 303.813 53.5385 303.338 53.084L306.102 50.1943ZM63.0049 49.0654C62.5151 49.5038 62.0278 49.945 61.543 50.3887L58.8438 47.4395C59.3395 46.9858 59.8381 46.5351 60.3389 46.0869L63.0049 49.0654ZM301.66 46.0869C302.161 46.5351 302.66 46.9858 303.155 47.4395L300.457 50.3887C299.972 49.945 299.485 49.5038 298.995 49.0654L301.66 46.0869ZM66.1953 43.6592L67.4785 45.1934C66.9742 45.6154 66.4722 46.0403 65.9727 46.4678L63.374 43.4307C63.8846 42.9937 64.3976 42.5593 64.9131 42.1279L66.1953 43.6592ZM297.086 42.1279C297.601 42.5593 298.114 42.9937 298.625 43.4307L296.027 46.4678C295.528 46.0403 295.026 45.6154 294.521 45.1934L297.086 42.1279ZM72.0781 41.4727C71.5602 41.8776 71.0446 42.2857 70.5312 42.6963L68.0342 39.5732C68.5589 39.1535 69.0857 38.7362 69.6152 38.3223L72.0781 41.4727ZM292.384 38.3223C292.913 38.7362 293.44 39.1535 293.965 39.5732L291.469 42.6963C290.955 42.2857 290.44 41.8776 289.922 41.4727L292.384 38.3223ZM76.7988 37.9072C76.2681 38.2944 75.7391 38.6842 75.2129 39.0771L72.8203 35.8721C73.3587 35.4701 73.8994 35.0709 74.4424 34.6748L76.7988 37.9072ZM289.179 35.8721L286.787 39.0771C286.261 38.6842 285.732 38.2944 285.201 37.9072L287.557 34.6748C288.1 35.0709 288.64 35.4701 289.179 35.8721ZM81.6377 34.5C81.0936 34.8698 80.5515 35.2425 80.0117 35.6182L77.7275 32.3359C78.2793 31.9519 78.8335 31.5713 79.3896 31.1934L81.6377 34.5ZM282.609 31.1934C283.166 31.5713 283.72 31.9519 284.271 32.3359L281.988 35.6182C281.449 35.2425 280.906 34.8698 280.362 34.5L282.609 31.1934ZM86.584 31.2568C86.0281 31.6081 85.4745 31.9631 84.9229 32.3203L82.749 28.9648C83.3133 28.5995 83.8797 28.2372 84.4482 27.8779L86.584 31.2568ZM277.551 27.8779C278.119 28.2372 278.686 28.5995 279.25 28.9648L277.077 32.3203C276.525 31.9631 275.972 31.6081 275.416 31.2568L277.551 27.8779ZM90.626 26.4561L91.6367 28.1816C91.07 28.5138 90.5051 28.8492 89.9424 29.1875L87.8828 25.7607C88.4582 25.4149 89.0357 25.0721 89.6152 24.7324L90.626 26.4561ZM272.384 24.7324C272.963 25.0721 273.541 25.4149 274.116 25.7607L272.058 29.1875C271.495 28.8492 270.93 28.5138 270.363 28.1816L272.384 24.7324ZM96.792 25.2744C96.2135 25.5879 95.6371 25.9049 95.0625 26.2246L93.1182 22.7314C93.706 22.4043 94.2949 22.0785 94.8867 21.7578L96.792 25.2744ZM267.112 21.7578C267.704 22.0785 268.293 22.4043 268.881 22.7314L268.445 23.5166L266.938 26.2246C266.363 25.9049 265.786 25.5879 265.208 25.2744L267.112 21.7578ZM102.037 22.5449C101.449 22.8387 100.862 23.1354 100.277 23.4355L98.4512 19.8779C99.0492 19.5709 99.6491 19.2673 100.251 18.9668L102.037 22.5449ZM261.748 18.9668C262.35 19.2673 262.95 19.5709 263.548 19.8779L262.83 21.2793L261.723 23.4355C261.138 23.1354 260.551 22.8387 259.963 22.5449L261.748 18.9668ZM107.372 19.9922C106.775 20.2657 106.179 20.5423 105.586 20.8223L103.881 17.207C104.488 16.9206 105.097 16.6373 105.708 16.3574L107.372 19.9922ZM256.291 16.3574C256.902 16.6373 257.511 16.9206 258.118 17.207L257.362 18.8135L256.414 20.8223C255.82 20.5423 255.225 20.2657 254.628 19.9922L256.291 16.3574ZM112.793 17.6182C112.186 17.8718 111.581 18.1295 110.978 18.3896L109.395 14.7188C110.012 14.4525 110.631 14.1892 111.252 13.9297L112.793 17.6182ZM250.747 13.9297C251.368 14.1892 251.987 14.4525 252.604 14.7188L251.022 18.3896C250.419 18.1295 249.814 17.8718 249.207 17.6182L250.747 13.9297ZM118.287 15.4297C117.672 15.6629 117.057 15.8998 116.445 16.1396L114.986 12.417C115.612 12.1717 116.24 11.929 116.869 11.6904L118.287 15.4297ZM245.13 11.6904C245.759 11.929 246.387 12.1717 247.013 12.417L245.555 16.1396C244.943 15.8998 244.328 15.6629 243.713 15.4297L245.13 11.6904ZM123.851 13.4277C123.229 13.6398 122.608 13.8555 121.989 14.0742L121.322 12.1875L120.656 10.3037C121.289 10.08 121.924 9.86039 122.56 9.64355L123.851 13.4277ZM239.439 9.64355C240.075 9.86039 240.71 10.08 241.343 10.3037L240.678 12.1885L240.677 12.1875L240.011 14.0742C239.392 13.8555 238.771 13.6398 238.149 13.4277L239.439 9.64355ZM129.482 11.6133C128.854 11.8043 128.226 11.9985 127.601 12.1963L126.396 8.38477C127.036 8.18259 127.678 7.9843 128.32 7.78906L129.482 11.6133ZM233.679 7.78906C234.321 7.98429 234.963 8.1826 235.603 8.38477L234.399 12.1963C233.774 11.9985 233.146 11.8043 232.518 11.6133L233.679 7.78906ZM135.17 9.99023C134.534 10.1603 133.899 10.3338 133.266 10.5107L132.189 6.66016C132.837 6.47921 133.486 6.30183 134.137 6.12793L135.17 9.99023ZM227.862 6.12793C228.513 6.30182 229.162 6.47922 229.81 6.66016L228.734 10.5107C228.101 10.3338 227.466 10.1603 226.83 9.99023L227.862 6.12793ZM140.905 8.55957C140.265 8.70778 139.627 8.85952 138.989 9.01465L138.516 7.07031L138.043 5.12793C138.695 4.96925 139.348 4.81468 140.003 4.66309L140.905 8.55957ZM223.956 5.12793L223.484 7.07129L223.483 7.07031L223.011 9.01465C222.373 8.85952 221.735 8.70778 221.095 8.55957L221.996 4.66309C222.651 4.81468 223.304 4.96926 223.956 5.12793ZM146.693 7.32129C146.049 7.44788 145.405 7.57834 144.763 7.71191L143.948 3.79785C144.605 3.66127 145.263 3.52886 145.922 3.39941L146.693 7.32129ZM216.076 3.39941C216.736 3.52891 217.394 3.66121 218.051 3.79785L217.237 7.71191C216.595 7.57834 215.951 7.44788 215.307 7.32129L216.076 3.39941ZM152.516 6.2793C151.865 6.38453 151.216 6.49317 150.567 6.60547L149.885 2.66699C150.548 2.55215 151.212 2.44062 151.877 2.33301L152.516 6.2793ZM210.122 2.33301C210.787 2.44062 211.451 2.55215 212.114 2.66699L211.433 6.60547C210.784 6.49318 210.135 6.38452 209.484 6.2793L210.122 2.33301ZM157.859 1.46582L158.366 5.43359C157.714 5.5168 157.063 5.60308 156.413 5.69336L155.862 1.73145L157.859 1.46582ZM204.14 1.46582C204.806 1.55087 205.472 1.63917 206.136 1.73145L205.862 3.71289L205.861 3.71191L205.587 5.69336C204.937 5.60308 204.286 5.5168 203.634 5.43359L204.14 1.46582ZM164.251 4.78223C163.597 4.84362 162.943 4.90807 162.291 4.97656L161.873 1.00098C162.54 0.930935 163.208 0.865513 163.877 0.802734L164.251 4.78223ZM198.122 0.802734C198.791 0.86551 199.459 0.930939 200.126 1.00098L199.709 4.97656C199.057 4.90808 198.403 4.84361 197.749 4.78223L198.122 0.802734ZM170.148 4.32715C169.49 4.36694 168.833 4.41007 168.177 4.45703L167.892 0.469727C168.562 0.421711 169.234 0.37662 169.907 0.335938L170.148 4.32715ZM192.092 0.335938C192.765 0.376616 193.437 0.421715 194.107 0.469727L193.823 4.45703C193.167 4.41006 192.509 4.36695 191.851 4.32715L192.092 0.335938ZM176.056 4.06738C175.399 4.0854 174.742 4.10766 174.087 4.13281L173.934 0.135742C174.604 0.110023 175.274 0.0897064 175.946 0.0712891L176.056 4.06738ZM186.053 0.0712891C186.725 0.0897028 187.395 0.110026 188.065 0.135742L187.913 4.13281C187.258 4.10766 186.601 4.0854 185.944 4.06738L186.053 0.0712891ZM182.013 0.00585938L181.991 4.00293C181.661 4.00112 181.331 4 181 4C180.669 4 180.339 4.00112 180.009 4.00293L179.986 0.00585938C180.324 0.00400759 180.662 0 181 0C181.338 0 181.675 0.00401116 182.013 0.00585938Z" fill="#C5C5C5"/>
</svg>
