<svg width="32" height="32" viewBox="0 0 32 32" fill="none" xmlns="http://www.w3.org/2000/svg">
<g opacity="0.6" clip-path="url(#clip0_157_378)">
<path d="M16.0013 2.66699C23.3613 2.66699 29.3346 8.64033 29.3346 16.0003C29.3346 23.3603 23.3613 29.3337 16.0013 29.3337C8.6413 29.3337 2.66797 23.3603 2.66797 16.0003C2.66797 8.64033 8.6413 2.66699 16.0013 2.66699ZM16.0013 5.33366C10.108 5.33366 5.33464 10.107 5.33464 16.0003C5.33464 21.8937 10.108 26.667 16.0013 26.667C21.8946 26.667 26.668 21.8937 26.668 16.0003C26.668 10.107 21.8946 5.33366 16.0013 5.33366ZM16.0013 9.33366C18.428 9.33366 20.552 10.631 21.7186 12.571L19.4333 13.943C19.0737 13.3433 18.5631 12.8484 17.9525 12.5076C17.3419 12.1668 16.6527 11.992 15.9535 12.0006C15.2543 12.0093 14.5695 12.2011 13.9676 12.5569C13.3656 12.9127 12.8674 13.4201 12.5227 14.0285C12.178 14.6369 11.9988 15.325 12.003 16.0242C12.0072 16.7235 12.1946 17.4094 12.5466 18.0136C12.8985 18.6179 13.4027 19.1193 14.0089 19.4679C14.6151 19.8164 15.302 20 16.0013 20.0003C16.6921 20.0008 17.3713 19.8222 17.9726 19.4819C18.5738 19.1417 19.0766 18.6514 19.432 18.059L21.7186 19.4297C20.9693 20.6811 19.8302 21.6523 18.4759 22.1941C17.1216 22.736 15.6269 22.8186 14.2212 22.4293C12.8154 22.04 11.5762 21.2003 10.6935 20.0391C9.81081 18.8778 9.33346 17.459 9.33463 16.0003C9.33464 12.3203 12.3213 9.33366 16.0013 9.33366Z" fill="#C5C5C5"/>
</g>
<defs>
<clipPath id="clip0_157_378">
<rect width="32" height="32" fill="white"/>
</clipPath>
</defs>
</svg>
