<svg width="633" height="913" viewBox="0 0 633 913" fill="none" xmlns="http://www.w3.org/2000/svg">
<g clip-path="url(#clip0_162_602)">
<rect x="-79.936" y="-11.6328" width="788.744" height="936.092" fill="url(#paint0_linear_162_602)"/>
<rect x="-79.936" y="-11.6328" width="788.744" height="936.092" fill="url(#paint1_linear_162_602)"/>
<rect x="-79.936" y="-11.6328" width="788.744" height="936.092" fill="url(#paint2_linear_162_602)"/>
<g opacity="0.4" filter="url(#filter0_f_162_602)">
<path d="M325.594 574.949C167.513 628.79 -34.9763 809.258 -69.6135 873.069C-100.844 964.965 -64.074 1113.86 -41.9289 1131.81C-14.2476 1154.24 278.749 1179.17 391.604 1176.67C504.459 1174.18 850.263 1161.72 865.168 1109.37C880.074 1057.03 894.979 811.252 718.67 714.038C542.361 616.825 523.197 507.647 325.594 574.949Z" fill="#164C6E"/>
</g>
<g filter="url(#filter1_f_162_602)">
<path d="M814.026 479.862C708.241 424.023 528.567 636.555 505.388 570.375C484.49 475.07 509.095 320.651 523.914 302.039C542.438 278.772 738.506 252.921 814.026 255.506C889.547 258.091 1120.95 271.017 1130.93 325.305C1140.9 379.592 1150.88 634.487 1032.89 735.307C914.91 836.127 946.258 549.661 814.026 479.862Z" fill="#5197C0"/>
</g>
<g opacity="0.8" filter="url(#filter2_f_162_602)">
<ellipse cx="395.911" cy="926.193" rx="213.221" ry="184.618" transform="rotate(90 395.911 926.193)" fill="#1B4A71"/>
</g>
<g filter="url(#filter3_f_162_602)">
<ellipse cx="-28.0196" cy="946.414" rx="358.451" ry="269.801" transform="rotate(34.7523 -28.0196 946.414)" fill="#18D6CC"/>
</g>
<g filter="url(#filter4_f_162_602)">
<ellipse cx="-99.7476" cy="300.278" rx="212.858" ry="160.215" transform="rotate(34.7523 -99.7476 300.278)" fill="#857B9E"/>
</g>
<g filter="url(#filter5_f_162_602)">
<ellipse cx="588.337" cy="-292.27" rx="444.076" ry="391.902" transform="rotate(19.3038 588.337 -292.27)" fill="#EDE4EE"/>
</g>
</g>
<defs>
<filter id="filter0_f_162_602" x="-596.303" y="39.5056" width="1984.43" height="1651.98" filterUnits="userSpaceOnUse" color-interpolation-filters="sRGB">
<feFlood flood-opacity="0" result="BackgroundImageFix"/>
<feBlend mode="normal" in="SourceGraphic" in2="BackgroundImageFix" result="shape"/>
<feGaussianBlur stdDeviation="257.317" result="effect1_foregroundBlur_162_602"/>
</filter>
<filter id="filter1_f_162_602" x="85.6136" y="-156.38" width="1462.59" height="1324.67" filterUnits="userSpaceOnUse" color-interpolation-filters="sRGB">
<feFlood flood-opacity="0" result="BackgroundImageFix"/>
<feBlend mode="normal" in="SourceGraphic" in2="BackgroundImageFix" result="shape"/>
<feGaussianBlur stdDeviation="205.854" result="effect1_foregroundBlur_162_602"/>
</filter>
<filter id="filter2_f_162_602" x="-48.7327" y="452.946" width="889.288" height="946.493" filterUnits="userSpaceOnUse" color-interpolation-filters="sRGB">
<feFlood flood-opacity="0" result="BackgroundImageFix"/>
<feBlend mode="normal" in="SourceGraphic" in2="BackgroundImageFix" result="shape"/>
<feGaussianBlur stdDeviation="130.013" result="effect1_foregroundBlur_162_602"/>
</filter>
<filter id="filter3_f_162_602" x="-793.714" y="211.557" width="1531.39" height="1469.71" filterUnits="userSpaceOnUse" color-interpolation-filters="sRGB">
<feFlood flood-opacity="0" result="BackgroundImageFix"/>
<feBlend mode="normal" in="SourceGraphic" in2="BackgroundImageFix" result="shape"/>
<feGaussianBlur stdDeviation="216.688" result="effect1_foregroundBlur_162_602"/>
</filter>
<filter id="filter4_f_162_602" x="-557.113" y="-138.775" width="914.73" height="878.106" filterUnits="userSpaceOnUse" color-interpolation-filters="sRGB">
<feFlood flood-opacity="0" result="BackgroundImageFix"/>
<feBlend mode="normal" in="SourceGraphic" in2="BackgroundImageFix" result="shape"/>
<feGaussianBlur stdDeviation="130.013" result="effect1_foregroundBlur_162_602"/>
</filter>
<filter id="filter5_f_162_602" x="-197.157" y="-1037.01" width="1570.99" height="1489.49" filterUnits="userSpaceOnUse" color-interpolation-filters="sRGB">
<feFlood flood-opacity="0" result="BackgroundImageFix"/>
<feBlend mode="normal" in="SourceGraphic" in2="BackgroundImageFix" result="shape"/>
<feGaussianBlur stdDeviation="173.35" result="effect1_foregroundBlur_162_602"/>
</filter>
<linearGradient id="paint0_linear_162_602" x1="708.808" y1="924.459" x2="-79.9361" y2="-11.6328" gradientUnits="userSpaceOnUse">
<stop stop-color="#00D97B"/>
<stop offset="1" stop-color="#00864C"/>
</linearGradient>
<linearGradient id="paint1_linear_162_602" x1="314.436" y1="-11.6328" x2="314.436" y2="924.459" gradientUnits="userSpaceOnUse">
<stop stop-color="#740CC3"/>
<stop offset="1" stop-color="#0C92C3"/>
</linearGradient>
<linearGradient id="paint2_linear_162_602" x1="314.436" y1="-11.6328" x2="314.436" y2="924.459" gradientUnits="userSpaceOnUse">
<stop stop-color="#8B7DA0"/>
<stop offset="1" stop-color="#1963EE"/>
</linearGradient>
<clipPath id="clip0_162_602">
<rect width="633" height="913" fill="white"/>
</clipPath>
</defs>
</svg>
