<svg width="18" height="18" viewBox="0 0 18 18" fill="none" xmlns="http://www.w3.org/2000/svg">
<g clip-path="url(#clip0_119_1066)">
<path d="M14.532 9.31199L6.58275 14.6115C6.52628 14.6491 6.46067 14.6706 6.39292 14.6739C6.32516 14.6771 6.2578 14.6619 6.198 14.6299C6.1382 14.5979 6.0882 14.5502 6.05334 14.4921C6.01847 14.4339 6.00004 14.3673 6 14.2995L6 3.70049C6.00004 3.63266 6.01847 3.56611 6.05334 3.50792C6.0882 3.44974 6.1382 3.4021 6.198 3.37008C6.2578 3.33807 6.32516 3.32287 6.39292 3.32611C6.46067 3.32935 6.52628 3.35091 6.58275 3.38849L14.532 8.68799C14.5834 8.72224 14.6255 8.76863 14.6546 8.82306C14.6837 8.87749 14.699 8.93826 14.699 8.99999C14.699 9.06172 14.6837 9.12249 14.6546 9.17692C14.6255 9.23135 14.5834 9.27774 14.532 9.31199V9.31199Z" fill="#C5C5C5"/>
</g>
<defs>
<clipPath id="clip0_119_1066">
<rect width="18" height="18" fill="white"/>
</clipPath>
</defs>
</svg>
