<svg width="296" height="199" viewBox="0 0 296 199" fill="none" xmlns="http://www.w3.org/2000/svg">
<path d="M121.969 93.0422L71.3517 79.5118C70.2753 79.224 69.6058 80.6467 70.5137 81.2927L149.354 137.386C150.118 137.93 151.143 137.218 150.9 136.312L145.869 117.583C145.631 116.697 146.611 115.985 147.38 116.485L181.195 138.489C181.637 138.776 182.225 138.672 182.541 138.251L227.251 78.6626C227.896 77.8039 226.918 76.6715 225.975 77.1835L182.397 100.827C182.133 100.97 181.818 100.987 181.54 100.873L120.547 75.7697C119.781 75.4544 118.986 76.1538 119.201 76.9538L123.193 91.8168C123.392 92.5602 122.712 93.241 121.969 93.0422Z" fill="url(#paint0_linear_144_177)"/>
<path d="M121.969 93.0422L71.3517 79.5118C70.2753 79.224 69.6058 80.6467 70.5137 81.2927L149.354 137.386C150.118 137.93 151.143 137.218 150.9 136.312L145.869 117.583C145.631 116.697 146.611 115.985 147.38 116.485L181.195 138.489C181.637 138.776 182.225 138.672 182.541 138.251L227.251 78.6626C227.896 77.8039 226.918 76.6715 225.975 77.1835L182.397 100.827C182.133 100.97 181.818 100.987 181.54 100.873L120.547 75.7697C119.781 75.4544 118.986 76.1538 119.201 76.9538L123.193 91.8168C123.392 92.5602 122.712 93.241 121.969 93.0422Z" fill="#C5C5C5"/>
<path d="M204.2 42.9999H200.504V32.0908H204.275C205.358 32.0908 206.288 32.3092 207.066 32.746C207.847 33.1792 208.447 33.8025 208.866 34.6157C209.286 35.4289 209.495 36.4019 209.495 37.5347C209.495 38.6711 209.284 39.6476 208.861 40.4644C208.442 41.2812 207.837 41.9079 207.045 42.3447C206.256 42.7815 205.308 42.9999 204.2 42.9999ZM202.48 41.29H204.104C204.864 41.29 205.498 41.1515 206.006 40.8746C206.514 40.594 206.896 40.1768 207.151 39.6228C207.407 39.0653 207.535 38.3692 207.535 37.5347C207.535 36.7002 207.407 36.0077 207.151 35.4573C206.896 34.9033 206.517 34.4896 206.017 34.2162C205.52 33.9392 204.902 33.8007 204.163 33.8007H202.48V41.29Z" fill="#C5C5C5"/>
<path d="M191.5 42.9999H189.391L193.231 32.0908H195.671L199.517 42.9999H197.407L194.494 34.328H194.408L191.5 42.9999ZM191.569 38.7226H197.322V40.3099H191.569V38.7226Z" fill="#C5C5C5"/>
<path d="M186.425 32.0908H188.401V39.218C188.401 39.9992 188.216 40.6863 187.847 41.2794C187.481 41.8724 186.966 42.3358 186.302 42.6697C185.638 42.9999 184.862 43.165 183.975 43.165C183.083 43.165 182.306 42.9999 181.641 42.6697C180.977 42.3358 180.463 41.8724 180.097 41.2794C179.731 40.6863 179.548 39.9992 179.548 39.218V32.0908H181.524V39.0528C181.524 39.5074 181.624 39.9122 181.823 40.2673C182.025 40.6224 182.309 40.9012 182.675 41.1036C183.041 41.3025 183.474 41.4019 183.975 41.4019C184.475 41.4019 184.909 41.3025 185.274 41.1036C185.644 40.9012 185.928 40.6224 186.127 40.2673C186.325 39.9122 186.425 39.5074 186.425 39.0528V32.0908Z" fill="#C5C5C5"/>
<path d="M172.431 39.3349H174.221L175.281 40.7092L176.038 41.604L177.854 43.9371H175.936L174.701 42.3711L174.173 41.6254L172.431 39.3349ZM178.115 37.5451C178.115 38.7205 177.895 39.7273 177.455 40.5653C177.018 41.3999 176.421 42.0391 175.665 42.483C174.912 42.9268 174.058 43.1488 173.103 43.1488C172.147 43.1488 171.292 42.9268 170.535 42.483C169.782 42.0355 169.186 41.3945 168.745 40.56C168.309 39.7219 168.09 38.717 168.09 37.5451C168.09 36.3697 168.309 35.3647 168.745 34.5302C169.186 33.6921 169.782 33.0511 170.535 32.6072C171.292 32.1634 172.147 31.9414 173.103 31.9414C174.058 31.9414 174.912 32.1634 175.665 32.6072C176.421 33.0511 177.018 33.6921 177.455 34.5302C177.895 35.3647 178.115 36.3697 178.115 37.5451ZM176.128 37.5451C176.128 36.7177 175.999 36.0199 175.739 35.4517C175.484 34.88 175.129 34.4485 174.674 34.1573C174.219 33.8626 173.696 33.7152 173.103 33.7152C172.51 33.7152 171.986 33.8626 171.531 34.1573C171.077 34.4485 170.72 34.88 170.461 35.4517C170.205 36.0199 170.077 36.7177 170.077 37.5451C170.077 38.3725 170.205 39.0721 170.461 39.6438C170.72 40.212 171.077 40.6435 171.531 40.9382C171.986 41.2294 172.51 41.375 173.103 41.375C173.696 41.375 174.219 41.2294 174.674 40.9382C175.129 40.6435 175.484 40.212 175.739 39.6438C175.999 39.0721 176.128 38.3725 176.128 37.5451Z" fill="#C5C5C5"/>
<path d="M165.005 35.0895C164.955 34.6243 164.745 34.2621 164.376 34.0028C164.01 33.7436 163.535 33.614 162.949 33.614C162.537 33.614 162.183 33.6761 161.889 33.8004C161.594 33.9247 161.368 34.0934 161.212 34.3065C161.056 34.5195 160.976 34.7628 160.972 35.0362C160.972 35.2635 161.024 35.4606 161.127 35.6275C161.233 35.7944 161.377 35.9364 161.558 36.0536C161.739 36.1673 161.94 36.2631 162.16 36.3413C162.38 36.4194 162.602 36.4851 162.826 36.5384L163.849 36.794C164.261 36.8899 164.657 37.0195 165.037 37.1829C165.42 37.3462 165.763 37.5522 166.065 37.8008C166.37 38.0494 166.612 38.3494 166.789 38.701C166.967 39.0526 167.055 39.4645 167.055 39.9368C167.055 40.576 166.892 41.1388 166.565 41.6254C166.239 42.1083 165.766 42.4865 165.149 42.7599C164.534 43.0298 163.79 43.1648 162.917 43.1648C162.068 43.1648 161.331 43.0334 160.706 42.7706C160.085 42.5078 159.598 42.1243 159.247 41.62C158.899 41.1158 158.71 40.5014 158.682 39.777H160.626C160.655 40.157 160.772 40.473 160.978 40.7251C161.184 40.9773 161.452 41.1655 161.782 41.2898C162.116 41.4141 162.489 41.4762 162.901 41.4762C163.33 41.4762 163.707 41.4123 164.03 41.2844C164.357 41.1531 164.612 40.9719 164.797 40.7411C164.982 40.5067 165.076 40.2333 165.079 39.9208C165.076 39.6367 164.992 39.4023 164.829 39.2177C164.666 39.0295 164.437 38.8732 164.142 38.7489C163.851 38.6211 163.51 38.5075 163.119 38.408L161.878 38.0884C160.979 37.8576 160.269 37.5078 159.747 37.0391C159.229 36.5668 158.97 35.94 158.97 35.1587C158.97 34.516 159.144 33.9531 159.492 33.4702C159.843 32.9872 160.321 32.6126 160.924 32.3462C161.528 32.0764 162.212 31.9414 162.975 31.9414C163.749 31.9414 164.428 32.0764 165.01 32.3462C165.596 32.6126 166.056 32.9837 166.39 33.4595C166.723 33.9318 166.896 34.4751 166.906 35.0895H165.005Z" fill="#C5C5C5"/>
<path d="M214.445 20.7713H212.453C212.396 20.4446 212.291 20.1552 212.139 19.9031C211.986 19.6474 211.796 19.4308 211.569 19.2532C211.341 19.0756 211.082 18.9425 210.791 18.8537C210.503 18.7614 210.193 18.7152 209.859 18.7152C209.266 18.7152 208.74 18.8643 208.282 19.1626C207.824 19.4574 207.465 19.8906 207.206 20.4624C206.947 21.0305 206.817 21.7248 206.817 22.5451C206.817 23.3796 206.947 24.0827 207.206 24.6545C207.469 25.2227 207.827 25.6523 208.282 25.9435C208.74 26.2312 209.264 26.375 209.853 26.375C210.18 26.375 210.486 26.3324 210.77 26.2472C211.057 26.1584 211.315 26.0288 211.542 25.8583C211.773 25.6879 211.966 25.4783 212.123 25.2298C212.282 24.9812 212.392 24.6971 212.453 24.3775L214.445 24.3881C214.37 24.9066 214.209 25.3931 213.96 25.8477C213.715 26.3022 213.394 26.7035 212.996 27.0515C212.598 27.396 212.133 27.6658 211.601 27.8612C211.068 28.0529 210.477 28.1488 209.827 28.1488C208.868 28.1488 208.012 27.9268 207.259 27.483C206.506 27.0391 205.913 26.3981 205.48 25.56C205.047 24.7219 204.83 23.717 204.83 22.5451C204.83 21.3697 205.049 20.3647 205.486 19.5302C205.922 18.6921 206.517 18.0511 207.27 17.6072C208.023 17.1634 208.875 16.9414 209.827 16.9414C210.434 16.9414 210.999 17.0266 211.521 17.1971C212.043 17.3675 212.508 17.6179 212.916 17.9482C213.325 18.2749 213.66 18.6761 213.923 19.152C214.189 19.6243 214.363 20.1641 214.445 20.7713Z" fill="#C5C5C5"/>
<path d="M203.417 17.0908V27.9999H201.441V17.0908H203.417Z" fill="#C5C5C5"/>
<path d="M188.297 17.0908H190.716L193.954 24.9957H194.082L197.321 17.0908H199.739V27.9999H197.843V20.5052H197.741L194.727 27.968H193.31L190.295 20.4893H190.194V27.9999H188.297V17.0908Z" fill="#C5C5C5"/>
<path d="M186.879 22.5451C186.879 23.7205 186.659 24.7273 186.218 25.5653C185.782 26.3999 185.185 27.0391 184.429 27.483C183.676 27.9268 182.822 28.1488 181.867 28.1488C180.911 28.1488 180.055 27.9268 179.299 27.483C178.546 27.0355 177.95 26.3945 177.509 25.56C177.073 24.7219 176.854 23.717 176.854 22.5451C176.854 21.3697 177.073 20.3647 177.509 19.5302C177.95 18.6921 178.546 18.0511 179.299 17.6072C180.055 17.1634 180.911 16.9414 181.867 16.9414C182.822 16.9414 183.676 17.1634 184.429 17.6072C185.185 18.0511 185.782 18.6921 186.218 19.5302C186.659 20.3647 186.879 21.3697 186.879 22.5451ZM184.892 22.5451C184.892 21.7177 184.763 21.0199 184.503 20.4517C184.248 19.88 183.892 19.4485 183.438 19.1573C182.983 18.8626 182.46 18.7152 181.867 18.7152C181.274 18.7152 180.75 18.8626 180.295 19.1573C179.841 19.4485 179.484 19.88 179.225 20.4517C178.969 21.0199 178.841 21.7177 178.841 22.5451C178.841 23.3725 178.969 24.0721 179.225 24.6438C179.484 25.212 179.841 25.6435 180.295 25.9382C180.75 26.2294 181.274 26.375 181.867 26.375C182.46 26.375 182.983 26.2294 183.438 25.9382C183.892 25.6435 184.248 25.212 184.503 24.6438C184.763 24.0721 184.892 23.3725 184.892 22.5451Z" fill="#C5C5C5"/>
<path d="M167.683 18.7474V17.0908H176.387V18.7474H173.015V27.9999H171.055V18.7474H167.683Z" fill="#C5C5C5"/>
<path d="M160.477 27.9999H158.368L162.208 17.0908H164.648L168.494 27.9999H166.384L163.471 19.328H163.385L160.477 27.9999ZM160.546 23.7226H166.299V25.3099H160.546V23.7226Z" fill="#C5C5C5"/>
<path d="M161.846 7.5459C161.846 6.98482 161.983 6.47345 162.256 6.01181C162.533 5.54661 162.902 5.17729 163.364 4.90385C163.829 4.62686 164.342 4.48837 164.903 4.48837C165.397 4.48837 165.852 4.5949 166.267 4.80797C166.683 5.02104 167.025 5.31223 167.295 5.68155C167.569 6.05087 167.735 6.46813 167.796 6.93333H166.31C166.249 6.63148 166.086 6.38645 165.82 6.19824C165.553 6.00648 165.248 5.9106 164.903 5.9106C164.605 5.9106 164.332 5.98517 164.083 6.13432C163.838 6.27992 163.641 6.47701 163.492 6.72559C163.346 6.97061 163.273 7.24228 163.273 7.54057C163.273 7.84242 163.346 8.11763 163.492 8.36621C163.641 8.61124 163.838 8.80833 164.083 8.95748C164.332 9.10662 164.605 9.1812 164.903 9.1812C165.248 9.1812 165.543 9.08709 165.788 8.89888C166.033 8.70712 166.185 8.46032 166.246 8.15847H167.732C167.672 8.62367 167.51 9.04093 167.247 9.41025C166.988 9.77956 166.656 10.0708 166.251 10.2838C165.846 10.4969 165.397 10.6034 164.903 10.6034C164.342 10.6034 163.829 10.4667 163.364 10.1933C162.902 9.91628 162.533 9.54696 162.256 9.08532C161.983 8.62012 161.846 8.10698 161.846 7.5459ZM164.861 13.1709C164.087 13.1709 163.359 13.0253 162.677 12.7341C161.999 12.4429 161.4 12.0399 160.882 11.5249C160.367 11.0065 159.962 10.4081 159.667 9.72985C159.376 9.05158 159.232 8.3236 159.236 7.5459C159.239 6.7682 159.387 6.04022 159.678 5.36195C159.973 4.68368 160.377 4.08709 160.892 3.57218C161.407 3.05371 162.004 2.64888 162.682 2.35769C163.36 2.06649 164.087 1.9209 164.861 1.9209C165.638 1.9209 166.366 2.06649 167.045 2.35769C167.727 2.64888 168.323 3.05371 168.835 3.57218C169.349 4.08709 169.752 4.68368 170.044 5.36195C170.335 6.04022 170.482 6.7682 170.486 7.5459C170.489 8.3236 170.346 9.05158 170.054 9.72985C169.763 10.4081 169.36 11.0065 168.845 11.5249C168.33 12.0399 167.732 12.4429 167.05 12.7341C166.368 13.0253 165.638 13.1709 164.861 13.1709ZM164.861 11.5782C165.418 11.5782 165.942 11.4735 166.432 11.2639C166.922 11.0544 167.35 10.7668 167.716 10.401C168.085 10.0317 168.373 9.60378 168.579 9.11728C168.788 8.62722 168.893 8.1052 168.893 7.55123C168.89 6.9937 168.783 6.4699 168.573 5.97985C168.368 5.48979 168.08 5.06188 167.711 4.69611C167.341 4.32679 166.913 4.03738 166.427 3.82786C165.94 3.61834 165.418 3.51358 164.861 3.51358C164.307 3.51358 163.787 3.61834 163.3 3.82786C162.814 4.03738 162.386 4.32679 162.016 4.69611C161.647 5.06543 161.358 5.49512 161.148 5.98517C160.939 6.47168 160.832 6.9937 160.828 7.55123C160.828 8.10165 160.931 8.62189 161.137 9.11195C161.347 9.59846 161.636 10.0264 162.006 10.3957C162.375 10.765 162.803 11.0544 163.289 11.2639C163.779 11.4735 164.303 11.5782 164.861 11.5782Z" fill="#C5C5C5"/>
<path d="M127.769 186.091H130.001L132.669 190.917H132.776L135.444 186.091H137.676L133.708 192.93V197H131.737V192.93L127.769 186.091Z" fill="#C5C5C5"/>
<path d="M127.155 189.771H125.163C125.106 189.445 125.001 189.155 124.848 188.903C124.696 188.647 124.506 188.431 124.278 188.253C124.051 188.076 123.792 187.942 123.501 187.854C123.213 187.761 122.902 187.715 122.568 187.715C121.975 187.715 121.45 187.864 120.992 188.163C120.534 188.457 120.175 188.891 119.916 189.462C119.657 190.031 119.527 190.725 119.527 191.545C119.527 192.38 119.657 193.083 119.916 193.654C120.179 194.223 120.537 194.652 120.992 194.944C121.45 195.231 121.974 195.375 122.563 195.375C122.89 195.375 123.195 195.332 123.479 195.247C123.767 195.158 124.024 195.029 124.252 194.858C124.483 194.688 124.676 194.478 124.832 194.23C124.992 193.981 125.102 193.697 125.163 193.377L127.155 193.388C127.08 193.907 126.919 194.393 126.67 194.848C126.425 195.302 126.104 195.703 125.706 196.051C125.308 196.396 124.843 196.666 124.31 196.861C123.778 197.053 123.186 197.149 122.536 197.149C121.578 197.149 120.722 196.927 119.969 196.483C119.216 196.039 118.623 195.398 118.19 194.56C117.757 193.722 117.54 192.717 117.54 191.545C117.54 190.37 117.758 189.365 118.195 188.53C118.632 187.692 119.227 187.051 119.98 186.607C120.733 186.163 121.585 185.941 122.536 185.941C123.144 185.941 123.708 186.027 124.23 186.197C124.752 186.368 125.218 186.618 125.626 186.948C126.034 187.275 126.37 187.676 126.633 188.152C126.899 188.624 127.073 189.164 127.155 189.771Z" fill="#C5C5C5"/>
<path d="M116.114 186.091V197H114.356L109.216 189.569H109.125V197H107.149V186.091H108.917L114.052 193.527H114.148V186.091H116.114Z" fill="#C5C5C5"/>
<path d="M98.4875 197V186.091H105.583V187.747H100.464V190.709H105.215V192.366H100.464V195.343H105.625V197H98.4875Z" fill="#C5C5C5"/>
<path d="M92.2898 197.149C91.2884 197.149 90.4077 196.923 89.6477 196.472C88.8913 196.018 88.3001 195.373 87.8739 194.539C87.4478 193.701 87.2347 192.706 87.2347 191.556C87.2347 190.675 87.3626 189.888 87.6183 189.196C87.8739 188.504 88.2308 187.916 88.6889 187.433C89.147 186.946 89.6815 186.577 90.2923 186.325C90.9031 186.069 91.5654 185.941 92.2791 185.941C92.8828 185.941 93.4475 186.03 93.973 186.208C94.5021 186.382 94.9744 186.63 95.3899 186.953C95.8054 187.277 96.1463 187.66 96.4127 188.104C96.6825 188.548 96.8583 189.038 96.94 189.574H94.9265C94.8448 189.287 94.7241 189.027 94.5643 188.797C94.4045 188.566 94.2109 188.37 93.9837 188.211C93.7564 188.047 93.5007 187.925 93.2166 187.843C92.9361 187.758 92.6325 187.715 92.3058 187.715C91.7163 187.715 91.1889 187.863 90.7237 188.157C90.2585 188.452 89.891 188.885 89.6211 189.457C89.3548 190.025 89.2216 190.718 89.2216 191.534C89.2216 192.358 89.3512 193.056 89.6105 193.628C89.8732 194.2 90.2355 194.635 90.6971 194.933C91.1587 195.228 91.6932 195.375 92.3004 195.375C92.8686 195.375 93.3604 195.263 93.7759 195.039C94.1914 194.816 94.511 194.505 94.7347 194.107C94.962 193.71 95.0756 193.251 95.0756 192.733L95.4272 192.834H92.4975V191.289H97.0199V197H95.603L95.4592 195.721H95.4006C95.0171 196.179 94.5749 196.533 94.0742 196.781C93.5735 197.026 92.9787 197.149 92.2898 197.149Z" fill="#C5C5C5"/>
<path d="M79.0209 197H76.9115L80.7521 186.091H83.1917L87.0376 197H84.9282L82.0145 188.328H81.9293L79.0209 197ZM79.0901 192.723H84.843V194.31H79.0901V192.723Z" fill="#C5C5C5"/>
<path d="M131.03 182V171.091H133.006V180.343H137.811V182H131.03Z" fill="#C5C5C5"/>
<path d="M122.026 182H119.917L123.758 171.091H126.197L130.043 182H127.934L125.02 173.328H124.935L122.026 182ZM122.096 177.723H127.848V179.31H122.096V177.723Z" fill="#C5C5C5"/>
<path d="M118.922 171.091V182H117.164L112.024 174.569H111.933V182H109.957V171.091H111.726L116.861 178.527H116.957V171.091H118.922Z" fill="#C5C5C5"/>
<path d="M108.539 176.545C108.539 177.721 108.319 178.727 107.878 179.565C107.442 180.4 106.845 181.039 106.089 181.483C105.336 181.927 104.482 182.149 103.526 182.149C102.571 182.149 101.715 181.927 100.959 181.483C100.206 181.036 99.6096 180.395 99.1692 179.56C98.7324 178.722 98.514 177.717 98.514 176.545C98.514 175.37 98.7324 174.365 99.1692 173.53C99.6096 172.692 100.206 172.051 100.959 171.607C101.715 171.163 102.571 170.941 103.526 170.941C104.482 170.941 105.336 171.163 106.089 171.607C106.845 172.051 107.442 172.692 107.878 173.53C108.319 174.365 108.539 175.37 108.539 176.545ZM106.552 176.545C106.552 175.718 106.422 175.02 106.163 174.452C105.908 173.88 105.552 173.449 105.098 173.157C104.643 172.863 104.12 172.715 103.526 172.715C102.933 172.715 102.41 172.863 101.955 173.157C101.501 173.449 101.144 173.88 100.884 174.452C100.629 175.02 100.501 175.718 100.501 176.545C100.501 177.373 100.629 178.072 100.884 178.644C101.144 179.212 101.501 179.643 101.955 179.938C102.41 180.229 102.933 180.375 103.526 180.375C104.12 180.375 104.643 180.229 105.098 179.938C105.552 179.643 105.908 179.212 106.163 178.644C106.422 178.072 106.552 177.373 106.552 176.545Z" fill="#C5C5C5"/>
<path d="M97.1011 171.091V182H95.1249V171.091H97.1011Z" fill="#C5C5C5"/>
<path d="M91.7623 174.089C91.7125 173.624 91.503 173.262 91.1337 173.003C90.7679 172.744 90.2921 172.614 89.7061 172.614C89.2942 172.614 88.9409 172.676 88.6461 172.8C88.3514 172.925 88.1259 173.093 87.9696 173.306C87.8134 173.52 87.7335 173.763 87.7299 174.036C87.7299 174.263 87.7814 174.461 87.8844 174.627C87.9909 174.794 88.1348 174.936 88.3159 175.054C88.497 175.167 88.6976 175.263 88.9178 175.341C89.138 175.419 89.3599 175.485 89.5836 175.538L90.6064 175.794C91.0183 175.89 91.4142 176.02 91.7942 176.183C92.1777 176.346 92.5204 176.552 92.8223 176.801C93.1277 177.049 93.3691 177.349 93.5467 177.701C93.7242 178.053 93.813 178.464 93.813 178.937C93.813 179.576 93.6497 180.139 93.323 180.625C92.9963 181.108 92.524 181.487 91.9061 181.76C91.2917 182.03 90.5478 182.165 89.6742 182.165C88.8255 182.165 88.0886 182.033 87.4636 181.771C86.8422 181.508 86.3556 181.124 86.0041 180.62C85.6561 180.116 85.4679 179.501 85.4395 178.777H87.3837C87.4121 179.157 87.5293 179.473 87.7353 179.725C87.9412 179.977 88.2093 180.165 88.5396 180.29C88.8734 180.414 89.2463 180.476 89.6582 180.476C90.0879 180.476 90.4643 180.412 90.7875 180.284C91.1142 180.153 91.3698 179.972 91.5545 179.741C91.7392 179.507 91.8333 179.233 91.8368 178.921C91.8333 178.637 91.7498 178.402 91.5865 178.218C91.4231 178.029 91.1941 177.873 90.8993 177.749C90.6081 177.621 90.2672 177.507 89.8766 177.408L88.6355 177.088C87.737 176.858 87.0268 176.508 86.5048 176.039C85.9863 175.567 85.7271 174.94 85.7271 174.159C85.7271 173.516 85.9011 172.953 86.2491 172.47C86.6007 171.987 87.0783 171.613 87.682 171.346C88.2857 171.076 88.9693 170.941 89.7328 170.941C90.5069 170.941 91.1852 171.076 91.7676 171.346C92.3535 171.613 92.8134 171.984 93.1472 172.46C93.481 172.932 93.6532 173.475 93.6639 174.089H91.7623Z" fill="#C5C5C5"/>
<path d="M82.471 174.089C82.4213 173.624 82.2118 173.262 81.8424 173.003C81.4767 172.744 81.0008 172.614 80.4149 172.614C80.003 172.614 79.6496 172.676 79.3549 172.8C79.0601 172.925 78.8346 173.093 78.6784 173.306C78.5221 173.52 78.4422 173.763 78.4387 174.036C78.4387 174.263 78.4902 174.461 78.5932 174.627C78.6997 174.794 78.8435 174.936 79.0246 175.054C79.2057 175.167 79.4064 175.263 79.6265 175.341C79.8467 175.419 80.0686 175.485 80.2924 175.538L81.3151 175.794C81.727 175.89 82.123 176.02 82.5029 176.183C82.8865 176.346 83.2292 176.552 83.531 176.801C83.8364 177.049 84.0779 177.349 84.2554 177.701C84.433 178.053 84.5218 178.464 84.5218 178.937C84.5218 179.576 84.3584 180.139 84.0317 180.625C83.705 181.108 83.2327 181.487 82.6148 181.76C82.0005 182.03 81.2565 182.165 80.3829 182.165C79.5342 182.165 78.7973 182.033 78.1723 181.771C77.5509 181.508 77.0644 181.124 76.7128 180.62C76.3648 180.116 76.1766 179.501 76.1482 178.777H78.0924C78.1208 179.157 78.238 179.473 78.444 179.725C78.65 179.977 78.9181 180.165 79.2483 180.29C79.5821 180.414 79.955 180.476 80.3669 180.476C80.7966 180.476 81.1731 180.412 81.4962 180.284C81.8229 180.153 82.0786 179.972 82.2632 179.741C82.4479 179.507 82.542 179.233 82.5456 178.921C82.542 178.637 82.4586 178.402 82.2952 178.218C82.1319 178.029 81.9028 177.873 81.6081 177.749C81.3169 177.621 80.976 177.507 80.5853 177.408L79.3442 177.088C78.4458 176.858 77.7355 176.508 77.2135 176.039C76.6951 175.567 76.4358 174.94 76.4358 174.159C76.4358 173.516 76.6098 172.953 76.9579 172.47C77.3094 171.987 77.787 171.613 78.3907 171.346C78.9944 171.076 79.678 170.941 80.4415 170.941C81.2157 170.941 81.8939 171.076 82.4763 171.346C83.0623 171.613 83.5221 171.984 83.8559 172.46C84.1897 172.932 84.362 173.475 84.3726 174.089H82.471Z" fill="#C5C5C5"/>
<path d="M67.8811 182V171.091H74.9763V172.747H69.8573V175.709H74.6087V177.366H69.8573V180.343H75.0189V182H67.8811Z" fill="#C5C5C5"/>
<path d="M59.542 182V171.091H66.5306V172.747H61.5182V175.709H66.0512V177.366H61.5182V182H59.542Z" fill="#C5C5C5"/>
<path d="M58.1236 176.545C58.1236 177.721 57.9034 178.727 57.4631 179.565C57.0263 180.4 56.4297 181.039 55.6733 181.483C54.9205 181.927 54.0664 182.149 53.1112 182.149C52.1559 182.149 51.3001 181.927 50.5437 181.483C49.7909 181.036 49.1943 180.395 48.7539 179.56C48.3172 178.722 48.0988 177.717 48.0988 176.545C48.0988 175.37 48.3172 174.365 48.7539 173.53C49.1943 172.692 49.7909 172.051 50.5437 171.607C51.3001 171.163 52.1559 170.941 53.1112 170.941C54.0664 170.941 54.9205 171.163 55.6733 171.607C56.4297 172.051 57.0263 172.692 57.4631 173.53C57.9034 174.365 58.1236 175.37 58.1236 176.545ZM56.1368 176.545C56.1368 175.718 56.0071 175.02 55.7479 174.452C55.4922 173.88 55.1371 173.449 54.6826 173.157C54.228 172.863 53.7042 172.715 53.1112 172.715C52.5181 172.715 51.9944 172.863 51.5398 173.157C51.0853 173.449 50.7284 173.88 50.4691 174.452C50.2135 175.02 50.0856 175.718 50.0856 176.545C50.0856 177.373 50.2135 178.072 50.4691 178.644C50.7284 179.212 51.0853 179.643 51.5398 179.938C51.9944 180.229 52.5181 180.375 53.1112 180.375C53.7042 180.375 54.228 180.229 54.6826 179.938C55.1371 179.643 55.4922 179.212 55.7479 178.644C56.0071 178.072 56.1368 177.373 56.1368 176.545Z" fill="#C5C5C5"/>
<path d="M39.0699 182V171.091H43.1609C43.9989 171.091 44.702 171.236 45.2702 171.528C45.842 171.819 46.2734 172.227 46.5646 172.753C46.8594 173.275 47.0067 173.884 47.0067 174.58C47.0067 175.279 46.8576 175.887 46.5593 176.402C46.2645 176.913 45.8295 177.309 45.2543 177.589C44.679 177.866 43.9723 178.005 43.1342 178.005H40.2205V176.364H42.8679C43.3579 176.364 43.7592 176.297 44.0717 176.162C44.3842 176.023 44.615 175.823 44.7642 175.56C44.9169 175.294 44.9932 174.967 44.9932 174.58C44.9932 174.193 44.9169 173.862 44.7642 173.589C44.6115 173.312 44.3789 173.103 44.0664 172.96C43.7539 172.815 43.3508 172.742 42.8572 172.742H41.0462V182H39.0699ZM44.7056 177.057L47.4062 182H45.201L42.5483 177.057H44.7056Z" fill="#C5C5C5"/>
<path d="M29.8666 182V171.091H33.9575C34.7956 171.091 35.4987 171.247 36.0669 171.56C36.6386 171.872 37.0701 172.302 37.3613 172.849C37.656 173.392 37.8034 174.01 37.8034 174.702C37.8034 175.402 37.656 176.023 37.3613 176.567C37.0665 177.11 36.6315 177.538 36.0562 177.85C35.4809 178.159 34.7725 178.314 33.9309 178.314H31.2196V176.689H33.6645C34.1546 176.689 34.5559 176.604 34.8684 176.434C35.1809 176.263 35.4117 176.029 35.5608 175.73C35.7135 175.432 35.7899 175.089 35.7899 174.702C35.7899 174.315 35.7135 173.974 35.5608 173.68C35.4117 173.385 35.1791 173.156 34.863 172.992C34.5505 172.826 34.1475 172.742 33.6539 172.742H31.8428V182H29.8666Z" fill="#C5C5C5"/>
<defs>
<linearGradient id="paint0_linear_144_177" x1="65.9999" y1="74.9995" x2="230" y2="139" gradientUnits="userSpaceOnUse">
<stop stop-color="#B2AFD3"/>
<stop offset="1" stop-color="#598BD8"/>
</linearGradient>
</defs>
</svg>
