<svg width="268" height="268" viewBox="0 0 268 268" fill="none" xmlns="http://www.w3.org/2000/svg">
<path opacity="0.1" d="M134 257V268C133.673 268 133.347 267.995 133.021 267.993L133.1 256.997C133.399 256.999 133.7 257 134 257ZM134.9 256.997L134.979 267.993C134.653 267.995 134.326 268 134 268V257C134.3 257 134.601 256.999 134.9 256.997ZM124.149 256.612L123.282 267.575C122.635 267.524 121.989 267.468 121.344 267.407L122.37 256.458C122.962 256.513 123.555 256.565 124.149 256.612ZM145.63 256.458L146.655 267.407C146.01 267.468 145.364 267.524 144.717 267.575L143.851 256.612C144.445 256.565 145.038 256.513 145.63 256.458ZM113.5 255.301L111.681 266.147C111.039 266.04 110.399 265.927 109.76 265.811L111.737 254.992C112.323 255.099 112.911 255.202 113.5 255.301ZM158.239 265.811C157.6 265.927 156.96 266.04 156.318 266.147L155.41 260.726L154.501 255.301C155.09 255.202 155.677 255.099 156.263 254.992L158.239 265.811ZM103.013 253.066L100.25 263.712C99.6192 263.548 98.9904 263.38 98.3633 263.207L101.282 252.604C101.857 252.762 102.434 252.916 103.013 253.066ZM169.636 263.207C169.009 263.38 168.38 263.548 167.749 263.712L166.368 258.391L164.987 253.066C165.566 252.916 166.143 252.762 166.718 252.604L169.636 263.207ZM92.7588 249.919L89.0723 260.28C88.4601 260.062 87.8502 259.84 87.2422 259.613L91.0801 249.308C91.6378 249.515 92.1973 249.719 92.7588 249.919ZM178.839 254.462L180.757 259.613C180.149 259.84 179.539 260.062 178.927 260.28L175.241 249.919C175.803 249.719 176.362 249.515 176.92 249.308L178.839 254.462ZM82.8213 245.883L78.2393 255.88C77.6488 255.609 77.0604 255.335 76.4746 255.057L81.2031 245.127C81.7404 245.383 82.2798 245.635 82.8213 245.883ZM191.524 255.057C190.939 255.335 190.35 255.609 189.76 255.88L185.179 245.883C185.72 245.635 186.26 245.383 186.797 245.127L191.524 255.057ZM73.2744 240.991L67.8359 250.549C67.2711 250.227 66.7081 249.903 66.1484 249.574L71.7256 240.095C72.2393 240.397 72.756 240.696 73.2744 240.991ZM201.851 249.574C201.291 249.903 200.728 250.227 200.163 250.549L194.726 240.991C195.244 240.696 195.761 240.397 196.274 240.095L201.851 249.574ZM64.1865 235.282L61.0605 239.807L61.0615 239.808L57.9355 244.332C57.4006 243.963 56.8681 243.59 56.3389 243.213L62.7217 234.255C63.2073 234.601 63.6957 234.943 64.1865 235.282ZM211.66 243.213C211.131 243.59 210.598 243.963 210.063 244.332L206.938 239.808L203.813 235.282C204.304 234.943 204.793 234.601 205.278 234.255L211.66 243.213ZM55.6279 228.804L48.6143 237.276C48.1135 236.862 47.6166 236.443 47.1221 236.021L54.2568 227.652C54.7109 228.039 55.1682 228.423 55.6279 228.804ZM220.877 236.021C220.382 236.443 219.885 236.862 219.385 237.276L212.372 228.804C212.832 228.423 213.289 228.039 213.743 227.652L220.877 236.021ZM47.6611 221.604L39.9404 229.437C39.4778 228.981 39.0185 228.521 38.5625 228.059L46.3955 220.339C46.8143 220.764 47.2362 221.186 47.6611 221.604ZM229.437 228.059C228.981 228.521 228.521 228.981 228.059 229.437L220.339 221.604C220.764 221.186 221.186 220.764 221.604 220.339L229.437 228.059ZM40.3477 213.743L31.9775 220.877C31.556 220.382 31.1371 219.885 30.7227 219.385L39.1963 212.372C39.5768 212.832 39.9606 213.289 40.3477 213.743ZM237.276 219.385C236.862 219.885 236.443 220.382 236.021 220.877L227.652 213.743C228.039 213.289 228.423 212.832 228.804 212.372L237.276 219.385ZM33.7451 205.278L24.7861 211.66C24.4091 211.131 24.0365 210.598 23.667 210.063L32.7178 203.813C33.0568 204.304 33.3992 204.793 33.7451 205.278ZM239.807 206.938L244.332 210.063C243.963 210.598 243.59 211.131 243.213 211.66L234.255 205.278C234.601 204.793 234.943 204.304 235.282 203.813L239.807 206.938ZM27.9053 196.274L18.4248 201.851C18.0955 201.291 17.7715 200.728 17.4502 200.163L27.0088 194.726C27.3037 195.244 27.603 195.761 27.9053 196.274ZM250.549 200.163C250.227 200.728 249.903 201.291 249.574 201.851L240.095 196.274C240.397 195.761 240.696 195.244 240.991 194.726L250.549 200.163ZM22.873 186.797L12.9424 191.524C12.6635 190.939 12.3897 190.35 12.1191 189.76L22.1172 185.179C22.3653 185.72 22.6173 186.26 22.873 186.797ZM255.88 189.76C255.609 190.35 255.335 190.939 255.057 191.524L245.127 186.797C245.383 186.26 245.635 185.72 245.883 185.179L255.88 189.76ZM18.6924 176.92L13.5371 178.839L13.5381 178.84L8.38574 180.757C8.15932 180.149 7.93656 179.539 7.71875 178.927L18.0811 175.241C18.2808 175.803 18.4847 176.362 18.6924 176.92ZM260.28 178.927C260.062 179.539 259.84 180.149 259.613 180.757L254.462 178.84L249.308 176.92C249.515 176.362 249.719 175.803 249.919 175.241L260.28 178.927ZM15.3965 166.718L4.79199 169.636C4.61942 169.009 4.45076 168.38 4.28711 167.749L14.9336 164.987C15.0837 165.566 15.2382 166.143 15.3965 166.718ZM263.712 167.749C263.548 168.38 263.38 169.009 263.207 169.636L252.604 166.718C252.762 166.143 252.916 165.566 253.066 164.987L263.712 167.749ZM13.0078 156.263L2.74805 158.138L2.18848 158.239C2.07177 157.6 1.95918 156.96 1.85156 156.318L12.6992 154.501C12.7979 155.09 12.9008 155.677 13.0078 156.263ZM266.147 156.318C266.04 156.96 265.927 157.6 265.811 158.239L260.402 157.252L254.992 156.263C255.099 155.677 255.202 155.089 255.301 154.5L266.147 156.318ZM11.542 145.63L6.06445 146.143L6.06543 146.144L0.819336 146.635L0.591797 146.655C0.531388 146.01 0.475065 145.364 0.423828 144.717L11.3877 143.851C11.4347 144.445 11.4865 145.038 11.542 145.63ZM267.575 144.717C267.524 145.364 267.468 146.01 267.407 146.655L267.181 146.635L261.935 146.144L256.458 145.63C256.513 145.038 256.565 144.445 256.612 143.851L267.575 144.717ZM0 134C0 133.673 0.00352393 133.347 0.00585938 133.021L5.50293 133.06L11.0029 133.1C11.0008 133.399 11 133.7 11 134C11 134.3 11.0008 134.601 11.0029 134.9L5.50195 134.939L5.50293 134.94L0.00585938 134.979C0.00352858 134.653 0 134.326 0 134ZM267.993 134.979L262.497 134.94L256.997 134.9C256.999 134.601 257 134.3 257 134C257 133.7 256.999 133.399 256.997 133.1L267.993 133.021C267.995 133.347 268 133.673 268 134C268 134.326 267.995 134.653 267.993 134.979ZM11.542 122.37C11.4865 122.962 11.4347 123.555 11.3877 124.149L0.423828 123.282C0.475069 122.635 0.531384 121.989 0.591797 121.344L11.542 122.37ZM267.407 121.344C267.468 121.989 267.524 122.635 267.575 123.282L256.612 124.149C256.565 123.555 256.513 122.962 256.458 122.37L267.407 121.344ZM7.59766 110.748L13.0078 111.737C12.9008 112.323 12.798 112.911 12.6992 113.5L1.85156 111.681C1.95918 111.039 2.07177 110.399 2.18848 109.76L7.59766 110.748ZM265.811 109.76C265.927 110.399 266.04 111.039 266.147 111.681L260.726 112.59L260.725 112.589L255.301 113.499C255.202 112.91 255.099 112.323 254.992 111.737L265.811 109.76ZM15.3965 101.282C15.2382 101.857 15.0837 102.434 14.9336 103.013L4.28711 100.25C4.45077 99.6192 4.61941 98.9904 4.79199 98.3633L15.3965 101.282ZM263.207 98.3633C263.38 98.9904 263.548 99.6192 263.712 100.25L258.391 101.632L258.39 101.631L253.066 103.013C252.916 102.434 252.762 101.857 252.604 101.282L263.207 98.3633ZM13.5381 89.1602L18.6924 91.0801C18.4847 91.6378 18.2808 92.1973 18.0811 92.7588L7.71875 89.0723C7.93656 88.4601 8.15932 87.8502 8.38574 87.2422L13.5381 89.1602ZM259.613 87.2422C259.84 87.8502 260.062 88.4601 260.28 89.0723L249.919 92.7588C249.719 92.1973 249.515 91.6378 249.308 91.0801L259.613 87.2422ZM22.873 81.2031C22.6173 81.7404 22.3653 82.2798 22.1172 82.8213L12.1191 78.2393C12.3897 77.6489 12.6635 77.0604 12.9424 76.4746L22.873 81.2031ZM255.057 76.4746C255.335 77.0604 255.609 77.6488 255.88 78.2393L245.883 82.8213C245.635 82.2798 245.383 81.7404 245.127 81.2031L255.057 76.4746ZM27.9053 71.7256C27.603 72.2393 27.3037 72.756 27.0088 73.2744L17.4502 67.8359C17.7715 67.2711 18.0955 66.7081 18.4248 66.1484L27.9053 71.7256ZM249.574 66.1484C249.903 66.7081 250.227 67.2711 250.549 67.8359L240.991 73.2744C240.696 72.756 240.397 72.2393 240.095 71.7256L249.574 66.1484ZM33.7451 62.7217C33.3992 63.2073 33.0568 63.6957 32.7178 64.1865L28.1924 61.0605L23.667 57.9355C24.0365 57.4006 24.4091 56.8681 24.7861 56.3389L33.7451 62.7217ZM243.213 56.3398C243.59 56.8689 243.963 57.4008 244.332 57.9355L239.808 61.0615L239.807 61.0605L235.282 64.1865C234.943 63.6957 234.601 63.2073 234.255 62.7217L243.213 56.3398ZM40.3477 54.2568C39.9606 54.7109 39.5768 55.1682 39.1963 55.6279L30.7227 48.6143C31.1371 48.1135 31.556 47.6166 31.9775 47.1221L40.3477 54.2568ZM236.021 47.1221C236.443 47.6166 236.862 48.1135 237.276 48.6143L228.804 55.6279C228.423 55.1682 228.039 54.7109 227.652 54.2568L236.021 47.1221ZM47.6611 46.3955C47.2362 46.8143 46.8143 47.2362 46.3955 47.6611L38.5625 39.9404C39.0185 39.4778 39.4778 39.0185 39.9404 38.5625L47.6611 46.3955ZM228.059 38.5625C228.521 39.0185 228.981 39.4778 229.437 39.9404L221.604 47.6611C221.186 47.2362 220.764 46.8143 220.339 46.3955L228.059 38.5625ZM55.6279 39.1963C55.1682 39.5768 54.7109 39.9606 54.2568 40.3477L47.1221 31.9775C47.6166 31.556 48.1135 31.1371 48.6143 30.7227L55.6279 39.1963ZM219.385 30.7227C219.885 31.1371 220.382 31.556 220.877 31.9775L213.743 40.3477C213.289 39.9606 212.832 39.5768 212.372 39.1963L219.385 30.7227ZM64.1865 32.7178C63.6957 33.0568 63.2073 33.3992 62.7217 33.7451L56.3398 24.7861C56.8689 24.4093 57.4009 24.0363 57.9355 23.667L64.1865 32.7178ZM210.063 23.667C210.598 24.0365 211.131 24.4091 211.66 24.7861L205.278 33.7451C204.793 33.3992 204.304 33.0568 203.813 32.7178L210.063 23.667ZM73.2744 27.0088C72.756 27.3037 72.2393 27.603 71.7256 27.9053L66.1484 18.4248C66.7081 18.0955 67.2711 17.7715 67.8359 17.4502L73.2744 27.0088ZM200.163 17.4502C200.728 17.7715 201.291 18.0955 201.851 18.4248L196.274 27.9053C195.761 27.603 195.244 27.3037 194.726 27.0088L200.163 17.4502ZM82.8213 22.1172C82.2798 22.3653 81.7404 22.6173 81.2031 22.873L76.4746 12.9424C77.0604 12.6635 77.6489 12.3897 78.2393 12.1191L82.8213 22.1172ZM189.76 12.1191C190.35 12.3897 190.939 12.6635 191.524 12.9424L186.797 22.873C186.26 22.6173 185.72 22.3653 185.179 22.1172L189.76 12.1191ZM92.7588 18.0811C92.1973 18.2808 91.6378 18.4847 91.0801 18.6924L87.2422 8.38574C87.8502 8.15932 88.4601 7.93656 89.0723 7.71875L92.7588 18.0811ZM178.927 7.71875C179.539 7.93656 180.149 8.15932 180.757 8.38574L176.92 18.6924C176.362 18.4847 175.803 18.2808 175.241 18.0811L178.927 7.71875ZM101.632 9.60938L103.013 14.9336C102.434 15.0837 101.857 15.2382 101.282 15.3965L98.3633 4.79199C98.9904 4.61941 99.6192 4.45077 100.25 4.28711L101.632 9.60938ZM167.749 4.28711C168.38 4.45076 169.009 4.61942 169.636 4.79199L166.718 15.3965C166.143 15.2382 165.566 15.0837 164.987 14.9336L167.749 4.28711ZM113.499 12.6992C112.91 12.7979 112.323 12.9008 111.737 13.0078L109.76 2.18848C110.399 2.07177 111.039 1.95918 111.681 1.85156L113.499 12.6992ZM156.318 1.85156C156.96 1.95918 157.6 2.07177 158.239 2.18848L157.252 7.59766L157.251 7.59668L156.263 13.0078C155.677 12.9008 155.089 12.798 154.5 12.6992L156.318 1.85156ZM124.149 11.3877C123.555 11.4347 122.962 11.4865 122.37 11.542L121.344 0.591797C121.989 0.531384 122.635 0.475069 123.282 0.423828L124.149 11.3877ZM144.717 0.423828C145.364 0.475065 146.01 0.531388 146.655 0.591797L145.63 11.542C145.038 11.4865 144.445 11.4347 143.851 11.3877L144.717 0.423828ZM134.979 0.00585938L134.9 11.0029C134.601 11.0008 134.3 11 134 11C133.7 11 133.399 11.0008 133.1 11.0029L133.021 0.00585938C133.347 0.00352392 133.673 0 134 0C134.326 0 134.653 0.00352858 134.979 0.00585938Z" fill="#C5C5C5"/>
<path opacity="0.15" d="M134 266V268C133.673 268 133.347 267.995 133.021 267.993L133.035 265.996C133.356 265.998 133.678 266 134 266ZM134.972 266.996L134.974 267.136L134.979 267.993C134.653 267.995 134.326 268 134 268V266C134.322 266 134.644 265.998 134.965 265.996L134.972 266.996ZM123.439 265.584L123.282 267.575C122.635 267.524 121.989 267.468 121.344 267.407L121.53 265.419C122.165 265.478 122.802 265.534 123.439 265.584ZM146.655 267.407C146.01 267.468 145.364 267.524 144.717 267.575L144.561 265.584C145.198 265.534 145.835 265.478 146.47 265.419L146.655 267.407ZM112.012 264.177L111.681 266.147C111.039 266.04 110.399 265.927 109.76 265.811L110.119 263.846C110.748 263.961 111.379 264.071 112.012 264.177ZM158.239 265.811C157.6 265.927 156.96 266.04 156.318 266.147L156.294 265.996L155.988 264.177C156.621 264.071 157.252 263.961 157.881 263.846L158.239 265.811ZM100.753 261.778L100.25 263.712C99.6192 263.548 98.9904 263.38 98.3633 263.207L98.8945 261.281C99.5121 261.451 100.132 261.617 100.753 261.778ZM169.636 263.207C169.009 263.38 168.38 263.548 167.749 263.712L167.247 261.778C167.868 261.617 168.488 261.451 169.105 261.281L169.636 263.207ZM89.7422 258.398L89.0723 260.28C88.4601 260.062 87.8502 259.84 87.2422 259.613L87.9395 257.741C88.5384 257.964 89.1392 258.184 89.7422 258.398ZM180.409 258.679L180.42 258.705L180.757 259.613C180.149 259.84 179.539 260.062 178.927 260.28L178.258 258.398C178.861 258.184 179.462 257.964 180.061 257.741L180.409 258.679ZM79.0723 254.064L78.2393 255.88C77.6488 255.609 77.0604 255.335 76.4746 255.057L77.334 253.253C77.9109 253.528 78.4907 253.798 79.0723 254.064ZM191.524 255.057C190.939 255.335 190.35 255.609 189.76 255.88L188.928 254.064C189.509 253.798 190.089 253.528 190.666 253.253L191.524 255.057ZM68.8232 248.813L67.8359 250.549C67.2711 250.227 66.7081 249.903 66.1484 249.574L67.1621 247.853C67.7133 248.177 68.267 248.497 68.8232 248.813ZM201.851 249.574C201.291 249.903 200.728 250.227 200.163 250.549L199.177 248.813C199.733 248.497 200.287 248.177 200.838 247.853L201.851 249.574ZM59.0723 242.688L57.9355 244.332C57.4006 243.963 56.8681 243.59 56.3389 243.213L57.5 241.585C58.0212 241.956 58.5455 242.324 59.0723 242.688ZM211.66 243.213C211.131 243.59 210.598 243.963 210.063 244.332L208.928 242.688C209.455 242.324 209.979 241.956 210.5 241.585L211.66 243.213ZM49.8896 235.736L48.6143 237.276C48.1135 236.862 47.6166 236.443 47.1221 236.021L48.4189 234.501C48.9061 234.916 49.3964 235.328 49.8896 235.736ZM220.877 236.021C220.382 236.443 219.885 236.862 219.385 237.276L218.11 235.736C218.604 235.328 219.094 234.916 219.581 234.501L220.877 236.021ZM41.3428 228.015L40.6406 228.726L40.6416 228.727L39.9404 229.437C39.4778 228.981 39.0185 228.521 38.5625 228.059L39.9854 226.657C40.4346 227.113 40.887 227.565 41.3428 228.015ZM228.726 227.358L229.437 228.059C228.981 228.521 228.521 228.981 228.059 229.437L227.358 228.727L226.657 228.015C227.113 227.565 227.565 227.113 228.015 226.657L228.726 227.358ZM33.499 219.581L31.9775 220.877C31.556 220.382 31.1371 219.885 30.7227 219.385L32.2637 218.11C32.6719 218.604 33.0838 219.094 33.499 219.581ZM237.276 219.385C236.862 219.885 236.443 220.382 236.021 220.877L234.501 219.581C234.916 219.094 235.328 218.604 235.736 218.11L237.276 219.385ZM26.415 210.5L24.7861 211.66C24.4091 211.131 24.0365 210.598 23.667 210.063L25.3125 208.928C25.6764 209.455 26.0437 209.979 26.415 210.5ZM244.332 210.063C243.963 210.598 243.59 211.131 243.213 211.66L241.585 210.5C241.956 209.979 242.324 209.455 242.688 208.928L244.332 210.063ZM20.1475 200.838L18.4248 201.851C18.0955 201.291 17.7715 200.728 17.4502 200.163L19.1865 199.177C19.503 199.733 19.8232 200.287 20.1475 200.838ZM250.549 200.163C250.227 200.728 249.903 201.291 249.574 201.851L248.714 201.345L247.853 200.838C248.177 200.287 248.497 199.733 248.813 199.177L250.549 200.163ZM14.7471 190.666L12.9424 191.524C12.6635 190.939 12.3897 190.35 12.1191 189.76L13.9355 188.928C14.202 189.509 14.4724 190.089 14.7471 190.666ZM255.88 189.76C255.609 190.35 255.335 190.939 255.057 191.524L253.253 190.666C253.528 190.089 253.798 189.509 254.064 188.928L255.88 189.76ZM10.2588 180.061L8.38574 180.757C8.15932 180.149 7.93656 179.539 7.71875 178.927L9.60156 178.258C9.81612 178.861 10.0357 179.462 10.2588 180.061ZM260.28 178.927C260.062 179.539 259.84 180.149 259.613 180.757L258.679 180.41L257.741 180.061C257.964 179.462 258.184 178.861 258.398 178.258L260.28 178.927ZM6.71875 169.105L4.79199 169.636C4.61942 169.009 4.45076 168.38 4.28711 167.749L6.22168 167.247C6.38284 167.868 6.54881 168.488 6.71875 169.105ZM263.712 167.749C263.548 168.38 263.38 169.009 263.207 169.636L261.281 169.105C261.451 168.488 261.617 167.868 261.778 167.247L263.712 167.749ZM4.1543 157.881L3.16992 158.06L3.1709 158.061L2.18848 158.239C2.07177 157.6 1.95918 156.96 1.85156 156.318L3.82324 155.988C3.92925 156.621 4.03934 157.252 4.1543 157.881ZM266.147 156.318C266.04 156.96 265.927 157.6 265.811 158.239L264.829 158.061L263.846 157.881C263.961 157.252 264.071 156.621 264.177 155.988L266.147 156.318ZM2.58105 146.47L0.591797 146.655C0.531388 146.01 0.475065 145.364 0.423828 144.717L2.41602 144.561C2.46648 145.198 2.52156 145.835 2.58105 146.47ZM267.575 144.717C267.524 145.364 267.468 146.01 267.407 146.655L265.419 146.47C265.478 145.835 265.534 145.198 265.584 144.561L267.575 144.717ZM0 134C0 133.673 0.00352393 133.347 0.00585938 133.021L2.00391 133.035C2.00161 133.356 2 133.678 2 134C2 134.322 2.00161 134.644 2.00391 134.965L0.00585938 134.979C0.00352858 134.653 0 134.326 0 134ZM267.993 134.979L265.996 134.965C265.998 134.644 266 134.322 266 134C266 133.678 265.998 133.356 265.996 133.035L267.993 133.021C267.995 133.347 268 133.673 268 134C268 134.326 267.995 134.653 267.993 134.979ZM2.58105 121.53C2.52156 122.165 2.46648 122.802 2.41602 123.439L0.423828 123.282C0.475069 122.635 0.531384 121.989 0.591797 121.344L2.58105 121.53ZM267.407 121.344C267.468 121.989 267.524 122.635 267.575 123.282L265.584 123.439C265.534 122.802 265.478 122.165 265.419 121.53L267.407 121.344ZM4.1543 110.119C4.03934 110.748 3.92925 111.379 3.82324 112.012L1.85156 111.681C1.95918 111.039 2.07177 110.399 2.18848 109.76L4.1543 110.119ZM265.811 109.76C265.927 110.399 266.04 111.039 266.147 111.681L264.177 112.012C264.071 111.379 263.961 110.748 263.846 110.119L265.811 109.76ZM5.75488 98.6289L6.71875 98.8945C6.5488 99.5121 6.38284 100.132 6.22168 100.753L4.28711 100.25C4.45077 99.6192 4.61941 98.9904 4.79199 98.3633L5.75488 98.6289ZM263.207 98.3633C263.38 98.9904 263.548 99.6192 263.712 100.25L262.746 100.502L262.745 100.501L261.778 100.753C261.617 100.132 261.451 99.5121 261.281 98.8945L263.207 98.3633ZM9.32129 87.5898L10.2588 87.9395C10.0357 88.5384 9.81612 89.1392 9.60156 89.7422L7.71875 89.0723C7.93656 88.4601 8.15932 87.8502 8.38574 87.2422L9.32129 87.5898ZM259.613 87.2422C259.84 87.8502 260.062 88.4601 260.28 89.0723L258.398 89.7422C258.184 89.1392 257.964 88.5384 257.741 87.9395L259.613 87.2422ZM14.7471 77.334C14.4724 77.9109 14.202 78.4907 13.9355 79.0723L12.1191 78.2393C12.3897 77.6489 12.6635 77.0604 12.9424 76.4746L14.7471 77.334ZM255.057 76.4746C255.335 77.0604 255.609 77.6488 255.88 78.2393L254.064 79.0723C253.798 78.4907 253.528 77.9109 253.253 77.334L255.057 76.4746ZM20.1475 67.1621C19.8232 67.7132 19.503 68.267 19.1865 68.8232L17.4502 67.8359C17.7715 67.2711 18.0955 66.7081 18.4248 66.1484L20.1475 67.1621ZM249.574 66.1484C249.903 66.7081 250.227 67.2711 250.549 67.8359L248.813 68.8232C248.497 68.267 248.177 67.7133 247.853 67.1621L249.574 66.1484ZM26.415 57.5C26.0437 58.0212 25.6764 58.5455 25.3125 59.0723L24.4893 58.5029L23.667 57.9355C24.0365 57.4006 24.4091 56.8681 24.7861 56.3389L26.415 57.5ZM243.213 56.3398C243.59 56.8689 243.963 57.4008 244.332 57.9355L243.511 58.5039L243.51 58.5029L242.688 59.0723C242.324 58.5454 241.956 58.0212 241.585 57.5L243.213 56.3398ZM33.499 48.4189C33.0838 48.9061 32.6719 49.3964 32.2637 49.8896L30.7227 48.6143C31.1371 48.1135 31.556 47.6166 31.9775 47.1221L33.499 48.4189ZM236.021 47.1221C236.443 47.6166 236.862 48.1135 237.276 48.6143L235.736 49.8896C235.328 49.3964 234.916 48.9061 234.501 48.4189L236.021 47.1221ZM41.3428 39.9854C40.887 40.4346 40.4346 40.887 39.9854 41.3428L39.2734 40.6406L38.5625 39.9404C39.0185 39.4778 39.4778 39.0185 39.9404 38.5625L41.3428 39.9854ZM228.059 38.5625C228.521 39.0185 228.981 39.4778 229.437 39.9404L228.727 40.6416L228.726 40.6406L228.015 41.3428C227.565 40.887 227.113 40.4346 226.657 39.9854L228.059 38.5625ZM49.8896 32.2637C49.3964 32.6719 48.9061 33.0838 48.4189 33.499L47.1221 31.9775C47.6166 31.556 48.1135 31.1371 48.6143 30.7227L49.8896 32.2637ZM219.385 30.7227C219.885 31.1371 220.382 31.556 220.877 31.9775L219.581 33.499C219.094 33.0838 218.604 32.6719 218.11 32.2637L219.385 30.7227ZM59.0723 25.3125C58.5454 25.6764 58.0212 26.0437 57.5 26.415L56.3398 24.7861C56.8689 24.4093 57.4009 24.0363 57.9355 23.667L59.0723 25.3125ZM210.063 23.667C210.598 24.0365 211.131 24.4091 211.66 24.7861L210.5 26.415C209.979 26.0437 209.455 25.6764 208.928 25.3125L210.063 23.667ZM68.8232 19.1865C68.267 19.503 67.7133 19.8232 67.1621 20.1475L66.1484 18.4248C66.7081 18.0955 67.2711 17.7715 67.8359 17.4502L68.8232 19.1865ZM200.163 17.4502C200.728 17.7715 201.291 18.0955 201.851 18.4248L200.838 20.1475C200.287 19.8232 199.733 19.503 199.177 19.1865L200.163 17.4502ZM79.0723 13.9355C78.4907 14.202 77.9109 14.4724 77.334 14.7471L76.4746 12.9424C77.0604 12.6635 77.6489 12.3897 78.2393 12.1191L79.0723 13.9355ZM189.76 12.1191C190.35 12.3897 190.939 12.6635 191.524 12.9424L190.666 14.7471C190.089 14.4724 189.509 14.202 188.928 13.9355L189.76 12.1191ZM89.7422 9.60156C89.1392 9.81612 88.5384 10.0357 87.9395 10.2588L87.2422 8.38574C87.8502 8.15932 88.4601 7.93656 89.0723 7.71875L89.7422 9.60156ZM178.927 7.71875C179.539 7.93656 180.149 8.15932 180.757 8.38574L180.061 10.2588C179.462 10.0357 178.861 9.81612 178.258 9.60156L178.927 7.71875ZM100.502 5.25391L100.753 6.22168C100.132 6.38284 99.5121 6.54881 98.8945 6.71875L98.3633 4.79199C98.9904 4.61941 99.6192 4.45077 100.25 4.28711L100.502 5.25391ZM167.749 4.28711C168.38 4.45076 169.009 4.61942 169.636 4.79199L169.105 6.71875C168.488 6.5488 167.868 6.38284 167.247 6.22168L167.749 4.28711ZM112.012 3.82324C111.379 3.92925 110.748 4.03934 110.119 4.1543L109.76 2.18848C110.399 2.07177 111.039 1.95918 111.681 1.85156L112.012 3.82324ZM156.318 1.85156C156.96 1.95918 157.6 2.07177 158.239 2.18848L157.881 4.1543C157.252 4.03934 156.621 3.92925 155.988 3.82324L156.318 1.85156ZM123.439 2.41602C122.802 2.46648 122.165 2.52156 121.53 2.58105L121.344 0.591797C121.989 0.531384 122.635 0.475069 123.282 0.423828L123.439 2.41602ZM144.717 0.423828C145.364 0.475065 146.01 0.531388 146.655 0.591797L146.47 2.58105C145.835 2.52156 145.198 2.46648 144.561 2.41602L144.717 0.423828ZM134.979 0.00585938L134.965 2.00391C134.644 2.00161 134.322 2 134 2C133.678 2 133.356 2.00161 133.035 2.00391L133.026 0.874023L133.021 0.00585938C133.347 0.00352392 133.673 0 134 0C134.326 0 134.653 0.00352858 134.979 0.00585938Z" fill="#C5C5C5"/>
</svg>
