<svg width="195" height="54" viewBox="0 0 195 54" fill="none" xmlns="http://www.w3.org/2000/svg">
<path d="M186.608 7.37485C187.55 6.42899 188.684 5.95605 190.009 5.95605C191.335 5.95605 192.469 6.42899 193.411 7.37485C194.353 8.32072 194.824 9.45926 194.824 10.7905C194.824 12.1217 194.344 13.2602 193.385 14.2061C192.443 15.1345 191.317 15.5986 190.009 15.5986C188.684 15.5986 187.55 15.1257 186.608 14.1798C185.666 13.234 185.195 12.1042 185.195 10.7905C185.195 9.44175 185.666 8.3032 186.608 7.37485ZM192.678 8.11053C191.945 7.35734 191.056 6.98074 190.009 6.98074C188.963 6.98074 188.064 7.35734 187.314 8.11053C186.582 8.86372 186.215 9.75703 186.215 10.7905C186.215 11.8414 186.582 12.7348 187.314 13.4704C188.064 14.2061 188.963 14.5739 190.009 14.5739C191.056 14.5739 191.945 14.2061 192.678 13.4704C193.428 12.7172 193.803 11.8239 193.803 10.7905C193.803 9.73952 193.428 8.8462 192.678 8.11053ZM187.89 8.08425H190.428C191.004 8.08425 191.466 8.22438 191.815 8.50464C192.164 8.78489 192.338 9.18776 192.338 9.71325C192.338 10.3613 192.024 10.7905 191.396 11.0007C191.745 11.1758 191.963 11.3685 192.05 11.5787C192.155 11.7889 192.225 12.1129 192.259 12.5508L192.286 12.8661C192.338 13.234 192.373 13.4442 192.39 13.4967H190.873C190.803 13.2865 190.768 13.0413 190.768 12.761C190.768 12.2881 190.707 11.9816 190.585 11.8414C190.463 11.7013 190.192 11.6313 189.774 11.6313H189.486V13.4967H187.89V8.08425ZM189.486 10.4489H189.826C190.437 10.4489 190.742 10.2387 190.742 9.81834C190.742 9.43299 190.445 9.24031 189.852 9.24031H189.486V10.4489Z" fill="#C5C5C5"/>
<path d="M44.7847 8.43161H49.5208V13.4844H44.7847V43.3331L50.6082 48.105L43.5635 54C40.6205 50.7563 37.2341 47.5833 32.8508 46.3981L31.931 45.0874C33.1136 44.5631 34.5896 44.0925 34.9222 43.1459C35.3605 41.8984 35.5798 40.4948 35.5798 38.9354V13.4844H31.5409V11.9873C31.5409 11.9873 35.9567 9.65511 38.3698 7.60194C41.3295 5.08363 44.7847 0 44.7847 0V8.43161Z" fill="#C5C5C5"/>
<path fill-rule="evenodd" clip-rule="evenodd" d="M66.4726 6.56031C71.1063 9.74163 76.0531 11.9873 81.313 13.2973V46.608C78.5578 47.6684 76.1784 48.729 74.1746 49.7894C72.1708 50.8499 70.0104 52.2534 67.6935 54C65.0635 52.0039 62.277 50.3196 59.334 48.9472C56.4536 47.5749 54.979 46.9223 52.036 46.9223L50.5905 45.7427L52.1956 44.1753C52.3208 44.0505 52.4774 43.7384 52.6653 43.2394C52.8531 42.7403 53.041 41.4303 53.2289 39.3096V14.2329C58.113 12.6734 62.5277 10.1159 66.4726 6.56031ZM62.3396 42.2103L72.1081 46.4208V18.0692L62.3396 13.8586V42.2103Z" fill="#C5C5C5"/>
<path d="M135.762 13.7652L136.326 14.3266V44.2687L139.613 47.6373L131.911 54L124.021 47.6373L127.027 44.2687V17.2272L124.028 13.8932L116.883 19.9223V44.2687L120.264 47.6373L112.562 54L104.672 47.6373L107.678 44.2687V21.4378C107.678 19.6288 107.333 18.194 106.645 17.1336C106.067 16.0971 105.392 15.3228 104.334 14.2864L97.4397 20.2075V44.2687L100.821 47.6373L93.2129 54L85.0413 47.3565L88.3287 43.9881V18.7243C88.3287 17.1649 88.0158 16.0108 87.3896 15.2622C86.8261 14.4513 85.9806 14.3889 84.8534 15.0751L83.5907 13.2973L92.2736 6.56031C94.4653 8.05742 95.8744 9.52327 96.5006 10.958C97.1268 12.3927 97.4397 14.4826 97.4397 17.2272L110.12 6.56031C112.186 8.05741 113.783 9.64802 114.91 11.3323C116.1 13.0165 116.695 14.9816 116.695 17.2272L129.187 6.56031L135.762 13.7652Z" fill="#C5C5C5"/>
<path d="M156.283 12.923L153.09 15.8236V44.7367L156.847 48.6664L149.896 54C148.519 52.4405 147.11 51.0681 145.67 49.8829C144.292 48.6977 142.726 47.5126 140.973 46.3274V45.4852C141.912 45.1109 142.632 44.5182 143.133 43.7073C143.697 42.8964 143.979 41.4305 143.979 39.3096V15.4494L142.268 12.6422L148.487 6.56031L156.283 12.923Z" fill="#C5C5C5"/>
<path d="M182.613 12.6422L177.917 19.4728L170.121 15.1686V43.6136L178.198 47.2631L182.237 44.0816L183.176 45.2981L172.375 54C168.367 51.1929 163.671 49.4463 158.286 48.7601V47.6373C159.35 46.8888 160.039 45.9529 160.352 44.8301C160.728 43.7073 160.916 42.2725 160.916 40.5259V21.5312C160.916 19.8471 160.697 18.7243 160.258 18.1629C159.939 17.6332 159.169 17.2385 157.947 16.9787V15.5216C160.329 14.7688 162.634 13.6532 164.861 12.1745C167.365 10.4902 169.651 8.61883 171.717 6.56031L182.613 12.6422Z" fill="#C5C5C5"/>
<path fill-rule="evenodd" clip-rule="evenodd" d="M12.0891 6.5534C13.4041 7.1148 14.8092 7.73854 16.2494 8.4247C17.6895 9.11086 19.0672 9.70353 20.3821 10.2026C21.6971 10.6392 22.9182 10.92 24.0453 11.0448C25.235 11.1695 26.2371 10.8887 27.0511 10.2026L29.0234 8.61183L30.2446 9.45404C29.4932 10.5769 28.8982 11.6061 28.4599 12.5418C28.0215 13.4775 27.6773 14.4757 27.4268 15.5362C27.1764 16.5342 27.0198 17.657 26.9572 18.9045C26.8946 20.0897 26.8633 21.5245 26.8633 23.2088V41.0806C26.8633 42.8896 27.1138 44.3244 27.6147 45.3848C28.126 46.2902 29.2378 46.2731 30.617 45.7729L31.5368 47.3375L23.1062 53.9931C21.4781 52.5584 20.1945 51.0612 19.2552 49.5017C18.3786 47.9422 17.8149 46.0708 17.5644 43.8875L5.16605 53.9931C3.09967 52.3712 1.37759 50.5935 0 48.6597V27.6889H0.82897C2.64101 27.4109 7.7657 26.5525 10.9434 25.2961C13.4617 24.3005 16.7126 22.1015 17.5644 21.5118V14.1553L14.9369 13.0628C14.9077 13.0775 14.8779 13.0924 14.847 13.1068C13.0628 13.9373 10.1864 15.3121 8.14701 16.2371L2.36526 18.6521C3.7669 17.2959 6.30732 13.6055 5.25613 9.69237C7.8683 8.6705 11.2949 7.16103 12.0876 6.5534V6.55442C12.0881 6.55405 12.0886 6.55377 12.0891 6.5534ZM17.5644 24.1329C16.855 24.6276 14.5184 26.2259 13.0089 26.8689C10.9874 27.7301 7.91452 28.7414 7.32625 28.9333V45.104C8.06551 46.2087 9.18335 46.7146 10.6796 46.6215L17.5644 41.0174V24.1329Z" fill="#C5C5C5"/>
</svg>
