<svg width="24" height="24" viewBox="0 0 24 24" fill="none" xmlns="http://www.w3.org/2000/svg">
<g clip-path="url(#clip0_252_612)">
<path fill-rule="evenodd" clip-rule="evenodd" d="M18.0142 14.2954C17.0036 14.2954 16.0563 13.8468 15.1955 13.1155L15.4045 12.0812L15.4114 12.0408C15.6011 10.9416 16.1896 9.09812 18.0142 9.09812C19.381 9.09812 20.492 10.2637 20.492 11.6975C20.492 13.1299 19.381 14.2954 18.0142 14.2954ZM18.0142 6.46702C15.6864 6.46702 13.8796 8.05376 13.1467 10.6661C12.0289 8.90194 11.1778 6.78436 10.6841 5H8.17612V11.8403C8.1754 12.4897 7.92918 13.1122 7.49149 13.5714C7.0538 14.0306 6.46037 14.2889 5.84137 14.2897C5.22262 14.2885 4.62955 14.03 4.19215 13.5709C3.75475 13.1118 3.50873 12.4894 3.508 11.8403V5H1V11.8403C1 14.6416 3.1725 16.9395 5.84137 16.9395C8.51162 16.9395 10.6841 14.6416 10.6841 11.8403V10.695C11.1695 11.7595 11.7676 12.8385 12.4936 13.792L10.9591 20H13.5235L14.6359 15.8721C15.6094 16.5255 16.73 16.9395 18.0142 16.9395C20.7642 16.9395 23 14.581 23 11.6975C23 8.81251 20.7642 6.46702 18.0142 6.46702Z" fill="#C5C5C5"/>
</g>
<defs>
<clipPath id="clip0_252_612">
<rect width="24" height="24" fill="white"/>
</clipPath>
</defs>
</svg>
