<svg width="59" height="29" viewBox="0 0 59 29" fill="none" xmlns="http://www.w3.org/2000/svg">
<g opacity="0.5" clip-path="url(#clip0_275_255)">
<path d="M43.9994 26.5837C37.0956 26.5837 31.4994 21.1739 31.4994 14.5003C31.4994 7.8267 37.0956 2.41699 43.9994 2.41699C50.9031 2.41699 56.4994 7.8267 56.4994 14.5003C56.4994 21.1739 50.9031 26.5837 43.9994 26.5837ZM41.1369 23.7646C39.9037 21.236 39.1892 18.5002 39.0331 15.7087H34.0769C34.3201 17.5682 35.1168 19.3194 36.3701 20.7495C37.6234 22.1796 39.2794 23.2271 41.1369 23.7646V23.7646ZM41.5369 15.7087C41.7256 18.6558 42.5969 21.4241 43.9994 23.8673C45.4398 21.3595 46.2812 18.5718 46.4619 15.7087H41.5369V15.7087ZM53.9219 15.7087H48.9656C48.8096 18.5002 48.0951 21.236 46.8619 23.7646C48.7194 23.2271 50.3754 22.1796 51.6287 20.7495C52.882 19.3194 53.6787 17.5682 53.9219 15.7087V15.7087ZM34.0769 13.292H39.0331C39.1892 10.5005 39.9037 7.7647 41.1369 5.23603C39.2794 5.7736 37.6234 6.82107 36.3701 8.25118C35.1168 9.6813 34.3201 11.4325 34.0769 13.292V13.292ZM41.5381 13.292H46.4606C46.2803 10.429 45.4394 7.64126 43.9994 5.13333C42.559 7.64116 41.7176 10.4289 41.5369 13.292H41.5381ZM46.8619 5.23603C48.0951 7.7647 48.8096 10.5005 48.9656 13.292H53.9219C53.6787 11.4325 52.882 9.6813 51.6287 8.25118C50.3754 6.82107 48.7194 5.7736 46.8619 5.23603V5.23603Z" fill="#C5C5C5"/>
</g>
<g opacity="0.5">
<path d="M24.6039 8.64648V20.3525L14.4994 26.2021L4.39587 20.3525V8.64648L14.4994 2.79688L24.6039 8.64648Z" stroke="#C5C5C5" stroke-width="2.75"/>
<path d="M7.85291 12.0475L13.2917 15.1963V21.2965H15.7083V15.1963L21.147 12.0475L19.9363 9.95607L14.5 13.1034L9.06375 9.95605L7.85291 12.0475Z" fill="#D9D9D9"/>
</g>
<defs>
<clipPath id="clip0_275_255">
<rect width="30" height="29" fill="white" transform="translate(29)"/>
</clipPath>
</defs>
</svg>
