<svg width="536" height="536" viewBox="0 0 536 536" fill="none" xmlns="http://www.w3.org/2000/svg">
<g opacity="0.2">
<path d="M268 531V536C267.664 536 267.328 535.997 266.992 535.996L267.011 530.998C267.34 530.999 267.67 531 268 531ZM269.008 535.909L269.007 535.996C268.671 535.997 268.336 536 268 536V531C268.33 531 268.66 530.999 268.989 530.998L269.008 535.909ZM263.062 530.955L262.971 535.953C262.301 535.941 261.633 535.925 260.965 535.908L261.094 530.911C261.749 530.928 262.406 530.943 263.062 530.955ZM275.035 535.908C274.367 535.925 273.699 535.941 273.029 535.953L272.938 530.954C273.595 530.942 274.252 530.928 274.907 530.911L275.035 535.908ZM257.166 530.781L256.964 535.775C256.299 535.748 255.634 535.718 254.97 535.687L255.208 530.694C255.86 530.726 256.513 530.755 257.166 530.781ZM281.03 535.687C280.366 535.718 279.701 535.748 279.035 535.775L278.834 530.781C279.487 530.755 280.14 530.726 280.792 530.694L281.03 535.687ZM251.271 530.477L250.957 535.466C250.288 535.424 249.62 535.38 248.953 535.333L249.303 530.346C249.958 530.392 250.614 530.435 251.271 530.477ZM286.697 530.346L287.047 535.333C286.379 535.38 285.711 535.424 285.042 535.466L284.73 530.477C285.387 530.435 286.042 530.392 286.697 530.346ZM245.381 530.041L244.956 535.021C244.292 534.965 243.628 534.905 242.965 534.844L243.426 529.867C244.077 529.927 244.729 529.985 245.381 530.041ZM292.574 529.867L293.035 534.844C292.372 534.905 291.708 534.965 291.043 535.021L290.62 530.041C291.272 529.985 291.924 529.927 292.574 529.867ZM239.513 529.476L238.978 534.446C238.311 534.375 237.645 534.299 236.979 534.223L237.553 529.257C238.205 529.332 238.859 529.405 239.513 529.476ZM299.02 534.223C298.355 534.299 297.689 534.375 297.022 534.446L296.487 529.476C297.142 529.405 297.795 529.332 298.448 529.257L299.02 534.223ZM233.644 528.776L233.319 531.255L233.32 531.256L232.997 533.733C232.335 533.647 231.673 533.559 231.013 533.468L231.696 528.516C232.345 528.605 232.994 528.692 233.644 528.776ZM304.987 533.467C304.326 533.558 303.665 533.647 303.002 533.733L302.356 528.776C303.006 528.692 303.655 528.605 304.304 528.516L304.987 533.467ZM227.813 527.95L227.057 532.892C226.393 532.79 225.731 532.685 225.069 532.578L225.863 527.644C226.512 527.748 227.163 527.85 227.813 527.95ZM310.137 527.644L310.931 532.578C310.269 532.685 309.607 532.79 308.944 532.892L308.187 527.95C308.837 527.85 309.487 527.748 310.137 527.644ZM221.978 526.987L221.18 531.515L221.109 531.91C220.451 531.794 219.793 531.677 219.136 531.556L220.042 526.639C220.686 526.757 221.332 526.873 221.978 526.987ZM315.958 526.639L316.852 531.494L316.863 531.556C316.207 531.677 315.549 531.794 314.891 531.91L314.022 526.987C314.668 526.873 315.314 526.757 315.958 526.639ZM216.187 525.898L215.207 530.8C214.552 530.669 213.898 530.536 213.244 530.4L214.261 525.506C214.902 525.639 215.544 525.77 216.187 525.898ZM322.755 530.4C322.102 530.536 321.448 530.669 320.793 530.8L319.814 525.898C320.457 525.77 321.099 525.639 321.74 525.506L322.755 530.4ZM210.406 524.676L209.316 529.555C208.663 529.409 208.011 529.261 207.359 529.11L208.487 524.239C209.126 524.387 209.766 524.533 210.406 524.676ZM327.514 524.239L328.64 529.11C327.989 529.261 327.336 529.409 326.684 529.555L325.594 524.676C326.234 524.533 326.875 524.387 327.514 524.239ZM204.665 523.325L203.465 528.177C202.817 528.017 202.171 527.854 201.525 527.689L202.762 522.847C203.395 523.008 204.03 523.168 204.665 523.325ZM334.474 527.689C333.828 527.854 333.182 528.017 332.534 528.177L331.335 523.325C331.97 523.168 332.605 523.008 333.238 522.847L334.474 527.689ZM198.951 521.844L197.642 526.668C196.996 526.493 196.351 526.315 195.707 526.135L197.053 521.32C197.685 521.497 198.317 521.672 198.951 521.844ZM340.292 526.135C339.648 526.315 339.003 526.493 338.357 526.668L337.049 521.844C337.683 521.672 338.315 521.497 338.947 521.32L340.292 526.135ZM193.273 520.233L191.855 525.027C191.215 524.838 190.577 524.646 189.938 524.452L191.393 519.67C192.018 519.86 192.646 520.048 193.273 520.233ZM344.607 519.67L346.061 524.452C345.423 524.646 344.784 524.838 344.144 525.027L342.727 520.233C343.354 520.048 343.982 519.86 344.607 519.67ZM187.637 518.497L186.11 523.257C185.473 523.052 184.837 522.846 184.201 522.637L185.763 517.889C186.386 518.094 187.011 518.297 187.637 518.497ZM351.799 522.636C351.163 522.845 350.527 523.052 349.889 523.257L348.364 518.497C348.99 518.297 349.614 518.094 350.237 517.889L351.799 522.636ZM182.034 516.631L180.401 521.356C179.77 521.138 179.14 520.916 178.511 520.693L180.18 515.981C180.797 516.2 181.415 516.417 182.034 516.631ZM357.488 520.693C356.859 520.916 356.23 521.137 355.599 521.355L353.966 516.631C354.585 516.417 355.203 516.2 355.82 515.981L357.488 520.693ZM176.484 514.642L174.744 519.328C174.116 519.095 173.489 518.861 172.863 518.623L174.64 513.949C175.253 514.182 175.868 514.413 176.484 514.642ZM363.136 518.623C362.51 518.861 361.883 519.095 361.255 519.328L359.516 514.642C360.131 514.413 360.747 514.182 361.36 513.949L363.136 518.623ZM170.971 512.523L170.047 514.847L169.761 515.57L169.125 517.169C168.504 516.922 167.884 516.674 167.266 516.423L169.146 511.791C169.753 512.037 170.362 512.281 170.971 512.523ZM368.733 516.423C368.115 516.674 367.495 516.922 366.874 517.169L365.029 512.523C365.639 512.281 366.247 512.037 366.854 511.791L368.733 516.423ZM165.517 510.286L163.567 514.89C162.951 514.628 162.335 514.364 161.721 514.099L163.705 509.511C164.308 509.771 164.912 510.03 165.517 510.286ZM374.278 514.099C373.664 514.364 373.049 514.629 372.433 514.89L370.483 510.286C371.088 510.03 371.692 509.771 372.295 509.511L374.278 514.099ZM160.104 507.921L159.076 510.199L159.077 510.2L158.05 512.479C157.44 512.205 156.832 511.928 156.225 511.649L158.313 507.106C158.909 507.38 159.506 507.652 160.104 507.921ZM379.774 511.649C379.167 511.928 378.559 512.204 377.949 512.479L375.896 507.921C376.494 507.652 377.092 507.38 377.688 507.106L379.774 511.649ZM154.754 505.438L152.599 509.948C151.996 509.66 151.393 509.371 150.793 509.078L152.982 504.584C153.572 504.871 154.162 505.156 154.754 505.438ZM385.207 509.077C384.606 509.37 384.004 509.66 383.4 509.948L381.246 505.438C381.838 505.156 382.429 504.871 383.019 504.584L385.207 509.077ZM149.455 502.833L147.198 507.294C146.601 506.992 146.006 506.687 145.412 506.381L147.702 501.938C148.285 502.239 148.87 502.537 149.455 502.833ZM390.587 506.381C389.993 506.687 389.398 506.992 388.801 507.294L386.545 502.833C387.13 502.537 387.715 502.239 388.298 501.938L390.587 506.381ZM144.221 500.111L141.864 504.52C141.275 504.205 140.687 503.889 140.101 503.57L142.491 499.178C143.066 499.491 143.643 499.803 144.221 500.111ZM395.898 503.57C395.312 503.889 394.724 504.205 394.135 504.52L391.779 500.11C392.357 499.802 392.934 499.491 393.509 499.178L395.898 503.57ZM139.046 497.271L136.591 501.624C136.009 501.296 135.427 500.966 134.848 500.634L137.335 496.297C137.904 496.623 138.474 496.948 139.046 497.271ZM401.152 500.633C400.572 500.965 399.991 501.296 399.408 501.624L396.954 497.27C397.526 496.947 398.096 496.623 398.665 496.297L401.152 500.633ZM133.938 494.314L131.386 498.613C130.811 498.272 130.239 497.929 129.667 497.584L132.251 493.305C132.812 493.643 133.374 493.98 133.938 494.314ZM406.332 497.584C405.761 497.929 405.188 498.272 404.614 498.612L402.062 494.314C402.626 493.98 403.188 493.643 403.749 493.305L406.332 497.584ZM128.896 491.245L126.248 495.485C125.681 495.131 125.115 494.774 124.551 494.416L127.231 490.196C127.785 490.548 128.34 490.898 128.896 491.245ZM411.448 494.416C410.884 494.774 410.318 495.131 409.751 495.485L407.104 491.245C407.66 490.898 408.215 490.548 408.769 490.196L411.448 494.416ZM123.926 488.062L121.183 492.242C120.624 491.876 120.066 491.508 119.511 491.138L122.285 486.978C122.83 487.341 123.378 487.703 123.926 488.062ZM416.488 491.138C415.933 491.508 415.375 491.876 414.816 492.242L412.074 488.062C412.622 487.703 413.17 487.341 413.715 486.978L416.488 491.138ZM119.027 484.771L116.192 488.888C115.642 488.508 115.093 488.126 114.545 487.743L117.41 483.647C117.948 484.024 118.487 484.398 119.027 484.771ZM421.454 487.743C420.906 488.126 420.357 488.508 419.807 488.887L416.973 484.771C417.513 484.398 418.052 484.024 418.59 483.647L421.454 487.743ZM114.203 481.368L111.276 485.421C110.734 485.03 110.194 484.636 109.655 484.24L112.612 480.211C113.141 480.599 113.672 480.984 114.203 481.368ZM426.344 484.24C425.805 484.636 425.265 485.03 424.723 485.421L421.797 481.368C422.328 480.984 422.859 480.599 423.388 480.211L426.344 484.24ZM109.458 477.86L106.44 481.846C105.907 481.442 105.376 481.037 104.846 480.63L107.893 476.666C108.413 477.066 108.935 477.464 109.458 477.86ZM431.153 480.63C430.623 481.037 430.092 481.442 429.559 481.846L426.542 477.86C427.065 477.464 427.587 477.066 428.107 476.666L431.153 480.63ZM104.79 474.245L101.685 478.163C101.161 477.748 100.639 477.331 100.118 476.912L103.253 473.018C103.764 473.429 104.276 473.838 104.79 474.245ZM435.881 476.912C435.36 477.331 434.838 477.748 434.314 478.163L431.21 474.245C431.724 473.838 432.236 473.429 432.747 473.018L435.881 476.912ZM100.206 470.528L97.0137 474.376C96.499 473.949 95.986 473.52 95.4746 473.09L98.6953 469.267C99.1971 469.689 99.7011 470.109 100.206 470.528ZM440.524 473.09C440.013 473.52 439.5 473.949 438.985 474.376L435.794 470.528C436.299 470.109 436.803 469.689 437.305 469.267L440.524 473.09ZM95.7041 466.709L94.0645 468.597L94.0654 468.598L92.4268 470.484C91.9222 470.046 91.4193 469.607 90.918 469.165L94.2227 465.414C94.7148 465.848 95.2087 466.279 95.7041 466.709ZM445.081 469.165C444.58 469.607 444.077 470.046 443.572 470.484L440.296 466.709C440.791 466.279 441.285 465.848 441.777 465.414L445.081 469.165ZM91.29 462.791L87.9287 466.493C87.434 466.044 86.9416 465.592 86.4502 465.14L89.8379 461.463C90.3203 461.907 90.8043 462.35 91.29 462.791ZM449.55 465.14C449.058 465.593 448.565 466.044 448.07 466.493L444.71 462.791C445.196 462.35 445.68 461.907 446.162 461.463L449.55 465.14ZM86.9629 458.774L83.5215 462.4C83.0367 461.94 82.5536 461.478 82.0723 461.015L85.541 457.415C86.0132 457.87 86.4873 458.323 86.9629 458.774ZM453.927 461.015C453.445 461.478 452.962 461.94 452.478 462.4L449.037 458.774C449.513 458.323 449.987 457.87 450.459 457.415L453.927 461.015ZM82.7275 454.663L80.9658 456.437L80.9668 456.438L79.2051 458.211C78.731 457.74 78.2587 457.268 77.7881 456.794L81.3369 453.272C81.7987 453.738 82.2623 454.201 82.7275 454.663ZM458.211 456.794C457.74 457.268 457.268 457.74 456.794 458.211L453.272 454.663C453.738 454.201 454.201 453.738 454.663 453.272L458.211 456.794ZM78.585 450.459L76.7842 452.192L76.0469 452.904L74.9844 453.927C74.5206 453.445 74.0588 452.962 73.5986 452.478L77.2256 449.037C77.677 449.513 78.13 449.987 78.585 450.459ZM462.4 452.478C461.94 452.962 461.478 453.445 461.015 453.927L457.415 450.459C457.87 449.987 458.323 449.513 458.774 449.037L462.4 452.478ZM74.5371 446.162L70.8594 449.55C70.4065 449.058 69.9551 448.565 69.5059 448.07L73.209 444.71C73.6499 445.196 74.0926 445.68 74.5371 446.162ZM462.791 444.71L466.493 448.07C466.044 448.565 465.592 449.057 465.14 449.549L461.463 446.162C461.907 445.68 462.35 445.196 462.791 444.71ZM70.5859 441.777L66.834 445.081C66.3924 444.58 65.9526 444.077 65.5146 443.572L69.291 440.296C69.7209 440.791 70.1524 441.285 70.5859 441.777ZM470.484 443.572C470.046 444.077 469.607 444.58 469.165 445.081L465.414 441.777C465.848 441.285 466.279 440.791 466.709 440.296L470.484 443.572ZM66.7334 437.305L62.9092 440.524C62.4786 440.013 62.0499 439.5 61.623 438.985L65.4717 435.794C65.8905 436.299 66.3108 436.803 66.7334 437.305ZM474.376 438.985C473.949 439.5 473.52 440.013 473.09 440.524L469.267 437.305C469.689 436.803 470.109 436.299 470.528 435.794L474.376 438.985ZM62.9824 432.747L59.0869 435.881C58.668 435.36 58.251 434.838 57.8359 434.314L61.7549 431.21C62.1621 431.724 62.5714 432.236 62.9824 432.747ZM478.163 434.314C477.748 434.838 477.331 435.36 476.912 435.881L473.018 432.747C473.429 432.236 473.838 431.724 474.245 431.21L478.163 434.314ZM59.334 428.107L55.3691 431.153C54.9619 430.623 54.5567 430.092 54.1533 429.559L58.1396 426.542C58.5356 427.065 58.9342 427.587 59.334 428.107ZM481.846 429.559C481.442 430.092 481.037 430.623 480.63 431.153L476.666 428.107C477.066 427.587 477.464 427.065 477.86 426.542L481.846 429.559ZM55.7891 423.388L51.7588 426.344C51.3635 425.805 50.9695 425.265 50.5781 424.723L54.6318 421.797C55.0157 422.328 55.4013 422.859 55.7891 423.388ZM485.421 424.723C485.03 425.265 484.636 425.805 484.24 426.344L480.211 423.388C480.599 422.859 480.984 422.328 481.368 421.797L485.421 424.723ZM52.3525 418.59L48.2559 421.454C47.8727 420.906 47.4915 420.357 47.1123 419.807L51.2295 416.973C51.6016 417.513 51.9765 418.052 52.3525 418.59ZM488.888 419.807C488.508 420.357 488.126 420.906 487.743 421.454L483.647 418.59C484.024 418.052 484.398 417.513 484.771 416.973L488.888 419.807ZM49.0225 413.715L44.8613 416.488C44.4908 415.933 44.1233 415.375 43.7568 414.816L47.9375 412.074C48.2971 412.622 48.6589 413.17 49.0225 413.715ZM492.242 414.816C491.876 415.375 491.508 415.933 491.138 416.488L486.978 413.715C487.341 413.17 487.703 412.622 488.062 412.074L492.242 414.816ZM45.8037 408.769L41.583 411.448C41.2247 410.884 40.8679 410.318 40.5137 409.751L44.7549 407.104C45.1024 407.66 45.4522 408.215 45.8037 408.769ZM495.485 409.751C495.131 410.318 494.774 410.884 494.416 411.448L490.196 408.769C490.548 408.215 490.898 407.66 491.245 407.104L495.485 409.751ZM42.6953 403.749L38.415 406.332C38.0701 405.761 37.7275 405.188 37.3867 404.614L41.6855 402.062C42.0201 402.626 42.3567 403.188 42.6953 403.749ZM498.613 404.613C498.272 405.188 497.929 405.76 497.584 406.332L493.305 403.749C493.643 403.188 493.98 402.626 494.314 402.062L498.613 404.613ZM39.7031 398.665L35.3662 401.152C35.0335 400.572 34.7034 399.991 34.375 399.408L38.7305 396.954C39.0526 397.526 39.3768 398.096 39.7031 398.665ZM501.624 399.408C501.296 399.99 500.966 400.572 500.634 401.151L496.297 398.665C496.623 398.096 496.948 397.526 497.271 396.954L501.624 399.408ZM36.8223 393.509L32.4287 395.898C32.1097 395.312 31.7942 394.724 31.4795 394.135L35.8896 391.779C36.1984 392.357 36.5093 392.934 36.8223 393.509ZM504.52 394.135C504.205 394.724 503.889 395.312 503.57 395.898L499.178 393.509C499.491 392.934 499.803 392.357 500.111 391.779L504.52 394.135ZM34.0615 388.298L29.6182 390.587C29.312 389.993 29.007 389.398 28.7051 388.801L33.167 386.545C33.4631 387.13 33.7612 387.715 34.0615 388.298ZM507.294 388.801C506.992 389.398 506.687 389.993 506.381 390.587L501.938 388.298C502.239 387.715 502.537 387.13 502.833 386.545L507.294 388.801ZM31.416 383.019L29.168 384.112L28.417 384.479L26.9219 385.207C26.6292 384.606 26.3391 384.004 26.0508 383.4L30.5615 381.246C30.8443 381.838 31.1289 382.429 31.416 383.019ZM509.948 383.4C509.66 384.003 509.371 384.606 509.078 385.206L504.584 383.018C504.871 382.428 505.156 381.838 505.438 381.246L509.948 383.4ZM28.8936 377.688L24.3506 379.774C24.0717 379.167 23.795 378.559 23.5205 377.949L24.1035 377.688L28.0791 375.896C28.3484 376.494 28.6199 377.092 28.8936 377.688ZM512.479 377.949C512.205 378.559 511.928 379.167 511.649 379.774L507.106 377.687C507.38 377.091 507.652 376.494 507.921 375.896L512.479 377.949ZM26.4893 372.295L21.9004 374.278C21.6348 373.664 21.3705 373.049 21.1094 372.433L21.4365 372.295L25.7139 370.483C25.9701 371.088 26.2287 371.692 26.4893 372.295ZM514.89 372.432C514.628 373.048 514.364 373.664 514.099 374.278L509.511 372.295C509.771 371.692 510.03 371.088 510.286 370.483L514.89 372.432ZM24.209 366.854L19.5762 368.733C19.3251 368.115 19.0767 367.495 18.8301 366.874L23.4766 365.029C23.7185 365.639 23.9626 366.247 24.209 366.854ZM517.169 366.874C516.922 367.495 516.674 368.115 516.423 368.733L511.791 366.854C512.037 366.247 512.281 365.638 512.523 365.029L517.169 366.874ZM22.0508 361.36L17.376 363.136C17.1383 362.51 16.904 361.883 16.6709 361.255L21.3584 359.516C21.587 360.131 21.8177 360.747 22.0508 361.36ZM519.328 361.255C519.095 361.883 518.861 362.51 518.623 363.136L513.949 361.36C514.182 360.747 514.413 360.132 514.642 359.516L519.328 361.255ZM20.0186 355.82L17.6602 356.654L17.6611 356.655L15.3057 357.488C15.0829 356.859 14.8617 356.23 14.6436 355.599L19.3691 353.966C19.5832 354.585 19.8 355.203 20.0186 355.82ZM521.356 355.599C521.138 356.23 520.916 356.859 520.693 357.488L515.981 355.82C516.2 355.203 516.417 354.585 516.631 353.966L521.356 355.599ZM18.1113 350.237L13.3633 351.799C13.1542 351.163 12.9466 350.527 12.7422 349.889L17.5029 348.364C17.7034 348.99 17.9063 349.614 18.1113 350.237ZM523.257 349.889C523.052 350.526 522.846 351.162 522.637 351.798L517.889 350.237C518.094 349.614 518.297 348.989 518.497 348.363L523.257 349.889ZM16.3301 344.607L13.9375 345.334L13.9385 345.335L11.5469 346.061C11.3529 345.423 11.161 344.784 10.9717 344.144L15.7666 342.727C15.9523 343.354 16.1398 343.982 16.3301 344.607ZM525.027 344.144C524.838 344.784 524.646 345.423 524.452 346.061L519.67 344.607C519.86 343.982 520.048 343.354 520.233 342.727L525.027 344.144ZM14.6797 338.947L9.86426 340.292C9.6843 339.648 9.50631 339.003 9.33105 338.357L14.1562 337.049C14.3282 337.683 14.5031 338.315 14.6797 338.947ZM526.668 338.357C526.493 339.003 526.315 339.648 526.135 340.292L521.32 338.947C521.497 338.315 521.672 337.683 521.844 337.049L526.668 338.357ZM13.1533 333.238L8.30957 334.474C8.14482 333.828 7.98232 333.182 7.82227 332.534L12.6748 331.335C12.8318 331.97 12.9917 332.605 13.1533 333.238ZM528.177 332.534C528.017 333.182 527.854 333.828 527.689 334.474L522.847 333.238C523.008 332.605 523.168 331.97 523.325 331.335L528.177 332.534ZM11.7607 327.514L6.88867 328.64C6.73807 327.989 6.59018 327.336 6.44434 326.684H6.44824L11.3242 325.594C11.4673 326.234 11.613 326.875 11.7607 327.514ZM529.555 326.683C529.409 327.336 529.261 327.988 529.11 328.64L524.239 327.513C524.387 326.874 524.533 326.234 524.676 325.594L529.555 326.683ZM10.4941 321.74L5.59863 322.755C5.46305 322.102 5.33004 321.448 5.19922 320.793L10.1016 319.814C10.23 320.457 10.3611 321.099 10.4941 321.74ZM530.8 320.792C530.669 321.447 530.536 322.101 530.4 322.755L525.506 321.739C525.639 321.098 525.77 320.456 525.898 319.813L530.8 320.792ZM9.36133 315.958L6.90137 316.41L6.90234 316.411L4.44336 316.863C4.32239 316.207 4.20504 315.549 4.08887 314.891L9.0127 314.022C9.12668 314.668 9.24264 315.314 9.36133 315.958ZM531.91 314.89C531.794 315.548 531.677 316.206 531.556 316.863L526.639 315.958C526.757 315.314 526.873 314.668 526.987 314.022L531.91 314.89ZM8.35645 310.137L3.4209 310.931C3.31441 310.269 3.20906 309.607 3.10742 308.944L8.0498 308.187C8.14958 308.837 8.25191 309.487 8.35645 310.137ZM532.892 308.942C532.79 309.606 532.685 310.268 532.578 310.93L527.644 310.137C527.748 309.488 527.85 308.837 527.95 308.187L532.892 308.942ZM7.48438 304.304L2.53223 304.987C2.44097 304.326 2.35205 303.665 2.26562 303.002L7.22363 302.356C7.30839 303.006 7.39488 303.655 7.48438 304.304ZM533.733 303.002C533.647 303.664 533.559 304.326 533.468 304.986L528.516 304.304C528.605 303.655 528.692 303.006 528.776 302.356L533.733 303.002ZM6.74316 298.448L1.77637 299.02C1.69972 298.355 1.6245 297.689 1.55273 297.022L6.52441 296.487C6.59487 297.142 6.66792 297.795 6.74316 298.448ZM534.446 297.021C534.375 297.688 534.299 298.354 534.223 299.02L529.257 298.447C529.332 297.795 529.405 297.141 529.476 296.487L534.446 297.021ZM6.13281 292.574L1.16504 293.035H1.15527C1.09382 292.372 1.03415 291.708 0.977539 291.043L5.95898 290.62C6.01452 291.272 6.07253 291.924 6.13281 292.574ZM535.021 291.043C534.965 291.707 534.905 292.371 534.844 293.034L529.867 292.574C529.927 291.923 529.985 291.271 530.041 290.619L535.021 291.043ZM5.6543 286.697L0.666016 287.047C0.619138 286.379 0.575182 285.711 0.533203 285.042L5.52344 284.73C5.56462 285.387 5.60831 286.042 5.6543 286.697ZM535.466 285.042C535.424 285.711 535.38 286.379 535.333 287.046L530.346 286.697C530.392 286.042 530.435 285.386 530.477 284.729L535.466 285.042ZM5.30566 280.792L0.3125 281.03C0.280692 280.366 0.250594 279.701 0.223633 279.035L5.21875 278.834C5.24521 279.487 5.27445 280.14 5.30566 280.792ZM535.775 279.035C535.748 279.701 535.718 280.365 535.687 281.029L530.694 280.792C530.726 280.14 530.755 279.487 530.781 278.834L535.775 279.035ZM5.08887 274.907L0.0908203 275.035C0.0736063 274.367 0.058215 273.699 0.0458984 273.029L5.0459 272.938C5.05799 273.595 5.07197 274.252 5.08887 274.907ZM535.953 273.028C535.941 273.698 535.925 274.366 535.908 275.034L530.911 274.906C530.928 274.251 530.943 273.594 530.955 272.938L535.953 273.028ZM0 268C0 267.664 0.00169349 267.328 0.00292969 266.992L5.00195 267.011C5.00074 267.34 5 267.67 5 268C5 268.33 5.00074 268.66 5.00195 268.989L0.00292969 269.007C0.00169585 268.671 0 268.336 0 268ZM535.996 269.007L530.998 268.989C530.999 268.66 531 268.33 531 268C531 267.67 530.999 267.34 530.998 267.011L535.996 266.992C535.997 267.328 536 267.664 536 268C536 268.336 535.997 268.671 535.996 269.007ZM0.0908203 260.965L5.08887 261.094C5.07197 261.749 5.05701 262.406 5.04492 263.062L0.0458984 262.971C0.0574888 262.341 0.0719628 261.712 0.0878906 261.083L0.0908203 260.965ZM535.908 260.964C535.925 261.632 535.941 262.301 535.953 262.97L530.954 263.062C530.942 262.405 530.928 261.748 530.911 261.093L535.908 260.964ZM5.30566 255.208C5.27445 255.86 5.24521 256.513 5.21875 257.166L0.223633 256.964C0.250583 256.299 0.280707 255.634 0.3125 254.97L5.30566 255.208ZM535.687 254.969C535.718 255.633 535.748 256.298 535.775 256.964L530.781 257.166C530.755 256.513 530.726 255.86 530.694 255.208L535.687 254.969ZM5.6543 249.303C5.6083 249.958 5.56463 250.614 5.52344 251.271L0.533203 250.957C0.575163 250.288 0.619161 249.62 0.666016 248.953L5.6543 249.303ZM535.333 248.952C535.38 249.62 535.424 250.288 535.466 250.957L530.477 251.27C530.435 250.613 530.392 249.958 530.346 249.303L535.333 248.952ZM6.13281 243.426C6.07251 244.077 6.01454 244.729 5.95898 245.381L0.977539 244.956C1.03413 244.292 1.09385 243.628 1.15527 242.965L6.13281 243.426ZM534.844 242.964C534.905 243.627 534.965 244.291 535.021 244.956L530.041 245.38C529.985 244.728 529.927 244.076 529.867 243.426L534.844 242.964ZM6.74316 237.553C6.66795 238.205 6.59485 238.859 6.52441 239.513L1.55273 238.978C1.62454 238.311 1.69968 237.645 1.77637 236.979L6.74316 237.553ZM534.223 236.979C534.299 237.644 534.375 238.31 534.446 238.977L529.476 239.513C529.405 238.858 529.332 238.205 529.257 237.552L534.223 236.979ZM7.48438 231.696C7.39488 232.345 7.3084 232.994 7.22363 233.644L2.26562 232.997C2.352 232.335 2.44005 231.673 2.53125 231.013L7.48438 231.696ZM533.467 231.012C533.558 231.673 533.647 232.335 533.733 232.997L531.256 233.32L531.255 233.319L528.776 233.644C528.692 232.994 528.605 232.345 528.516 231.696L533.467 231.012ZM8.35645 225.863C8.25193 226.512 8.14956 227.163 8.0498 227.813L3.10742 227.057C3.2091 226.393 3.31436 225.731 3.4209 225.069L8.35645 225.863ZM532.578 225.068C532.685 225.73 532.79 226.392 532.892 227.055L527.95 227.813C527.85 227.163 527.748 226.513 527.644 225.863L532.578 225.068ZM4.44434 219.137L9.36133 220.042C9.24266 220.686 9.12666 221.332 9.0127 221.978L4.08887 221.109C4.20509 220.451 4.32233 219.793 4.44336 219.136L4.44434 219.137ZM531.556 219.136C531.677 219.792 531.794 220.45 531.91 221.108L526.987 221.978C526.873 221.332 526.757 220.686 526.639 220.042L531.556 219.136ZM10.4941 214.261C10.3611 214.902 10.23 215.544 10.1016 216.187L5.19922 215.207C5.3301 214.552 5.46298 213.898 5.59863 213.244L10.4941 214.261ZM530.4 213.244C530.536 213.897 530.669 214.551 530.8 215.206L528.35 215.696L528.349 215.695L525.898 216.186C525.77 215.543 525.639 214.901 525.506 214.26L530.4 213.244ZM6.88965 207.36L11.7607 208.487C11.613 209.126 11.4673 209.766 11.3242 210.406L6.44434 209.316C6.59025 208.663 6.738 208.011 6.88867 207.359L6.88965 207.36ZM529.11 207.359C529.261 208.01 529.409 208.663 529.555 209.315L527.115 209.861L527.114 209.86L524.676 210.406C524.533 209.766 524.387 209.125 524.239 208.486L529.11 207.359ZM13.1533 202.762C12.9917 203.395 12.8318 204.03 12.6748 204.665L7.82227 203.465C7.98232 202.817 8.14482 202.171 8.30957 201.525L13.1533 202.762ZM527.689 201.525C527.854 202.171 528.017 202.817 528.177 203.465L523.325 204.665C523.168 204.03 523.008 203.395 522.847 202.762L527.689 201.525ZM14.6797 197.053C14.5031 197.685 14.3282 198.317 14.1562 198.951L9.33105 197.642C9.50631 196.996 9.6843 196.351 9.86426 195.707L14.6797 197.053ZM526.135 195.707C526.315 196.351 526.493 196.996 526.668 197.642L524.256 198.297L524.255 198.296L521.844 198.951C521.672 198.317 521.497 197.685 521.32 197.053L526.135 195.707ZM11.5469 189.938L16.3301 191.393C16.1398 192.018 15.9523 192.646 15.7666 193.273L10.9717 191.855C11.0107 191.724 11.0497 191.592 11.0889 191.46L11.5469 189.938ZM524.452 189.938C524.646 190.577 524.838 191.215 525.027 191.855L520.233 193.273C520.048 192.646 519.86 192.018 519.67 191.393L524.452 189.938ZM18.1113 185.763C17.9063 186.386 17.7034 187.011 17.5029 187.637L12.7422 186.11C12.9465 185.473 13.1533 184.837 13.3623 184.201L18.1113 185.763ZM522.636 184.2C522.845 184.836 523.052 185.473 523.257 186.11L518.497 187.636C518.297 187.01 518.094 186.386 517.889 185.763L522.636 184.2ZM20.0186 180.18C19.8 180.797 19.5832 181.415 19.3691 182.034L14.6436 180.401L14.6426 180.4C14.8608 179.769 15.0829 179.14 15.3057 178.511L20.0186 180.18ZM520.693 178.511C520.916 179.14 521.137 179.769 521.355 180.4L518.994 181.218L518.993 181.217L516.631 182.034C516.417 181.415 516.2 180.797 515.981 180.18L520.693 178.511ZM17.377 172.864L22.0508 174.64C21.8177 175.253 21.587 175.868 21.3584 176.484L16.6709 174.744C16.904 174.116 17.1383 173.489 17.376 172.863L17.377 172.864ZM518.623 172.863C518.861 173.489 519.095 174.116 519.328 174.744L514.642 176.484C514.413 175.869 514.182 175.253 513.949 174.64L518.623 172.863ZM24.209 169.146C23.9626 169.753 23.7185 170.362 23.4766 170.971L18.8301 169.125C19.0767 168.504 19.3251 167.884 19.5762 167.266L24.209 169.146ZM516.423 167.266C516.674 167.884 516.922 168.504 517.169 169.125L512.523 170.971C512.281 170.361 512.037 169.753 511.791 169.146L516.423 167.266ZM26.4893 163.705C26.2287 164.308 25.9701 164.912 25.7139 165.517L21.1094 163.567C21.3706 162.951 21.6347 162.335 21.9004 161.721L26.4893 163.705ZM514.099 161.721C514.364 162.335 514.629 162.95 514.89 163.566L512.588 164.542L512.587 164.541L510.286 165.517C510.03 164.912 509.771 164.308 509.511 163.705L514.099 161.721ZM24.3506 156.226L28.8936 158.313C28.6199 158.909 28.3484 159.506 28.0791 160.104L23.5195 158.05C23.7941 157.44 24.0706 156.832 24.3496 156.225L24.3506 156.226ZM511.649 156.225C511.928 156.832 512.204 157.44 512.479 158.05L507.921 160.104C507.652 159.506 507.38 158.908 507.106 158.312L511.649 156.225ZM31.416 152.982C31.129 153.572 30.8443 154.162 30.5615 154.754L26.0508 152.599C26.3389 151.996 26.6284 151.393 26.9209 150.793L31.416 152.982ZM509.077 150.792C509.37 151.393 509.66 151.995 509.948 152.599L505.438 154.754C505.156 154.162 504.871 153.571 504.584 152.981L509.077 150.792ZM34.0615 147.702C33.7612 148.285 33.4631 148.87 33.167 149.455L28.7051 147.198C29.007 146.601 29.312 146.006 29.6182 145.412L34.0615 147.702ZM506.381 145.412C506.687 146.006 506.992 146.601 507.294 147.198L502.833 149.455C502.537 148.87 502.239 148.285 501.938 147.702L506.381 145.412ZM32.4297 140.102L36.8223 142.491C36.5093 143.066 36.1975 143.643 35.8887 144.221L31.4795 141.864C31.7942 141.275 32.1097 140.687 32.4287 140.101L32.4297 140.102ZM503.57 140.101C503.889 140.687 504.205 141.275 504.52 141.864L500.11 144.221C499.802 143.643 499.491 143.066 499.178 142.491L503.57 140.101ZM39.7031 137.335C39.3768 137.904 39.0517 138.474 38.7295 139.046L34.375 136.591C34.7032 136.009 35.0328 135.427 35.3652 134.848L39.7031 137.335ZM500.633 134.847C500.965 135.427 501.296 136.008 501.624 136.591L499.448 137.818L499.447 137.817L497.27 139.046C496.947 138.474 496.623 137.904 496.297 137.335L500.633 134.847ZM42.6953 132.251C42.3567 132.812 42.02 133.374 41.6855 133.938L37.3857 131.386C37.7267 130.811 38.0699 130.239 38.415 129.667L42.6953 132.251ZM497.584 129.667C497.929 130.238 498.272 130.811 498.612 131.385L494.314 133.938C493.98 133.374 493.643 132.812 493.305 132.251L497.584 129.667ZM45.8037 127.231C45.4522 127.785 45.1024 128.34 44.7549 128.896L40.5137 126.248C40.8679 125.681 41.2247 125.115 41.583 124.551L45.8037 127.231ZM494.416 124.551C494.774 125.115 495.131 125.681 495.485 126.248L491.245 128.896C490.898 128.34 490.548 127.785 490.196 127.231L494.416 124.551ZM44.8623 119.512L49.0225 122.285C48.6589 122.83 48.2971 123.378 47.9375 123.926L43.7568 121.183C44.1233 120.624 44.4908 120.066 44.8613 119.511L44.8623 119.512ZM491.138 119.511C491.508 120.066 491.876 120.624 492.242 121.183L488.062 123.926C487.703 123.378 487.341 122.83 486.978 122.285L491.138 119.511ZM52.3525 117.41C51.9765 117.948 51.6016 118.487 51.2295 119.027L47.1113 116.192C47.4906 115.642 47.8726 115.093 48.2559 114.545L52.3525 117.41ZM487.743 114.545C488.126 115.093 488.508 115.642 488.887 116.192L484.771 119.027C484.398 118.487 484.024 117.948 483.647 117.41L487.743 114.545ZM55.7891 112.612C55.4013 113.141 55.0157 113.672 54.6318 114.203L50.5781 111.276C50.9695 110.734 51.3635 110.194 51.7588 109.655L55.7891 112.612ZM484.24 109.655C484.636 110.194 485.03 110.734 485.421 111.276L481.368 114.203C480.984 113.672 480.599 113.141 480.211 112.612L484.24 109.655ZM59.334 107.893C58.9342 108.413 58.5356 108.935 58.1396 109.458L54.1533 106.44C54.5567 105.907 54.9619 105.376 55.3691 104.846L59.334 107.893ZM480.63 104.846C481.037 105.376 481.442 105.907 481.846 106.44L477.86 109.458C477.464 108.935 477.066 108.413 476.666 107.893L480.63 104.846ZM62.9824 103.253C62.5714 103.764 62.1621 104.276 61.7549 104.79L57.8359 101.685C58.251 101.161 58.6681 100.639 59.0869 100.118L62.9824 103.253ZM476.912 100.118C477.331 100.639 477.748 101.161 478.163 101.685L474.245 104.79C473.838 104.276 473.429 103.764 473.018 103.253L476.912 100.118ZM66.7334 98.6953C66.3108 99.1971 65.8905 99.7011 65.4717 100.206L61.623 97.0137C62.0499 96.499 62.4786 95.986 62.9092 95.4746L66.7334 98.6953ZM473.09 95.4746C473.52 95.986 473.949 96.499 474.376 97.0137L470.528 100.206C470.109 99.7011 469.689 99.1971 469.267 98.6953L473.09 95.4746ZM70.5859 94.2227C70.1524 94.7148 69.7209 95.2087 69.291 95.7041L65.5146 92.4268C65.9526 91.9222 66.3924 91.4193 66.834 90.918L70.5859 94.2227ZM469.165 90.918C469.607 91.4193 470.046 91.9222 470.484 92.4268L466.709 95.7041C466.279 95.2087 465.848 94.7148 465.414 94.2227L469.165 90.918ZM70.8594 86.4502L74.5371 89.8379C74.0926 90.3203 73.6499 90.8043 73.209 91.29L69.5068 87.9297L69.5059 87.9287C69.9043 87.4897 70.3047 87.0525 70.7061 86.6162L70.8594 86.4502ZM465.14 86.4492C465.593 86.9408 466.044 87.4338 466.493 87.9287L462.791 91.29C462.35 90.8043 461.907 90.3203 461.463 89.8379L465.14 86.4492ZM78.585 85.541C78.13 86.0132 77.677 86.4873 77.2256 86.9629L73.5986 83.5215C74.0588 83.0367 74.5206 82.5536 74.9844 82.0723L78.585 85.541ZM461.015 82.0723C461.478 82.5536 461.94 83.0367 462.4 83.5215L458.774 86.9629C458.323 86.4873 457.87 86.0132 457.415 85.541L461.015 82.0723ZM82.7275 81.3369C82.2623 81.7987 81.7987 82.2623 81.3369 82.7275L77.7881 79.2051C78.2587 78.731 78.731 78.2587 79.2051 77.7881L82.7275 81.3369ZM456.794 77.7881C457.268 78.2587 457.74 78.731 458.211 79.2051L456.438 80.9668L456.437 80.9658L454.663 82.7275C454.201 82.2623 453.738 81.7987 453.272 81.3369L456.794 77.7881ZM86.9629 77.2256C86.4873 77.677 86.0132 78.13 85.541 78.585L82.0723 74.9844C82.5536 74.5206 83.0367 74.0588 83.5215 73.5986L86.9629 77.2256ZM452.478 73.5986C452.962 74.0588 453.445 74.5206 453.927 74.9844L450.459 78.585C449.987 78.13 449.513 77.677 449.037 77.2256L452.478 73.5986ZM87.9297 69.5068L91.29 73.209C90.8043 73.6499 90.3203 74.0926 89.8379 74.5371L86.4492 70.8594C86.9408 70.4064 87.4338 69.9551 87.9287 69.5059L87.9297 69.5068ZM448.07 69.5059C448.565 69.955 449.057 70.4066 449.549 70.8594L447.856 72.6982L447.855 72.6973L446.162 74.5371C445.68 74.0926 445.196 73.6499 444.71 73.209L448.07 69.5059ZM95.7041 69.291C95.2087 69.7209 94.7148 70.1524 94.2227 70.5859L90.918 66.834C91.4193 66.3924 91.9222 65.9526 92.4268 65.5146L95.7041 69.291ZM443.572 65.5146C444.077 65.9526 444.58 66.3924 445.081 66.834L441.777 70.5859C441.285 70.1524 440.791 69.7209 440.296 69.291L443.572 65.5146ZM100.206 65.4717C99.7011 65.8905 99.1971 66.3108 98.6953 66.7334L95.4746 62.9092C95.986 62.4786 96.499 62.0499 97.0137 61.623L100.206 65.4717ZM438.985 61.623C439.5 62.0499 440.013 62.4786 440.524 62.9092L437.305 66.7334C436.803 66.3108 436.299 65.8905 435.794 65.4717L438.985 61.623ZM104.79 61.7549C104.276 62.1621 103.764 62.5714 103.253 62.9824L100.118 59.0869C100.639 58.668 101.161 58.251 101.685 57.8359L104.79 61.7549ZM434.314 57.8359C434.838 58.251 435.36 58.6681 435.881 59.0869L432.747 62.9824C432.236 62.5714 431.724 62.1621 431.21 61.7549L434.314 57.8359ZM106.44 54.1533L109.458 58.1396C108.935 58.5356 108.413 58.9342 107.893 59.334L104.846 55.3691C105.35 54.9813 105.857 54.5953 106.364 54.2109L106.44 54.1533ZM429.559 54.1533C430.092 54.5567 430.623 54.9619 431.153 55.3691L428.107 59.334C427.587 58.9342 427.065 58.5356 426.542 58.1396L429.559 54.1533ZM114.203 54.6318C113.672 55.0157 113.141 55.4013 112.612 55.7891L109.655 51.7588C110.194 51.3635 110.734 50.9695 111.276 50.5781L114.203 54.6318ZM424.723 50.5781C425.265 50.9695 425.805 51.3635 426.344 51.7588L423.388 55.7891C422.859 55.4013 422.328 55.0157 421.797 54.6318L424.723 50.5781ZM119.027 51.2295C118.487 51.6016 117.948 51.9765 117.41 52.3525L114.545 48.2559C115.093 47.8727 115.642 47.4915 116.192 47.1123L119.027 51.2295ZM419.807 47.1113C420.357 47.4906 420.906 47.8726 421.454 48.2559L418.59 52.3525C418.052 51.9765 417.513 51.6016 416.973 51.2295L419.807 47.1113ZM123.926 47.9375C123.378 48.2971 122.83 48.6589 122.285 49.0225L119.512 44.8623L119.511 44.8613C120.066 44.4908 120.624 44.1233 121.183 43.7568L123.926 47.9375ZM414.816 43.7568C415.375 44.1233 415.933 44.4908 416.488 44.8613L413.715 49.0225C413.17 48.6589 412.622 48.2971 412.074 47.9375L414.816 43.7568ZM128.896 44.7549C128.34 45.1024 127.785 45.4522 127.231 45.8037L124.551 41.583C125.115 41.2247 125.681 40.8679 126.248 40.5137L128.896 44.7549ZM409.751 40.5137C410.318 40.8679 410.884 41.2247 411.448 41.583L408.769 45.8037C408.215 45.4522 407.66 45.1024 407.104 44.7549L409.751 40.5137ZM133.938 41.6855C133.374 42.0201 132.812 42.3567 132.251 42.6953L129.667 38.415C130.238 38.0701 130.811 37.7275 131.385 37.3867L133.938 41.6855ZM404.613 37.3857C405.188 37.7267 405.76 38.0699 406.332 38.415L403.749 42.6953C403.188 42.3567 402.626 42.02 402.062 41.6855L404.613 37.3857ZM139.046 38.7305C138.474 39.0526 137.904 39.3768 137.335 39.7031L134.847 35.3662C135.427 35.0335 136.008 34.7034 136.591 34.375L139.046 38.7305ZM399.408 34.375C399.99 34.7032 400.572 35.0328 401.151 35.3652L400.473 36.5518L398.665 39.7031C398.096 39.3768 397.526 39.0517 396.954 38.7295L399.408 34.375ZM144.221 35.8896C143.643 36.1984 143.066 36.5093 142.491 36.8223L140.102 32.4297L140.101 32.4287C140.687 32.1097 141.275 31.7942 141.864 31.4795L144.221 35.8896ZM394.135 31.4795C394.724 31.7942 395.312 32.1097 395.898 32.4287L393.509 36.8223C392.934 36.5093 392.357 36.1975 391.779 35.8887L394.135 31.4795ZM149.455 33.167C148.87 33.4631 148.285 33.7612 147.702 34.0615L145.412 29.6182C146.006 29.312 146.601 29.007 147.198 28.7051L149.455 33.167ZM388.801 28.7051C389.398 29.007 389.993 29.312 390.587 29.6182L388.298 34.0615C387.715 33.7612 387.13 33.4631 386.545 33.167L388.801 28.7051ZM154.754 30.5615C154.162 30.8443 153.571 31.1289 152.981 31.416L150.792 26.9219C151.393 26.6292 151.995 26.3391 152.599 26.0508L154.754 30.5615ZM383.4 26.0508C384.003 26.3389 384.606 26.6284 385.206 26.9209L383.018 31.416C382.428 31.129 381.838 30.8443 381.246 30.5615L383.4 26.0508ZM158.05 23.5205L160.104 28.0791C159.506 28.3484 158.908 28.6199 158.312 28.8936L156.226 24.3506L156.225 24.3496C156.718 24.1228 157.213 23.8977 157.708 23.6738L158.05 23.5205ZM377.949 23.5195C378.559 23.7941 379.167 24.0706 379.774 24.3496L377.687 28.8936C377.091 28.6199 376.494 28.3484 375.896 28.0791L377.949 23.5195ZM165.517 25.7139C164.912 25.9701 164.308 26.2287 163.705 26.4893L161.721 21.9004C162.335 21.6348 162.95 21.3705 163.566 21.1094L165.517 25.7139ZM372.432 21.1094C373.048 21.3706 373.664 21.6347 374.278 21.9004L372.295 26.4893C371.692 26.2287 371.088 25.9701 370.483 25.7139L372.432 21.1094ZM170.971 23.4766C170.361 23.7185 169.753 23.9626 169.146 24.209L167.266 19.5762C167.884 19.3251 168.504 19.0767 169.125 18.8301L170.971 23.4766ZM366.874 18.8301C367.495 19.0767 368.115 19.3251 368.733 19.5762L366.854 24.209C366.247 23.9626 365.638 23.7185 365.029 23.4766L366.874 18.8301ZM176.484 21.3584C175.869 21.587 175.253 21.8177 174.64 22.0508L172.864 17.377L172.863 17.376C173.489 17.1383 174.116 16.904 174.744 16.6709L176.484 21.3584ZM361.255 16.6709C361.883 16.904 362.51 17.1383 363.136 17.376L361.36 22.0508C360.747 21.8177 360.132 21.587 359.516 21.3584L361.255 16.6709ZM180.4 14.6436L182.034 19.3691C181.415 19.5832 180.797 19.8 180.18 20.0186L178.511 15.3057C178.654 15.255 178.796 15.2037 178.939 15.1533L180.4 14.6436ZM355.599 14.6426C356.23 14.8608 356.859 15.0829 357.488 15.3057L355.82 20.0186C355.203 19.8 354.585 19.5832 353.966 19.3691L355.599 14.6426ZM187.636 17.5029C187.01 17.7034 186.386 17.9063 185.763 18.1113L184.2 13.3633C184.836 13.1542 185.473 12.9467 186.11 12.7422L187.636 17.5029ZM349.889 12.7422C350.526 12.9465 351.162 13.1533 351.798 13.3623L350.237 18.1113C349.614 17.9063 348.989 17.7034 348.363 17.5029L349.889 12.7422ZM193.273 15.7666C192.646 15.9523 192.018 16.1398 191.393 16.3301L189.938 11.5469C190.577 11.3529 191.215 11.161 191.855 10.9717L193.273 15.7666ZM344.144 10.9717C344.784 11.161 345.423 11.3529 346.061 11.5469L345.335 13.9385L345.334 13.9375L344.607 16.3301C343.982 16.1398 343.354 15.9523 342.727 15.7666L344.144 10.9717ZM198.951 14.1562C198.317 14.3282 197.685 14.5031 197.053 14.6797L195.707 9.86426C196.351 9.6843 196.996 9.50631 197.642 9.33105L198.951 14.1562ZM338.357 9.33105C339.003 9.50631 339.648 9.6843 340.292 9.86426L338.947 14.6797C338.315 14.5031 337.683 14.3282 337.049 14.1562L338.357 9.33105ZM204.665 12.6748C204.03 12.8318 203.395 12.9917 202.762 13.1533L201.525 8.30957C202.171 8.14482 202.817 7.98232 203.465 7.82227L204.665 12.6748ZM332.534 7.82227C333.182 7.98232 333.828 8.14482 334.474 8.30957L333.238 13.1533C332.605 12.9917 331.97 12.8318 331.335 12.6748L332.534 7.82227ZM210.406 11.3242C209.766 11.4673 209.125 11.613 208.486 11.7607L207.36 6.88965L207.359 6.88867C208.01 6.73807 208.663 6.59018 209.315 6.44434L210.406 11.3242ZM326.683 6.44434C327.336 6.59025 327.988 6.738 328.64 6.88867L327.513 11.7607C326.874 11.613 326.234 11.4673 325.594 11.3242L326.683 6.44434ZM216.186 10.1016C215.543 10.23 214.901 10.3611 214.26 10.4941L213.244 5.59863C213.897 5.46305 214.551 5.33004 215.206 5.19922L216.186 10.1016ZM320.792 5.19922C321.447 5.3301 322.101 5.46299 322.755 5.59863L322.252 8.0293L321.739 10.4941C321.098 10.3611 320.456 10.23 319.813 10.1016L320.792 5.19922ZM221.978 9.0127C221.332 9.12668 220.686 9.24264 220.042 9.36133L219.137 4.44434L219.136 4.44336C219.792 4.32239 220.45 4.20504 221.108 4.08887L221.978 9.0127ZM314.89 4.08887C315.548 4.20509 316.206 4.32233 316.863 4.44336L315.958 9.36133C315.314 9.24266 314.668 9.12666 314.022 9.0127L314.89 4.08887ZM227.056 3.1084L227.813 8.0498C227.163 8.14958 226.513 8.25191 225.863 8.35645L225.068 3.4209C225.73 3.31441 226.392 3.20906 227.055 3.10742L227.056 3.1084ZM308.942 3.10742C309.606 3.2091 310.268 3.31436 310.93 3.4209L310.137 8.35645C309.488 8.25193 308.837 8.14956 308.187 8.0498L308.942 3.10742ZM233.644 7.22363C232.994 7.30839 232.345 7.39488 231.696 7.48438L231.012 2.53223C231.673 2.44097 232.335 2.35205 232.997 2.26562L233.644 7.22363ZM303.002 2.26562C303.664 2.352 304.326 2.44005 304.986 2.53125L304.304 7.48438C303.655 7.39488 303.006 7.3084 302.356 7.22363L302.862 3.34766L303.002 2.26562ZM238.978 1.55371L239.513 6.52441C238.858 6.59487 238.205 6.66792 237.552 6.74316L236.979 1.77637C237.644 1.69972 238.31 1.6245 238.977 1.55273L238.978 1.55371ZM297.021 1.55273C297.688 1.62453 298.354 1.69969 299.02 1.77637L298.447 6.74316C297.795 6.66795 297.141 6.59485 296.487 6.52441L297.021 1.55273ZM245.38 5.95898C244.728 6.01452 244.076 6.07253 243.426 6.13281L242.964 1.15527C243.627 1.09382 244.291 1.03415 244.956 0.977539L245.38 5.95898ZM291.043 0.977539C291.707 1.03412 292.371 1.09385 293.034 1.15527L292.574 6.13281C291.923 6.07251 291.271 6.01454 290.619 5.95898L291.043 0.977539ZM251.27 5.52344C250.613 5.56462 249.958 5.60831 249.303 5.6543L248.952 0.666016C249.62 0.619135 250.288 0.575184 250.957 0.533203L251.27 5.52344ZM285.042 0.533203C285.711 0.575161 286.379 0.619163 287.046 0.666016L286.697 5.6543C286.042 5.6083 285.386 5.56463 284.729 5.52344L285.042 0.533203ZM257.166 5.21875C256.513 5.24521 255.86 5.27445 255.208 5.30566L254.969 0.3125C255.633 0.280689 256.298 0.250596 256.964 0.223633L257.166 5.21875ZM279.035 0.223633C279.701 0.25058 280.365 0.28071 281.029 0.3125L280.792 5.30566C280.14 5.27445 279.487 5.24521 278.834 5.21875L279.035 0.223633ZM263.062 5.0459C262.405 5.05799 261.748 5.07197 261.093 5.08887L260.964 0.0908203C261.632 0.0736039 262.301 0.0582174 262.97 0.0458984L263.062 5.0459ZM273.028 0.0458984C273.698 0.0582126 274.366 0.0736087 275.034 0.0908203L274.906 5.08887C274.251 5.07197 273.594 5.05701 272.938 5.04492L273.028 0.0458984ZM269.007 0.00292969L268.989 5.00195C268.66 5.00074 268.33 5 268 5C267.67 5 267.34 5.00074 267.011 5.00195L266.992 0.00292969C267.328 0.00169346 267.664 0 268 0C268.336 0 268.671 0.00169588 269.007 0.00292969Z" fill="#C5C5C5"/>
<path d="M268 456V467C267.664 467 267.329 466.998 266.993 466.996L267.047 455.998C267.364 456 267.682 456 268 456ZM269.006 466.996C268.671 466.998 268.335 467 268 467V456C268.318 456 268.636 456 268.953 455.998L269.006 466.996ZM257.579 455.717L256.979 466.699C256.309 466.663 255.64 466.623 254.972 466.58L255.682 455.604C256.313 455.644 256.946 455.682 257.579 455.717ZM281.027 466.58C280.359 466.623 279.69 466.663 279.02 466.699L278.421 455.717C279.054 455.682 279.687 455.644 280.318 455.604L281.027 466.58ZM246.252 454.757L244.994 465.684C244.329 465.607 243.665 465.527 243.002 465.444L244.37 454.53C244.996 454.609 245.624 454.685 246.252 454.757ZM292.996 465.444C292.333 465.527 291.67 465.607 291.005 465.684L289.747 454.757C290.375 454.685 291.003 454.609 291.63 454.53L292.996 465.444ZM235.013 453.117L233.097 463.948C232.439 463.832 231.782 463.712 231.126 463.589L233.152 452.778C233.771 452.894 234.392 453.007 235.013 453.117ZM304.873 463.589C304.217 463.712 303.56 463.832 302.902 463.948L300.986 453.117C301.608 453.007 302.228 452.894 302.848 452.778L304.873 463.589ZM313.935 450.351L316.612 461.02C315.966 461.182 315.318 461.34 314.669 461.496L312.1 450.802C312.712 450.655 313.324 450.504 313.935 450.351ZM223.9 450.802L221.329 461.495C220.68 461.339 220.033 461.181 219.387 461.019L222.065 450.351C222.676 450.504 223.288 450.655 223.9 450.802ZM212.951 447.815L209.821 458.054L209.735 458.333C209.096 458.138 208.459 457.94 207.822 457.738L211.145 447.253C211.745 447.443 212.348 447.631 212.951 447.815ZM328.177 457.738C327.54 457.94 326.903 458.138 326.264 458.333L323.048 447.815C323.651 447.631 324.255 447.443 324.855 447.253L328.177 457.738ZM202.201 444.167L198.352 454.467C197.725 454.233 197.099 453.995 196.476 453.755L200.43 443.495C201.019 443.722 201.609 443.946 202.201 444.167ZM339.523 453.755C338.9 453.995 338.274 454.233 337.647 454.467L333.799 444.167C334.391 443.946 334.981 443.722 335.57 443.495L339.523 453.755ZM191.69 439.87L187.222 449.918C186.611 449.646 186.002 449.372 185.395 449.095L189.965 439.093C190.538 439.355 191.114 439.614 191.69 439.87ZM350.604 449.095C349.997 449.372 349.388 449.646 348.777 449.918L344.31 439.87C344.886 439.614 345.462 439.355 346.035 439.093L350.604 449.095ZM181.46 434.944L176.391 444.702C175.798 444.394 175.207 444.084 174.618 443.771L179.786 434.063C180.342 434.36 180.9 434.654 181.46 434.944ZM361.381 443.771C360.792 444.084 360.201 444.394 359.608 444.702L354.54 434.944C355.1 434.654 355.658 434.36 356.214 434.063L361.381 443.771ZM171.547 429.407L166.287 438.19L165.896 438.841C165.323 438.498 164.752 438.152 164.183 437.803L169.929 428.427C170.466 428.756 171.006 429.083 171.547 429.407ZM366.071 428.427L371.816 437.803C371.247 438.152 370.676 438.498 370.103 438.841L364.453 429.407C364.994 429.083 365.534 428.756 366.071 428.427ZM161.983 423.279L158.877 427.818L158.878 427.819L155.774 432.354C155.223 431.977 154.673 431.598 154.125 431.215L160.426 422.202C160.943 422.564 161.462 422.923 161.983 423.279ZM381.874 431.215C381.326 431.598 380.776 431.977 380.225 432.354L374.017 423.279C374.538 422.923 375.057 422.564 375.574 422.202L381.874 431.215ZM152.805 416.585L149.431 420.929L149.432 420.93L146.061 425.271C145.533 424.861 145.008 424.449 144.484 424.034L151.315 415.417C151.81 415.809 152.306 416.198 152.805 416.585ZM391.515 424.034C390.991 424.449 390.466 424.861 389.938 425.271L383.195 416.585C383.694 416.198 384.19 415.809 384.685 415.417L391.515 424.034ZM144.045 409.352L136.791 417.615C136.289 417.175 135.789 416.732 135.292 416.286L142.628 408.095C143.098 408.516 143.571 408.935 144.045 409.352ZM400.707 416.286C400.21 416.732 399.71 417.175 399.208 417.615L391.955 409.352C392.429 408.935 392.902 408.516 393.372 408.095L400.707 416.286ZM135.735 401.604L127.998 409.418C127.523 408.948 127.051 408.476 126.581 408.001L134.396 400.265C134.841 400.713 135.287 401.159 135.735 401.604ZM409.418 408.001C408.948 408.476 408.476 408.948 408.001 409.418L400.265 401.604C400.713 401.159 401.159 400.713 401.604 400.265L409.418 408.001ZM127.905 393.372L119.713 400.707C119.267 400.21 118.824 399.71 118.384 399.208L126.648 391.955C127.065 392.429 127.484 392.902 127.905 393.372ZM417.615 399.208C417.175 399.71 416.732 400.21 416.286 400.707L408.095 393.372C408.516 392.902 408.935 392.429 409.352 391.955L417.615 399.208ZM120.583 384.685L111.965 391.515C111.55 390.991 111.138 390.466 110.729 389.938L119.415 383.195C119.802 383.694 120.191 384.19 120.583 384.685ZM425.271 389.938C424.861 390.466 424.449 390.991 424.034 391.515L415.417 384.685C415.809 384.19 416.198 383.694 416.585 383.195L425.271 389.938ZM113.798 375.574L104.784 381.874C104.401 381.326 104.022 380.776 103.645 380.225L112.721 374.017C113.077 374.538 113.436 375.057 113.798 375.574ZM423.279 374.017L432.354 380.225C431.977 380.776 431.598 381.326 431.215 381.874L422.202 375.574C422.564 375.057 422.923 374.538 423.279 374.017ZM107.573 366.071L102.883 368.944L102.884 368.945L98.1963 371.816C97.8474 371.247 97.5015 370.676 97.1582 370.103L106.593 364.453C106.917 364.994 107.244 365.534 107.573 366.071ZM438.841 370.103C438.498 370.676 438.152 371.247 437.803 371.816L428.427 366.071C428.756 365.534 429.083 364.994 429.407 364.453L438.841 370.103ZM101.937 356.214L92.2285 361.381C91.9149 360.792 91.6047 360.201 91.2969 359.608L101.056 354.54C101.346 355.1 101.64 355.658 101.937 356.214ZM444.702 359.608C444.394 360.201 444.084 360.792 443.771 361.381L434.063 356.214C434.36 355.658 434.654 355.1 434.944 354.54L444.702 359.608ZM96.9072 346.035L91.9033 348.32L91.9043 348.321L86.9043 350.604C86.6268 349.997 86.3526 349.388 86.0811 348.777L96.1299 344.31C96.3863 344.886 96.6452 345.462 96.9072 346.035ZM449.918 348.777C449.646 349.388 449.372 349.997 449.095 350.604L439.093 346.035C439.355 345.462 439.614 344.886 439.87 344.31L449.918 348.777ZM92.5049 335.57L82.2441 339.523C82.0038 338.9 81.7665 338.274 81.5322 337.647L91.833 333.799C92.0542 334.391 92.2779 334.981 92.5049 335.57ZM454.467 337.647C454.233 338.274 453.995 338.9 453.755 339.523L443.495 335.57C443.722 334.981 443.946 334.391 444.167 333.799L454.467 337.647ZM88.7471 324.855L78.2607 328.177C78.0591 327.54 77.8614 326.903 77.666 326.264L88.1846 323.048C88.3691 323.651 88.5566 324.255 88.7471 324.855ZM458.333 326.264C458.138 326.903 457.94 327.541 457.738 328.177L447.253 324.855C447.443 324.255 447.631 323.652 447.815 323.049L458.333 326.264ZM461.495 314.67C461.339 315.319 461.181 315.966 461.019 316.612L450.351 313.935C450.504 313.324 450.655 312.712 450.802 312.1L461.495 314.67ZM85.6494 313.935L74.9795 316.612C74.8172 315.966 74.6589 315.318 74.5029 314.669L85.1982 312.1C85.3455 312.712 85.4962 313.324 85.6494 313.935ZM83.2217 302.848L72.7012 304.819L72.4102 304.873C72.2873 304.217 72.1672 303.56 72.0508 302.902L82.8828 300.986C82.9927 301.608 83.1057 302.228 83.2217 302.848ZM463.948 302.902C463.832 303.56 463.712 304.217 463.589 304.873L463.299 304.819L452.778 302.848C452.894 302.229 453.007 301.608 453.117 300.987L463.948 302.902ZM465.684 291.005C465.607 291.67 465.527 292.334 465.444 292.997L454.53 291.63C454.609 291.004 454.685 290.376 454.757 289.748L465.684 291.005ZM81.4697 291.63L76.0117 292.312L76.0127 292.313L70.5547 292.996C70.4716 292.333 70.3919 291.67 70.3154 291.005L81.2432 289.747C81.3155 290.375 81.3912 291.003 81.4697 291.63ZM80.3965 280.318L69.4189 281.027C69.3758 280.359 69.3364 279.69 69.2998 279.02L80.2832 278.421C80.3178 279.054 80.3557 279.687 80.3965 280.318ZM466.699 279.02C466.663 279.69 466.623 280.359 466.58 281.027L455.604 280.318C455.644 279.687 455.682 279.054 455.717 278.421L466.699 279.02ZM69 268L69.0029 266.993L80.002 267.047C80.0004 267.364 80 267.682 80 268C80 268.318 80.0004 268.636 80.002 268.953L69.0029 269.006C69.0013 268.671 69 268.335 69 268ZM466.996 266.993C466.998 267.329 467 267.664 467 268C467 268.335 466.998 268.671 466.996 269.006L455.998 268.953C456 268.636 456 268.318 456 268C456 267.682 456 267.364 455.998 267.047L466.996 266.993ZM69.4199 254.973L80.3965 255.682C80.3557 256.313 80.3178 256.946 80.2832 257.579L69.2998 256.979C69.3364 256.309 69.3758 255.64 69.4189 254.972L69.4199 254.973ZM466.58 254.972C466.623 255.64 466.663 256.309 466.699 256.979L455.717 257.579C455.682 256.946 455.644 256.313 455.604 255.682L466.58 254.972ZM465.444 243.003C465.527 243.666 465.607 244.329 465.684 244.994L460.221 245.624L460.22 245.623L454.757 246.253C454.685 245.625 454.609 244.997 454.53 244.37L465.444 243.003ZM81.4697 244.37C81.3912 244.996 81.3155 245.624 81.2432 246.252L70.3154 244.994C70.392 244.329 70.4716 243.665 70.5547 243.002L81.4697 244.37ZM463.589 231.126C463.712 231.782 463.832 232.439 463.948 233.097L453.117 235.014C453.007 234.392 452.894 233.772 452.778 233.152L463.589 231.126ZM83.2217 233.152C83.1057 233.771 82.9927 234.392 82.8828 235.013L72.0508 233.097C72.1672 232.439 72.2873 231.782 72.4102 231.126L83.2217 233.152ZM74.9805 219.387L85.6494 222.065C85.4962 222.676 85.3455 223.288 85.1982 223.9L74.5039 221.329C74.6539 220.705 74.8061 220.082 74.9619 219.46L74.9805 219.387ZM461.02 219.387C461.182 220.033 461.34 220.681 461.496 221.33L450.802 223.9C450.655 223.288 450.504 222.676 450.351 222.065L461.02 219.387ZM457.738 207.822C457.94 208.459 458.138 209.096 458.333 209.735L447.815 212.952C447.631 212.349 447.443 211.745 447.253 211.145L457.738 207.822ZM88.7471 211.145C88.5567 211.745 88.3691 212.348 88.1846 212.951L77.666 209.735C77.8614 209.096 78.0591 208.459 78.2607 207.822L88.7471 211.145ZM92.5049 200.43C92.2779 201.019 92.0542 201.609 91.833 202.201L81.5322 198.352C81.7665 197.725 82.0038 197.099 82.2441 196.476L92.5049 200.43ZM453.755 196.476C453.995 197.099 454.233 197.725 454.467 198.352L449.319 200.276L449.318 200.275L444.167 202.201C443.946 201.609 443.722 201.019 443.495 200.43L453.755 196.476ZM96.9072 189.965C96.6452 190.538 96.3863 191.114 96.1299 191.69L86.0811 187.222C86.3526 186.611 86.6268 186.002 86.9043 185.395L96.9072 189.965ZM449.095 185.395C449.372 186.002 449.646 186.611 449.918 187.222L439.87 191.69C439.614 191.114 439.355 190.538 439.093 189.965L449.095 185.395ZM101.937 179.786C101.64 180.342 101.346 180.9 101.056 181.46L91.2969 176.391C91.6047 175.798 91.9149 175.207 92.2285 174.618L101.937 179.786ZM443.771 174.618C444.084 175.207 444.394 175.798 444.702 176.391L434.944 181.46C434.654 180.9 434.36 180.342 434.063 179.786L443.771 174.618ZM107.573 169.929C107.244 170.466 106.917 171.006 106.593 171.547L97.1582 165.896C97.5015 165.323 97.8474 164.752 98.1963 164.183L107.573 169.929ZM437.803 164.183C438.152 164.752 438.498 165.323 438.841 165.896L429.407 171.547C429.083 171.006 428.756 170.466 428.427 169.929L437.803 164.183ZM113.798 160.426C113.436 160.943 113.077 161.462 112.721 161.983L103.645 155.774C104.022 155.223 104.401 154.673 104.784 154.125L113.798 160.426ZM431.215 154.125C431.598 154.673 431.977 155.223 432.354 155.774L427.819 158.878L427.818 158.877L423.279 161.983C422.923 161.462 422.564 160.943 422.202 160.426L431.215 154.125ZM120.583 151.315C120.191 151.81 119.802 152.306 119.415 152.805L110.729 146.061C111.138 145.533 111.55 145.008 111.965 144.484L120.583 151.315ZM424.034 144.484C424.449 145.008 424.861 145.533 425.271 146.061L420.93 149.432L420.929 149.431L416.585 152.805C416.198 152.306 415.809 151.81 415.417 151.315L424.034 144.484ZM127.905 142.628C127.484 143.098 127.065 143.571 126.648 144.045L118.384 136.791C118.824 136.289 119.267 135.789 119.713 135.292L127.905 142.628ZM416.286 135.292C416.732 135.789 417.175 136.289 417.615 136.791L409.352 144.045C408.935 143.571 408.516 143.098 408.095 142.628L416.286 135.292ZM135.735 134.396C135.287 134.841 134.841 135.287 134.396 135.735L126.581 127.998C127.051 127.523 127.523 127.051 127.998 126.581L135.735 134.396ZM408.001 126.581C408.476 127.051 408.948 127.523 409.418 127.998L401.604 135.735C401.159 135.287 400.713 134.841 400.265 134.396L408.001 126.581ZM144.045 126.648C143.571 127.065 143.098 127.484 142.628 127.905L135.292 119.713C135.789 119.267 136.289 118.824 136.791 118.384L144.045 126.648ZM399.208 118.384C399.71 118.824 400.21 119.267 400.707 119.713L393.372 127.905C392.902 127.484 392.429 127.065 391.955 126.648L399.208 118.384ZM152.805 119.415C152.306 119.802 151.81 120.191 151.315 120.583L144.484 111.965C145.008 111.55 145.533 111.138 146.061 110.729L152.805 119.415ZM389.938 110.729C390.466 111.138 390.991 111.55 391.515 111.965L388.102 116.273L388.101 116.272L384.685 120.583C384.19 120.191 383.694 119.802 383.195 119.415L389.938 110.729ZM161.983 112.721C161.462 113.077 160.943 113.436 160.426 113.798L154.125 104.784C154.673 104.401 155.223 104.022 155.774 103.645L161.983 112.721ZM380.225 103.645C380.776 104.022 381.326 104.401 381.874 104.784L378.726 109.29L378.725 109.289L375.574 113.798C375.057 113.436 374.538 113.077 374.017 112.721L380.225 103.645ZM171.547 106.593C171.006 106.917 170.466 107.244 169.929 107.573L164.183 98.1963C164.752 97.8474 165.323 97.5015 165.896 97.1582L171.547 106.593ZM370.103 97.1582C370.676 97.5015 371.247 97.8474 371.816 98.1963L368.945 102.884L368.944 102.883L366.071 107.573C365.534 107.244 364.994 106.917 364.453 106.593L370.103 97.1582ZM181.46 101.056C180.9 101.346 180.342 101.64 179.786 101.937L174.618 92.2285C175.207 91.9149 175.798 91.6047 176.391 91.2969L181.46 101.056ZM359.608 91.2969C360.201 91.6047 360.792 91.9149 361.381 92.2285L356.214 101.937C355.658 101.64 355.1 101.346 354.54 101.056L359.608 91.2969ZM191.69 96.1299C191.114 96.3863 190.538 96.6452 189.965 96.9072L185.395 86.9043C186.002 86.6268 186.611 86.3526 187.222 86.0811L191.69 96.1299ZM348.777 86.0811C349.388 86.3526 349.997 86.6268 350.604 86.9043L346.035 96.9072C345.462 96.6452 344.886 96.3863 344.31 96.1299L348.777 86.0811ZM202.201 91.833C201.609 92.0542 201.019 92.2779 200.43 92.5049L196.476 82.2441C197.099 82.0038 197.725 81.7665 198.352 81.5322L202.201 91.833ZM337.647 81.5322C338.274 81.7665 338.9 82.0038 339.523 82.2441L335.57 92.5049C334.981 92.2779 334.391 92.0542 333.799 91.833L337.647 81.5322ZM212.952 88.1846C212.349 88.3691 211.745 88.5566 211.145 88.7471L207.822 78.2607C208.459 78.0591 209.096 77.8614 209.735 77.666L212.952 88.1846ZM326.264 77.666C326.903 77.8614 327.541 78.0591 328.177 78.2607L324.855 88.7471C324.255 88.5567 323.652 88.3691 323.049 88.1846L326.264 77.666ZM223.9 85.1982C223.288 85.3455 222.676 85.4962 222.065 85.6494L219.388 74.9805L219.387 74.9795C220.033 74.8172 220.681 74.6589 221.33 74.5029L223.9 85.1982ZM314.67 74.5039C315.319 74.6598 315.966 74.8182 316.612 74.9805L313.935 85.6494C313.324 85.4962 312.712 85.3455 312.1 85.1982L314.67 74.5039ZM235.014 82.8828C234.392 82.9927 233.772 83.1057 233.152 83.2217L231.126 72.4102C231.782 72.2873 232.439 72.1672 233.097 72.0508L235.014 82.8828ZM302.902 72.0508C303.56 72.1672 304.217 72.2873 304.873 72.4102L302.848 83.2217C302.229 83.1057 301.608 82.9927 300.987 82.8828L302.902 72.0508ZM246.253 81.2432C245.625 81.3155 244.997 81.3912 244.37 81.4697L243.003 70.5547C243.666 70.4716 244.329 70.392 244.994 70.3154L246.253 81.2432ZM291.005 70.3154C291.67 70.392 292.334 70.4716 292.997 70.5547L291.63 81.4697C291.004 81.3912 290.376 81.3155 289.748 81.2432L291.005 70.3154ZM257.579 80.2832C256.946 80.3178 256.313 80.3557 255.682 80.3965L254.973 69.4199L254.972 69.4189C255.64 69.3758 256.309 69.3364 256.979 69.2998L257.579 80.2832ZM279.02 69.2998C279.69 69.3364 280.359 69.3758 281.027 69.4189L280.318 80.3965C279.687 80.3557 279.054 80.3178 278.421 80.2832L279.02 69.2998ZM269.006 69.0029L268.953 80.002C268.636 80.0004 268.318 80 268 80C267.682 80 267.364 80.0004 267.047 80.002L266.993 69.0029C267.329 69.0013 267.664 69 268 69C268.335 69 268.671 69.0013 269.006 69.0029Z" fill="#C5C5C5"/>
<path d="M268 465V467C267.664 467 267.329 466.998 266.993 466.996L267.003 464.997C267.335 464.999 267.667 465 268 465ZM269.006 466.996C268.671 466.998 268.335 467 268 467V465C268.333 465 268.665 464.999 268.997 464.997L269.006 466.996ZM257.088 464.703L257.033 465.7L257.034 465.701L256.986 466.58L256.979 466.699C256.309 466.663 255.64 466.623 254.972 466.58L255.102 464.585C255.763 464.628 256.425 464.667 257.088 464.703ZM281.027 466.58C280.359 466.623 279.69 466.663 279.02 466.699L278.911 464.703C279.574 464.667 280.237 464.628 280.898 464.585L281.027 466.58ZM245.224 463.697L244.994 465.684C244.329 465.607 243.665 465.527 243.002 465.444L243.251 463.461C243.907 463.543 244.565 463.621 245.224 463.697ZM292.996 465.444C292.333 465.527 291.67 465.607 291.005 465.684L290.979 465.445L290.891 464.691L290.776 463.697C291.435 463.621 292.093 463.543 292.749 463.461L292.996 465.444ZM233.445 461.979L233.097 463.948C232.439 463.832 231.782 463.712 231.126 463.589L231.495 461.625C232.144 461.747 232.794 461.864 233.445 461.979ZM304.873 463.589C304.217 463.712 303.56 463.832 302.902 463.948L302.555 461.979C303.206 461.864 303.856 461.747 304.505 461.625L304.873 463.589ZM316.612 461.02C315.966 461.182 315.318 461.34 314.669 461.496L314.203 459.553C314.845 459.398 315.486 459.241 316.126 459.08L316.612 461.02ZM221.797 459.553L221.562 460.523L221.563 460.524L221.329 461.495C220.68 461.339 220.033 461.181 219.387 461.019L219.874 459.08C220.514 459.241 221.155 459.398 221.797 459.553ZM210.32 456.422L209.821 458.054L209.735 458.333C209.096 458.138 208.459 457.94 207.822 457.738L208.426 455.832C209.056 456.032 209.688 456.228 210.32 456.422ZM328.177 457.738C327.54 457.94 326.903 458.138 326.264 458.333L325.68 456.422C326.312 456.228 326.944 456.032 327.574 455.832L328.177 457.738ZM199.051 452.598L198.7 453.533L198.701 453.534L198.352 454.467C197.725 454.233 197.099 453.995 196.476 453.755L197.194 451.893C197.812 452.13 198.43 452.366 199.051 452.598ZM339.523 453.755C338.9 453.995 338.274 454.233 337.647 454.467L336.949 452.598C337.57 452.366 338.188 452.13 338.806 451.893L339.523 453.755ZM188.033 448.094L187.222 449.918C186.611 449.646 186.002 449.372 185.395 449.095L186.225 447.278C186.826 447.553 187.429 447.825 188.033 448.094ZM350.604 449.095C349.997 449.372 349.388 449.646 348.777 449.918L347.967 448.094C348.571 447.825 349.174 447.553 349.775 447.278L350.604 449.095ZM177.312 442.931L176.391 444.702C175.798 444.394 175.207 444.084 174.618 443.771L175.557 442.008C176.14 442.318 176.725 442.626 177.312 442.931ZM361.381 443.771C360.792 444.084 360.201 444.394 359.608 444.702L358.688 442.931C359.275 442.626 359.86 442.318 360.443 442.008L361.381 443.771ZM166.923 437.128L165.896 438.841C165.323 438.498 164.752 438.152 164.183 437.803L165.227 436.101C165.79 436.446 166.356 436.788 166.923 437.128ZM371.816 437.803C371.247 438.152 370.676 438.498 370.103 438.841L369.077 437.128C369.644 436.788 370.21 436.446 370.773 436.101L371.816 437.803ZM156.902 430.708L155.774 432.354C155.223 431.977 154.673 431.598 154.125 431.215L155.27 429.579C155.812 429.958 156.356 430.334 156.902 430.708ZM381.874 431.215C381.326 431.598 380.776 431.977 380.225 432.354L379.098 430.708C379.644 430.334 380.188 429.958 380.73 429.579L381.874 431.215ZM147.285 423.694L146.671 424.483L146.672 424.484L146.061 425.271C145.533 424.861 145.008 424.449 144.484 424.034L145.725 422.47C146.243 422.88 146.763 423.289 147.285 423.694ZM391.515 424.034C390.991 424.449 390.466 424.861 389.938 425.271L388.715 423.694C389.237 423.289 389.757 422.88 390.275 422.47L391.515 424.034ZM138.108 416.115L136.791 417.615C136.289 417.175 135.789 416.732 135.292 416.286L136.624 414.8C137.117 415.241 137.611 415.679 138.108 416.115ZM400.707 416.286C400.21 416.732 399.71 417.175 399.208 417.615L398.551 416.867L397.892 416.115C398.389 415.679 398.884 415.241 399.376 414.8L400.707 416.286ZM129.403 408L127.998 409.418C127.523 408.948 127.051 408.476 126.581 408.001L128 406.597C128.465 407.067 128.933 407.535 129.403 408ZM409.418 408.001C408.948 408.476 408.476 408.948 408.001 409.418L406.597 408C407.067 407.535 407.535 407.067 408 406.597L409.418 408.001ZM121.2 399.376L119.713 400.707C119.267 400.21 118.824 399.71 118.384 399.208L119.885 397.892C120.321 398.389 120.759 398.884 121.2 399.376ZM417.615 399.208C417.175 399.71 416.732 400.21 416.286 400.707L414.8 399.376C415.241 398.884 415.679 398.389 416.115 397.892L417.615 399.208ZM113.53 390.275L112.746 390.896L112.747 390.896L111.965 391.515C111.55 390.991 111.138 390.466 110.729 389.938L112.306 388.715C112.711 389.237 113.12 389.757 113.53 390.275ZM425.271 389.938C424.861 390.466 424.449 390.991 424.034 391.515L423.253 390.896L422.47 390.275C422.88 389.757 423.289 389.237 423.694 388.715L425.271 389.938ZM106.421 380.73L105.601 381.303L105.602 381.304L104.784 381.874C104.401 381.326 104.022 380.776 103.645 380.225L105.292 379.098C105.666 379.644 106.042 380.188 106.421 380.73ZM432.354 380.225C431.977 380.776 431.598 381.326 431.215 381.874L429.579 380.73C429.958 380.188 430.334 379.644 430.708 379.098L432.354 380.225ZM99.8994 370.773L98.1963 371.816C97.8474 371.247 97.5015 370.676 97.1582 370.103L98.8721 369.077C99.2118 369.644 99.5541 370.21 99.8994 370.773ZM438.841 370.103C438.498 370.676 438.152 371.247 437.803 371.816L436.101 370.773C436.446 370.21 436.788 369.644 437.128 369.077L438.841 370.103ZM93.9922 360.443L92.2285 361.381C91.9149 360.792 91.6047 360.201 91.2969 359.608L93.0693 358.688C93.3741 359.275 93.6817 359.86 93.9922 360.443ZM444.702 359.608C444.394 360.201 444.084 360.792 443.771 361.381L442.008 360.443C442.318 359.86 442.626 359.275 442.931 358.688L444.702 359.608ZM88.7217 349.775L87.8105 350.19L87.8115 350.191L86.9043 350.604C86.6268 349.997 86.3526 349.388 86.0811 348.777L87.9062 347.967C88.1751 348.571 88.447 349.174 88.7217 349.775ZM449.918 348.777C449.646 349.388 449.372 349.997 449.095 350.604L448.188 350.191L447.278 349.775C447.553 349.174 447.825 348.571 448.094 347.967L449.918 348.777ZM84.1074 338.806L83.1729 339.165L83.1738 339.166L82.2441 339.523C82.0038 338.9 81.7665 338.274 81.5322 337.647L83.4023 336.949C83.6342 337.57 83.8695 338.188 84.1074 338.806ZM454.467 337.647C454.233 338.274 453.995 338.9 453.755 339.523L451.893 338.806C452.13 338.188 452.366 337.57 452.598 336.949L454.467 337.647ZM80.168 327.574L78.2607 328.177C78.0591 327.54 77.8614 326.903 77.666 326.264L79.5781 325.68C79.7716 326.312 79.9683 326.944 80.168 327.574ZM458.333 326.264C458.138 326.903 457.94 327.541 457.738 328.177L455.832 327.574C456.032 326.944 456.228 326.312 456.422 325.68L458.333 326.264ZM461.495 314.67C461.339 315.319 461.181 315.966 461.019 316.612L459.08 316.126C459.241 315.486 459.398 314.845 459.553 314.203L461.495 314.67ZM76.9199 316.126L74.9795 316.612C74.8172 315.966 74.6589 315.318 74.5029 314.669L76.4473 314.203C76.6016 314.845 76.7593 315.486 76.9199 316.126ZM74.375 304.505L73.3916 304.688L72.4102 304.873C72.2873 304.217 72.1672 303.56 72.0508 302.902L74.0205 302.555C74.1357 303.206 74.2534 303.856 74.375 304.505ZM463.948 302.902C463.832 303.56 463.712 304.217 463.589 304.873L461.625 304.505C461.747 303.856 461.864 303.206 461.979 302.555L463.948 302.902ZM465.684 291.005C465.607 291.67 465.527 292.334 465.444 292.997L463.461 292.749C463.543 292.093 463.621 291.435 463.697 290.776L465.684 291.005ZM72.5391 292.749L70.5547 292.996C70.4716 292.333 70.3919 291.67 70.3154 291.005L72.3027 290.776C72.3785 291.435 72.4568 292.093 72.5391 292.749ZM71.415 280.898L69.4189 281.027C69.3758 280.359 69.3364 279.69 69.2998 279.02L71.2969 278.911C71.3331 279.574 71.3723 280.237 71.415 280.898ZM466.699 279.02C466.663 279.69 466.623 280.359 466.58 281.027L464.585 280.898C464.628 280.237 464.667 279.575 464.703 278.912L466.699 279.02ZM69 268L69.0029 266.993L71.0029 267.003C71.0013 267.335 71 267.667 71 268C71 268.333 71.0013 268.665 71.0029 268.997L69.0029 269.006C69.0013 268.671 69 268.335 69 268ZM466.996 266.993C466.998 267.329 467 267.664 467 268C467 268.335 466.998 268.671 466.996 269.006L464.997 268.997C464.999 268.665 465 268.333 465 268C465 267.667 464.999 267.335 464.997 267.003L466.996 266.993ZM466.58 254.972C466.623 255.64 466.663 256.309 466.699 256.979L464.703 257.089C464.667 256.426 464.628 255.763 464.585 255.102L466.58 254.972ZM69.4199 254.973L71.415 255.102C71.3723 255.763 71.3331 256.425 71.2969 257.088L70.2988 257.033L69.2998 256.979C69.3364 256.309 69.3758 255.64 69.4189 254.972L69.4199 254.973ZM72.5391 243.251C72.4568 243.907 72.3785 244.565 72.3027 245.224L70.3154 244.994C70.392 244.329 70.4716 243.665 70.5547 243.002L72.5391 243.251ZM465.444 243.003C465.527 243.666 465.607 244.329 465.684 244.994L464.691 245.109L464.69 245.108L463.697 245.224C463.621 244.565 463.543 243.907 463.461 243.251L465.444 243.003ZM74.375 231.495C74.2534 232.144 74.1357 232.794 74.0205 233.445L72.0508 233.097C72.1672 232.439 72.2873 231.782 72.4102 231.126L74.375 231.495ZM463.589 231.126C463.712 231.782 463.832 232.439 463.948 233.097L462.965 233.271L462.964 233.271L461.979 233.445C461.864 232.794 461.747 232.144 461.625 231.495L463.589 231.126ZM74.9805 219.387L76.9199 219.874C76.7593 220.514 76.6016 221.155 76.4473 221.797L74.5039 221.329C74.6539 220.705 74.8061 220.082 74.9619 219.46L74.9805 219.387ZM461.02 219.387C461.182 220.033 461.34 220.681 461.496 221.33L459.553 221.797C459.398 221.155 459.241 220.514 459.08 219.874L461.02 219.387ZM80.168 208.426C79.9683 209.056 79.7716 209.688 79.5781 210.32L77.666 209.735C77.8614 209.096 78.0591 208.459 78.2607 207.822L80.168 208.426ZM457.738 207.822C457.94 208.459 458.138 209.096 458.333 209.735L457.378 210.028L457.377 210.027L456.422 210.32C456.228 209.688 456.032 209.056 455.832 208.426L457.738 207.822ZM84.1074 197.194C83.8696 197.812 83.6341 198.43 83.4023 199.051L81.5322 198.352C81.7665 197.725 82.0038 197.099 82.2441 196.476L84.1074 197.194ZM453.755 196.476C453.995 197.099 454.233 197.725 454.467 198.352L453.534 198.701L453.533 198.7L452.598 199.051C452.366 198.43 452.13 197.812 451.893 197.194L453.755 196.476ZM88.7217 186.225C88.447 186.826 88.1751 187.429 87.9062 188.033L86.0811 187.222C86.3526 186.611 86.6268 186.002 86.9043 185.395L88.7217 186.225ZM449.095 185.395C449.372 186.002 449.646 186.611 449.918 187.222L448.094 188.033C447.825 187.429 447.553 186.826 447.278 186.225L449.095 185.395ZM93.9922 175.557C93.6817 176.14 93.3741 176.725 93.0693 177.312L92.1816 176.85L91.2969 176.391C91.6047 175.798 91.9149 175.207 92.2285 174.618L93.9922 175.557ZM443.771 174.618C444.084 175.207 444.394 175.798 444.702 176.391L442.931 177.312C442.626 176.725 442.318 176.14 442.008 175.557L443.771 174.618ZM99.8994 165.227C99.5542 165.79 99.2118 166.356 98.8721 166.923L98.0137 166.408L97.1582 165.896C97.5015 165.323 97.8474 164.752 98.1963 164.183L99.8994 165.227ZM437.803 164.183C438.152 164.752 438.498 165.323 438.841 165.896L437.986 166.409L437.985 166.408L437.128 166.923C436.788 166.356 436.446 165.79 436.101 165.227L437.803 164.183ZM106.421 155.27C106.042 155.812 105.666 156.356 105.292 156.902L103.645 155.774C104.022 155.223 104.401 154.673 104.784 154.125L106.421 155.27ZM431.215 154.125C431.598 154.673 431.977 155.223 432.354 155.774L430.708 156.902C430.334 156.356 429.958 155.812 429.579 155.27L431.215 154.125ZM113.53 145.725C113.12 146.243 112.711 146.763 112.306 147.285L111.516 146.671L110.729 146.061C111.138 145.533 111.55 145.008 111.965 144.484L113.53 145.725ZM424.034 144.484C424.449 145.008 424.861 145.533 425.271 146.061L424.484 146.672L424.483 146.671L423.694 147.285C423.289 146.763 422.88 146.243 422.47 145.725L424.034 144.484ZM121.2 136.624C120.759 137.117 120.321 137.611 119.885 138.108L118.384 136.791C118.824 136.289 119.267 135.789 119.713 135.292L121.2 136.624ZM416.286 135.292C416.732 135.789 417.175 136.289 417.615 136.791L416.867 137.449L416.866 137.448L416.115 138.108C415.679 137.611 415.241 137.117 414.8 136.624L416.286 135.292ZM129.403 128C128.933 128.465 128.465 128.933 128 129.403L126.581 127.998C127.051 127.523 127.523 127.051 127.998 126.581L129.403 128ZM408.001 126.581C408.476 127.051 408.948 127.523 409.418 127.998L408 129.403C407.535 128.933 407.067 128.465 406.597 128L408.001 126.581ZM137.449 119.133L138.108 119.885C137.611 120.321 137.117 120.759 136.624 121.2L135.292 119.713C135.789 119.267 136.289 118.824 136.791 118.384L137.449 119.133ZM399.208 118.384C399.71 118.824 400.21 119.267 400.707 119.713L399.376 121.2C398.884 120.759 398.389 120.321 397.892 119.885L399.208 118.384ZM146.41 111.18L147.285 112.306C146.763 112.711 146.243 113.12 145.725 113.53L144.484 111.965C145.008 111.55 145.533 111.138 146.061 110.729L146.41 111.18ZM389.938 110.729C390.466 111.138 390.991 111.55 391.515 111.965L390.275 113.53C389.757 113.12 389.237 112.711 388.715 112.306L389.59 111.18L389.938 110.729ZM156.902 105.292C156.356 105.666 155.812 106.042 155.27 106.421L154.125 104.784C154.673 104.401 155.223 104.022 155.774 103.645L156.902 105.292ZM380.225 103.645C380.776 104.022 381.326 104.401 381.874 104.784L381.304 105.602L381.303 105.601L380.73 106.421C380.188 106.042 379.644 105.666 379.098 105.292L380.225 103.645ZM166.923 98.8721C166.356 99.2118 165.79 99.5541 165.227 99.8994L164.183 98.1963C164.752 97.8474 165.323 97.5015 165.896 97.1582L166.923 98.8721ZM370.103 97.1582C370.676 97.5015 371.247 97.8474 371.816 98.1963L370.773 99.8994C370.21 99.5542 369.644 99.2118 369.077 98.8721L370.103 97.1582ZM177.312 93.0693C176.725 93.3741 176.14 93.6817 175.557 93.9922L174.618 92.2285C175.207 91.9149 175.798 91.6047 176.391 91.2969L177.312 93.0693ZM359.608 91.2969C360.201 91.6047 360.792 91.9149 361.381 92.2285L360.443 93.9922C359.86 93.6817 359.275 93.3741 358.688 93.0693L359.608 91.2969ZM188.033 87.9062C187.429 88.1751 186.826 88.447 186.225 88.7217L185.395 86.9043C186.002 86.6268 186.611 86.3526 187.222 86.0811L188.033 87.9062ZM348.777 86.0811C349.388 86.3526 349.997 86.6268 350.604 86.9043L349.775 88.7217C349.174 88.447 348.571 88.1751 347.967 87.9062L348.777 86.0811ZM199.051 83.4023C198.43 83.6342 197.812 83.8695 197.194 84.1074L196.476 82.2441C197.099 82.0038 197.725 81.7665 198.352 81.5322L199.051 83.4023ZM337.647 81.5322C338.274 81.7665 338.9 82.0038 339.523 82.2441L338.806 84.1074C338.188 83.8696 337.57 83.6341 336.949 83.4023L337.647 81.5322ZM210.32 79.5781C209.688 79.7716 209.056 79.9683 208.426 80.168L207.822 78.2607C208.459 78.0591 209.096 77.8614 209.735 77.666L210.32 79.5781ZM326.264 77.666C326.903 77.8614 327.541 78.0591 328.177 78.2607L327.574 80.168C326.944 79.9683 326.312 79.7716 325.68 79.5781L326.264 77.666ZM221.797 76.4473C221.155 76.6016 220.514 76.7593 219.874 76.9199L219.388 74.9805L219.387 74.9795C220.033 74.8172 220.681 74.6589 221.33 74.5029L221.797 76.4473ZM314.67 74.5039C315.319 74.6598 315.966 74.8182 316.612 74.9805L316.126 76.9199C315.486 76.7593 314.845 76.6016 314.203 76.4473L314.67 74.5039ZM233.271 73.0352L233.445 74.0205C232.794 74.1357 232.144 74.2534 231.495 74.375L231.126 72.4102C231.782 72.2873 232.439 72.1672 233.097 72.0508L233.271 73.0352ZM302.902 72.0508C303.56 72.1672 304.217 72.2873 304.873 72.4102L304.505 74.375C303.856 74.2534 303.206 74.1357 302.555 74.0205L302.902 72.0508ZM245.109 71.3086L245.224 72.3027C244.565 72.3785 243.907 72.4568 243.251 72.5391L243.067 71.0664L243.003 70.5547C243.666 70.4716 244.329 70.392 244.994 70.3154L245.109 71.3086ZM291.005 70.3154C291.67 70.392 292.334 70.4716 292.997 70.5547L292.749 72.5391C292.093 72.4568 291.435 72.3785 290.776 72.3027L291.005 70.3154ZM257.089 71.2969C256.426 71.3331 255.763 71.3723 255.102 71.415L254.973 69.4199L254.972 69.4189C255.64 69.3758 256.309 69.3364 256.979 69.2998L257.089 71.2969ZM279.02 69.2998C279.69 69.3364 280.359 69.3758 281.027 69.4189L280.898 71.415C280.237 71.3723 279.575 71.3331 278.912 71.2969L278.967 70.2979L279.02 69.2998ZM269.006 69.0029L268.997 71.0029C268.665 71.0013 268.333 71 268 71C267.667 71 267.335 71.0013 267.003 71.0029L266.993 69.0029C267.329 69.0013 267.664 69 268 69C268.335 69 268.671 69.0013 269.006 69.0029Z" fill="#C5C5C5"/>
</g>
</svg>
