<svg width="215" height="38" viewBox="0 0 215 38" fill="none" xmlns="http://www.w3.org/2000/svg">
<path d="M21.0017 16.2151L1.2666 10.88C0.19221 10.5896 -0.482072 12.007 0.421282 12.657L33.3746 36.368C34.1369 36.9165 35.1666 36.2072 34.9256 35.2997L33.3352 29.3115C33.0995 28.424 34.0846 27.7147 34.8518 28.2196L48.924 37.4802C49.3672 37.7719 49.9611 37.6668 50.2772 37.2407L69.2472 11.6722C69.8867 10.8102 68.9037 9.68339 67.9627 10.1997L50.1355 19.9815C49.869 20.1277 49.5505 20.1448 49.2699 20.028L22.2435 8.7789C21.4781 8.46032 20.6796 9.15759 20.8924 9.95873L22.2295 14.9931C22.4271 15.7371 21.745 16.416 21.0017 16.2151Z" fill="#C5C5C5"/>
<path d="M209.137 5.18955C209.809 4.52394 210.618 4.19114 211.564 4.19114C212.51 4.19114 213.32 4.52394 213.992 5.18955C214.664 5.85516 215 6.65636 215 7.59314C215 8.52993 214.658 9.33112 213.973 9.99673C213.301 10.65 212.498 10.9767 211.564 10.9767C210.618 10.9767 209.809 10.6439 209.137 9.97824C208.465 9.31264 208.129 8.5176 208.129 7.59314C208.129 6.64403 208.465 5.84284 209.137 5.18955ZM213.469 5.70725C212.946 5.17723 212.311 4.91222 211.564 4.91222C210.818 4.91222 210.176 5.17723 209.641 5.70725C209.118 6.23727 208.857 6.8659 208.857 7.59314C208.857 8.33271 209.118 8.96134 209.641 9.47904C210.176 9.99673 210.818 10.2556 211.564 10.2556C212.311 10.2556 212.946 9.99673 213.469 9.47904C214.004 8.94901 214.272 8.32038 214.272 7.59314C214.272 6.85358 214.004 6.22495 213.469 5.70725ZM210.052 5.68876H211.863C212.274 5.68876 212.604 5.78737 212.853 5.98459C213.102 6.18181 213.226 6.46531 213.226 6.83509C213.226 7.29115 213.002 7.59314 212.554 7.74106C212.803 7.86432 212.959 7.9999 213.021 8.14782C213.095 8.29573 213.145 8.52376 213.17 8.83192L213.189 9.05379C213.226 9.31263 213.251 9.46055 213.264 9.49753H212.181C212.131 9.34961 212.106 9.17705 212.106 8.97983C212.106 8.64702 212.062 8.43132 211.975 8.33271C211.888 8.2341 211.695 8.1848 211.396 8.1848H211.191V9.49753H210.052V5.68876ZM211.191 7.35278H211.434C211.869 7.35278 212.087 7.20487 212.087 6.90905C212.087 6.63787 211.876 6.50228 211.452 6.50228H211.191V7.35278Z" fill="#C5C5C5"/>
<path d="M107.931 5.93336H111.311V9.48901H107.931V30.4936L112.087 33.8517L107.06 38C104.96 35.7174 102.543 33.4845 99.415 32.6505L98.7586 31.7282C99.6026 31.3592 100.656 31.0281 100.893 30.362C101.206 29.484 101.362 28.4964 101.362 27.399V9.48901H98.4803V8.43554C98.4803 8.43554 101.631 6.79434 103.353 5.34951C105.465 3.57737 107.931 0 107.931 0V5.93336Z" fill="#C5C5C5"/>
<path fill-rule="evenodd" clip-rule="evenodd" d="M123.408 4.61651C126.714 6.85522 130.244 8.4355 133.998 9.35733V32.7982C132.032 33.5444 130.334 34.2908 128.904 35.037C127.474 35.7833 125.932 36.7709 124.279 38C122.402 36.5953 120.414 35.4101 118.314 34.4443C116.258 33.4786 115.206 33.0194 113.106 33.0194L112.074 32.1893L113.22 31.0863C113.309 30.9985 113.421 30.7789 113.555 30.4277C113.689 30.0765 113.823 29.1547 113.957 27.6623V10.0157C117.442 8.91833 120.593 7.11862 123.408 4.61651ZM120.458 29.7035L127.429 32.6665V12.7154L120.458 9.75238V29.7035Z" fill="#C5C5C5"/>
<path d="M172.853 9.68663L173.255 10.0817V31.1521L175.601 33.5226L170.105 38L164.475 33.5226L166.62 31.1521V12.1229L164.479 9.7767L159.381 14.0194V31.1521L161.794 33.5226L156.297 38L150.667 33.5226L152.812 31.1521V15.0859C152.812 13.8129 152.566 12.8032 152.075 12.0569C151.662 11.3276 151.181 10.7827 150.426 10.0534L145.506 14.2201V31.1521L147.919 33.5226L142.49 38L136.658 33.3249L139.004 30.9546V13.1764C139.004 12.079 138.781 11.2669 138.334 10.7401C137.932 10.1694 137.329 10.1256 136.524 10.6084L135.623 9.35733L141.819 4.61651C143.383 5.67004 144.389 6.70156 144.836 7.71118C145.283 8.72081 145.506 10.1914 145.506 12.1229L154.555 4.61651C156.029 5.67003 157.169 6.78935 157.973 7.97455C158.822 9.15977 159.247 10.5426 159.247 12.1229L168.161 4.61651L172.853 9.68663Z" fill="#C5C5C5"/>
<path d="M187.497 9.09396L185.218 11.1352V31.4814L187.899 34.2467L182.939 38C181.956 36.9026 180.951 35.9368 179.923 35.1028C178.94 34.2687 177.823 33.4348 176.572 32.6008V32.0081C177.242 31.7447 177.756 31.3276 178.113 30.757C178.515 30.1864 178.717 29.1548 178.717 27.6623V10.8718L177.496 8.89634L181.934 4.61651L187.497 9.09396Z" fill="#C5C5C5"/>
<path d="M206.286 8.89634L202.935 13.7031L197.372 10.6742V30.6911L203.136 33.2592L206.018 31.0204L206.688 31.8764L198.98 38C196.12 36.0246 192.769 34.7955 188.926 34.3127V33.5226C189.686 32.9958 190.177 32.3373 190.401 31.5471C190.669 30.757 190.803 29.7473 190.803 28.5182V15.1516C190.803 13.9665 190.647 13.1764 190.334 12.7813C190.106 12.4086 189.556 12.1308 188.684 11.948V10.9226C190.385 10.3929 192.029 9.60778 193.618 8.56722C195.405 7.38201 197.036 6.0651 198.511 4.61651L206.286 8.89634Z" fill="#C5C5C5"/>
<path fill-rule="evenodd" clip-rule="evenodd" d="M84.5993 4.61165C85.5377 5.00671 86.5404 5.44564 87.5681 5.92849C88.5959 6.41135 89.5789 6.82841 90.5173 7.17958C91.4557 7.48685 92.327 7.68445 93.1313 7.77225C93.9803 7.86004 94.6954 7.66245 95.2763 7.17958L96.6838 6.06018L97.5552 6.65285C97.019 7.44299 96.5944 8.16727 96.2816 8.82573C95.9688 9.48417 95.7232 10.1866 95.5445 10.9329C95.3657 11.6352 95.254 12.4253 95.2093 13.3032C95.1646 14.1372 95.1423 15.1469 95.1423 16.3321V28.9086C95.1423 30.1816 95.321 31.1912 95.6785 31.9375C96.0434 32.5746 96.8367 32.5626 97.8209 32.2106L98.4773 33.3116L92.4612 37.9951C91.2994 36.9855 90.3834 35.932 89.7131 34.8345C89.0875 33.7371 88.6853 32.4202 88.5066 30.8838L79.659 37.9951C78.1844 36.8538 76.9556 35.6028 75.9725 34.242V19.4848H76.564C77.8571 19.2891 81.5141 18.6851 83.7818 17.801C85.5788 17.1003 87.8987 15.5529 88.5066 15.1379V9.96117L86.6315 9.19232C86.6107 9.20271 86.5894 9.2132 86.5674 9.2233C85.2942 9.80774 83.2416 10.7752 81.7862 11.4261L77.6603 13.1256C78.6606 12.1712 80.4734 9.57426 79.7233 6.82056C81.5874 6.10146 84.0326 5.03924 84.5982 4.61165H84.5993ZM88.5066 16.9824C88.0003 17.3306 86.3329 18.4553 85.2557 18.9078C83.8132 19.5138 81.6203 20.2255 81.2005 20.3604V31.7399C81.7281 32.5172 82.5258 32.8732 83.5935 32.8078L88.5066 28.8641V16.9824Z" fill="#C5C5C5"/>
</svg>
