<svg width="455" height="254" viewBox="0 0 455 254" fill="none" xmlns="http://www.w3.org/2000/svg">
<g clip-path="url(#clip0_332_613)">
<rect y="-2" width="455" height="256" fill="url(#paint0_linear_332_613)"/>
<rect y="-2" width="455" height="256" fill="#0744C9"/>
<g filter="url(#filter0_f_332_613)">
<ellipse cx="-184.989" cy="-29.9397" rx="192.44" ry="74.3777" fill="#97A0D6"/>
</g>
<g filter="url(#filter1_f_332_613)">
<ellipse cx="225.499" cy="302.971" rx="192.44" ry="74.3777" fill="#5AE3ED"/>
</g>
<g filter="url(#filter2_f_332_613)">
<ellipse cx="30.9994" cy="174.762" rx="126.16" ry="48.7691" fill="#2B4040"/>
</g>
<path d="M431.373 23.2776C431.789 22.8573 432.29 22.6471 432.875 22.6471C433.46 22.6471 433.96 22.8573 434.376 23.2776C434.792 23.698 435 24.204 435 24.7957C435 25.3873 434.788 25.8934 434.365 26.3137C433.949 26.7263 433.452 26.9326 432.875 26.9326C432.29 26.9326 431.789 26.7225 431.373 26.3021C430.957 25.8817 430.75 25.3796 430.75 24.7957C430.75 24.1963 430.957 23.6902 431.373 23.2776ZM434.053 23.6046C433.729 23.2699 433.337 23.1025 432.875 23.1025C432.413 23.1025 432.016 23.2699 431.685 23.6046C431.362 23.9394 431.2 24.3364 431.2 24.7957C431.2 25.2628 431.362 25.6598 431.685 25.9868C432.016 26.3137 432.413 26.4772 432.875 26.4772C433.337 26.4772 433.729 26.3137 434.053 25.9868C434.384 25.652 434.55 25.255 434.55 24.7957C434.55 24.3286 434.384 23.9316 434.053 23.6046ZM431.939 23.5929H433.06C433.314 23.5929 433.518 23.6552 433.672 23.7798C433.826 23.9043 433.903 24.0834 433.903 24.3169C433.903 24.605 433.764 24.7957 433.487 24.8891C433.641 24.967 433.737 25.0526 433.776 25.146C433.822 25.2394 433.853 25.3835 433.868 25.5781L433.88 25.7182C433.903 25.8817 433.918 25.9751 433.926 25.9985H433.256C433.225 25.905 433.21 25.7961 433.21 25.6715C433.21 25.4613 433.183 25.3251 433.129 25.2628C433.075 25.2005 432.956 25.1694 432.771 25.1694H432.644V25.9985H431.939V23.5929ZM432.644 24.6439H432.794C433.063 24.6439 433.198 24.5505 433.198 24.3636C433.198 24.1924 433.067 24.1067 432.805 24.1067H432.644V24.6439Z" fill="white"/>
<path d="M368.769 23.7474H370.86V25.9931H368.769V39.2591L371.34 41.38L368.23 44C366.931 42.5583 365.436 41.1481 363.501 40.6214L363.095 40.0388C363.617 39.8058 364.269 39.5967 364.416 39.176C364.609 38.6215 364.706 37.9977 364.706 37.3046V25.9931H362.923V25.3277C362.923 25.3277 364.872 24.2912 365.937 23.3786C367.244 22.2594 368.769 20 368.769 20V23.7474Z" fill="white"/>
<path fill-rule="evenodd" clip-rule="evenodd" d="M378.343 22.9157C380.388 24.3296 382.572 25.3277 384.894 25.9099V40.7147C383.677 41.186 382.627 41.6573 381.743 42.1286C380.858 42.6 379.904 43.2237 378.882 44C377.721 43.1128 376.491 42.3643 375.191 41.7543C373.92 41.1444 373.269 40.8544 371.97 40.8544L371.332 40.3301L372.04 39.6335C372.096 39.578 372.165 39.4393 372.248 39.2175C372.331 38.9957 372.414 38.4135 372.497 37.4709V26.3257C374.653 25.6326 376.601 24.496 378.343 22.9157ZM376.518 38.7601L380.83 40.6315V28.0308L376.518 26.1594V38.7601Z" fill="white"/>
<path d="M408.929 26.1179L409.177 26.3674V39.675L410.629 41.1721L407.229 44L403.746 41.1721L405.073 39.675V27.6566L403.749 26.1748L400.595 28.8544V39.675L402.088 41.1721L398.688 44L395.205 41.1721L396.532 39.675V29.5279C396.532 28.7239 396.38 28.0862 396.076 27.6149C395.82 27.1543 395.523 26.8101 395.056 26.3495L392.012 28.9811V39.675L393.505 41.1721L390.147 44L386.539 41.0473L387.99 39.5503V28.3219C387.99 27.6288 387.852 27.1159 387.576 26.7832C387.327 26.4228 386.954 26.3951 386.456 26.7001L385.899 25.9099L389.732 22.9157C390.699 23.5811 391.321 24.2326 391.598 24.8702C391.874 25.5079 392.012 26.4367 392.012 27.6566L397.61 22.9157C398.522 23.5811 399.227 24.288 399.724 25.0366C400.249 25.7851 400.512 26.6585 400.512 27.6566L406.026 22.9157L408.929 26.1179Z" fill="white"/>
<path d="M417.987 25.7436L416.578 27.0327V39.883L418.236 41.6295L415.168 44C414.56 43.3069 413.938 42.6969 413.302 42.1702C412.694 41.6434 412.003 41.1167 411.229 40.59V40.2156C411.644 40.0493 411.961 39.7859 412.183 39.4255C412.431 39.0651 412.556 38.4136 412.556 37.4709V26.8664L411.801 25.6187L414.546 22.9157L417.987 25.7436Z" fill="white"/>
<path d="M429.61 25.6187L427.537 28.6546L424.095 26.7416V39.3838L427.661 41.0058L429.444 39.5918L429.859 40.1325L425.091 44C423.322 42.7524 421.248 41.9761 418.871 41.6712V41.1721C419.341 40.8394 419.645 40.4235 419.783 39.9245C419.949 39.4255 420.032 38.7878 420.032 38.0115V29.5694C420.032 28.821 419.935 28.3219 419.742 28.0724C419.601 27.837 419.261 27.6616 418.722 27.5461V26.8985C419.773 26.5639 420.791 26.0681 421.774 25.4109C422.879 24.6623 423.888 23.8306 424.8 22.9157L429.61 25.6187Z" fill="white"/>
<path fill-rule="evenodd" clip-rule="evenodd" d="M354.336 22.9126C354.917 23.1621 355.537 23.4394 356.173 23.7443C356.809 24.0493 357.417 24.3127 357.997 24.5345C358.578 24.7285 359.117 24.8533 359.614 24.9088C360.139 24.9642 360.582 24.8394 360.941 24.5345L361.812 23.8275L362.351 24.2018C362.019 24.7008 361.756 25.1583 361.563 25.5741C361.369 25.99 361.217 26.4337 361.107 26.905C360.996 27.3485 360.927 27.8475 360.9 28.402C360.872 28.9288 360.858 29.5664 360.858 30.315V38.258C360.858 39.062 360.969 39.6997 361.19 40.171C361.416 40.5734 361.906 40.5658 362.515 40.3435L362.921 41.0389L359.2 43.9969C358.481 43.3593 357.914 42.6939 357.5 42.0008C357.113 41.3077 356.864 40.4759 356.753 39.5056L351.28 43.9969C350.368 43.2761 349.608 42.486 349 41.6266V32.3062H349.366C350.166 32.1826 352.428 31.8011 353.831 31.2427C354.942 30.8002 356.377 29.8229 356.753 29.5608V26.2913L355.594 25.8057C355.581 25.8122 355.567 25.8189 355.554 25.8252C354.766 26.1944 353.497 26.8054 352.596 27.2165L350.044 28.2898C350.663 27.6871 351.784 26.0469 351.32 24.3077C352.473 23.8536 353.986 23.1827 354.336 22.9126C354.336 22.9125 354.336 22.9128 354.336 22.9126ZM356.753 30.7257C356.44 30.9456 355.409 31.656 354.742 31.9417C353.85 32.3245 352.494 32.774 352.234 32.8592V40.0462C352.56 40.5372 353.054 40.762 353.714 40.7207L356.753 38.2299V30.7257Z" fill="white"/>
<path d="M108.803 41.4824L108.798 39.6202H109.046L111.398 36.9909H113.2L110.307 40.2125H109.987L108.803 41.4824ZM107.396 43.5364V34.8091H108.939V43.5364H107.396ZM111.504 43.5364L109.374 40.5577L110.414 39.471L113.35 43.5364H111.504Z" fill="white"/>
<path d="M103.566 43.6638C102.913 43.6638 102.352 43.5203 101.883 43.2334C101.417 42.9465 101.058 42.5502 100.805 42.0445C100.555 41.536 100.43 40.9507 100.43 40.2888C100.43 39.624 100.558 39.0374 100.813 38.5289C101.069 38.0175 101.43 37.6198 101.896 37.3357C102.364 37.0487 102.918 36.9053 103.558 36.9053C104.089 36.9053 104.559 37.0033 104.968 37.1993C105.38 37.3925 105.708 37.6666 105.952 38.0218C106.197 38.374 106.336 38.786 106.37 39.2575H104.896C104.836 38.9422 104.694 38.6794 104.469 38.4692C104.248 38.2561 103.951 38.1496 103.579 38.1496C103.264 38.1496 102.987 38.2348 102.748 38.4053C102.509 38.5729 102.323 38.8144 102.19 39.1297C102.059 39.445 101.994 39.8229 101.994 40.2632C101.994 40.7093 102.059 41.0928 102.19 41.4138C102.32 41.732 102.504 41.9777 102.739 42.151C102.978 42.3215 103.258 42.4067 103.579 42.4067C103.806 42.4067 104.009 42.3641 104.188 42.2789C104.37 42.1908 104.522 42.0644 104.644 41.8996C104.766 41.7348 104.85 41.5345 104.896 41.2987H106.37C106.333 41.7618 106.197 42.1723 105.961 42.5303C105.725 42.8854 105.404 43.1638 104.998 43.3655C104.592 43.5644 104.114 43.6638 103.566 43.6638Z" fill="white"/>
<path d="M95.9443 43.6681C95.5295 43.6681 95.1559 43.5942 94.8235 43.4465C94.494 43.2959 94.2326 43.0743 94.0394 42.7817C93.8491 42.4891 93.7539 42.1283 93.7539 41.6993C93.7539 41.33 93.8221 41.0246 93.9585 40.7831C94.0948 40.5416 94.2809 40.3485 94.5167 40.2036C94.7525 40.0587 95.0181 39.9493 95.3136 39.8754C95.6119 39.7987 95.9201 39.7433 96.2383 39.7093C96.6218 39.6695 96.9329 39.634 97.1715 39.6027C97.4102 39.5686 97.5835 39.5175 97.6914 39.4493C97.8022 39.3783 97.8576 39.2689 97.8576 39.1212V39.0956C97.8576 38.7746 97.7624 38.526 97.5721 38.3499C97.3817 38.1737 97.1076 38.0857 96.7496 38.0857C96.3718 38.0857 96.0721 38.1681 95.8505 38.3328C95.6318 38.4976 95.484 38.6922 95.4073 38.9166L93.967 38.7121C94.0806 38.3144 94.2681 37.982 94.5295 37.7149C94.7908 37.445 95.1104 37.2433 95.4883 37.1098C95.8661 36.9735 96.2837 36.9053 96.7411 36.9053C97.0565 36.9053 97.3704 36.9422 97.6829 37.0161C97.9954 37.0899 98.2809 37.2121 98.5394 37.3825C98.7979 37.5502 99.0053 37.7789 99.1616 38.0686C99.3207 38.3584 99.4002 38.7206 99.4002 39.1553V43.536H97.9173V42.6368H97.8661C97.7724 42.8186 97.6403 42.9891 97.4698 43.1482C97.3022 43.3044 97.0906 43.4308 96.8349 43.5274C96.582 43.6212 96.2852 43.6681 95.9443 43.6681ZM96.3448 42.5345C96.6545 42.5345 96.9229 42.4735 97.1502 42.3513C97.3775 42.2263 97.5522 42.0615 97.6744 41.857C97.7994 41.6524 97.8619 41.4294 97.8619 41.1879V40.4166C97.8136 40.4564 97.7312 40.4933 97.6147 40.5274C97.5011 40.5615 97.3732 40.5914 97.2312 40.6169C97.0891 40.6425 96.9485 40.6652 96.8093 40.6851C96.6701 40.705 96.5494 40.722 96.4471 40.7362C96.217 40.7675 96.011 40.8186 95.8292 40.8896C95.6474 40.9607 95.5039 41.0601 95.3988 41.1879C95.2937 41.3129 95.2411 41.4749 95.2411 41.6737C95.2411 41.9578 95.3448 42.1723 95.5522 42.3172C95.7596 42.4621 96.0238 42.5345 96.3448 42.5345Z" fill="white"/>
<path d="M92.7145 34.8091V43.5364H91.1719V34.8091H92.7145Z" fill="white"/>
<path d="M83.9219 43.5364V34.8091H85.4645V38.0733H85.5284C85.608 37.9142 85.7202 37.7452 85.8651 37.5662C86.0099 37.3844 86.206 37.2295 86.4531 37.1017C86.7003 36.971 87.0156 36.9057 87.3991 36.9057C87.9048 36.9057 88.3608 37.0349 88.767 37.2935C89.1761 37.5491 89.5 37.9284 89.7386 38.4312C89.9801 38.9312 90.1009 39.5449 90.1009 40.2722C90.1009 40.9909 89.983 41.6017 89.7472 42.1045C89.5114 42.6074 89.1903 42.9909 88.7841 43.2551C88.3778 43.5193 87.9176 43.6514 87.4034 43.6514C87.0284 43.6514 86.7173 43.5889 86.4702 43.4639C86.223 43.3389 86.0241 43.1883 85.8736 43.0122C85.7259 42.8332 85.6108 42.6642 85.5284 42.5051H85.4389V43.5364H83.9219ZM85.4347 40.2636C85.4347 40.6869 85.4943 41.0577 85.6136 41.3758C85.7358 41.694 85.9105 41.9426 86.1378 42.1216C86.3679 42.2977 86.6463 42.3858 86.973 42.3858C87.3139 42.3858 87.5994 42.2949 87.8295 42.1131C88.0597 41.9284 88.233 41.677 88.3494 41.3588C88.4688 41.0378 88.5284 40.6727 88.5284 40.2636C88.5284 39.8574 88.4702 39.4966 88.3537 39.1812C88.2372 38.8659 88.0639 38.6187 87.8338 38.4398C87.6037 38.2608 87.3168 38.1713 86.973 38.1713C86.6435 38.1713 86.3636 38.2579 86.1335 38.4312C85.9034 38.6045 85.7287 38.8474 85.6094 39.1599C85.4929 39.4724 85.4347 39.8403 85.4347 40.2636Z" fill="white"/>
<path d="M81.5626 43.6297C81.304 43.6297 81.0825 43.5388 80.8978 43.3569C80.7131 43.1751 80.6222 42.9535 80.6251 42.6922C80.6222 42.4365 80.7131 42.2177 80.8978 42.0359C81.0825 41.8541 81.304 41.7632 81.5626 41.7632C81.8126 41.7632 82.0299 41.8541 82.2146 42.0359C82.4021 42.2177 82.4972 42.4365 82.5001 42.6922C82.4972 42.8655 82.4518 43.0231 82.3637 43.1652C82.2785 43.3072 82.1648 43.4209 82.0228 43.5061C81.8836 43.5885 81.7302 43.6297 81.5626 43.6297Z" fill="white"/>
<path d="M76.7828 43.6638C76.1294 43.6638 75.5684 43.5203 75.0996 43.2334C74.6337 42.9465 74.2743 42.5502 74.0215 42.0445C73.7715 41.536 73.6465 40.9507 73.6465 40.2888C73.6465 39.624 73.7743 39.0374 74.03 38.5289C74.2857 38.0175 74.6465 37.6198 75.1124 37.3357C75.5811 37.0487 76.1351 36.9053 76.7743 36.9053C77.3056 36.9053 77.7757 37.0033 78.1848 37.1993C78.5968 37.3925 78.9249 37.6666 79.1692 38.0218C79.4135 38.374 79.5527 38.786 79.5868 39.2575H78.1124C78.0527 38.9422 77.9107 38.6794 77.6863 38.4692C77.4647 38.2561 77.1678 38.1496 76.7956 38.1496C76.4803 38.1496 76.2033 38.2348 75.9647 38.4053C75.726 38.5729 75.5399 38.8144 75.4064 39.1297C75.2757 39.445 75.2104 39.8229 75.2104 40.2632C75.2104 40.7093 75.2757 41.0928 75.4064 41.4138C75.5371 41.732 75.7203 41.9777 75.9561 42.151C76.1948 42.3215 76.4746 42.4067 76.7956 42.4067C77.0229 42.4067 77.226 42.3641 77.405 42.2789C77.5868 42.1908 77.7388 42.0644 77.861 41.8996C77.9831 41.7348 78.0669 41.5345 78.1124 41.2987H79.5868C79.5499 41.7618 79.4135 42.1723 79.1777 42.5303C78.9419 42.8854 78.6209 43.1638 78.2147 43.3655C77.8084 43.5644 77.3311 43.6638 76.7828 43.6638Z" fill="white"/>
<path d="M71.0392 43.5364V36.9909H72.5819V43.5364H71.0392ZM71.8148 36.0619C71.5705 36.0619 71.3603 35.981 71.1841 35.819C71.008 35.6543 70.9199 35.4568 70.9199 35.2267C70.9199 34.9937 71.008 34.7963 71.1841 34.6344C71.3603 34.4696 71.5705 34.3872 71.8148 34.3872C72.062 34.3872 72.2722 34.4696 72.4455 34.6344C72.6216 34.7963 72.7097 34.9937 72.7097 35.2267C72.7097 35.4568 72.6216 35.6543 72.4455 35.819C72.2722 35.981 72.062 36.0619 71.8148 36.0619Z" fill="white"/>
<path d="M60.5098 43.536V36.9905H61.9842V38.1027H62.0609C62.1973 37.7277 62.4231 37.4351 62.7385 37.2249C63.0538 37.0118 63.4302 36.9053 63.8677 36.9053C64.3109 36.9053 64.6845 37.0132 64.9885 37.2291C65.2953 37.4422 65.5112 37.7334 65.6362 38.1027H65.7044C65.8493 37.7391 66.0936 37.4493 66.4373 37.2334C66.7839 37.0146 67.1944 36.9053 67.6689 36.9053C68.2711 36.9053 68.7626 37.0956 69.1433 37.4763C69.524 37.857 69.7143 38.4124 69.7143 39.1425V43.536H68.1674V39.3811C68.1674 38.9749 68.0595 38.678 67.8436 38.4905C67.6277 38.3002 67.3635 38.205 67.051 38.205C66.6788 38.205 66.3876 38.3215 66.1774 38.5544C65.97 38.7845 65.8663 39.0843 65.8663 39.4536V43.536H64.3535V39.3172C64.3535 38.9791 64.2512 38.7093 64.0467 38.5075C63.845 38.3058 63.5808 38.205 63.2541 38.205C63.0325 38.205 62.8308 38.2618 62.649 38.3754C62.4672 38.4862 62.3223 38.6439 62.2143 38.8485C62.1064 39.0502 62.0524 39.286 62.0524 39.5558V43.536H60.5098Z" fill="white"/>
<path d="M56.3024 43.6638C55.6632 43.6638 55.1092 43.5232 54.6404 43.2419C54.1717 42.9607 53.8081 42.5672 53.5495 42.0615C53.2939 41.5558 53.166 40.9649 53.166 40.2888C53.166 39.6127 53.2939 39.0203 53.5495 38.5118C53.8081 38.0033 54.1717 37.6084 54.6404 37.3271C55.1092 37.0459 55.6632 36.9053 56.3024 36.9053C56.9416 36.9053 57.4956 37.0459 57.9643 37.3271C58.4331 37.6084 58.7953 38.0033 59.051 38.5118C59.3095 39.0203 59.4387 39.6127 59.4387 40.2888C59.4387 40.9649 59.3095 41.5558 59.051 42.0615C58.7953 42.5672 58.4331 42.9607 57.9643 43.2419C57.4956 43.5232 56.9416 43.6638 56.3024 43.6638ZM56.3109 42.428C56.6575 42.428 56.9473 42.3328 57.1802 42.1425C57.4132 41.9493 57.5865 41.6908 57.7001 41.3669C57.8166 41.0431 57.8748 40.6823 57.8748 40.2845C57.8748 39.884 57.8166 39.5218 57.7001 39.1979C57.5865 38.8712 57.4132 38.6112 57.1802 38.4181C56.9473 38.2249 56.6575 38.1283 56.3109 38.1283C55.9558 38.1283 55.6603 38.2249 55.4245 38.4181C55.1916 38.6112 55.0169 38.8712 54.9004 39.1979C54.7868 39.5218 54.7299 39.884 54.7299 40.2845C54.7299 40.6823 54.7868 41.0431 54.9004 41.3669C55.0169 41.6908 55.1916 41.9493 55.4245 42.1425C55.6603 42.3328 55.9558 42.428 56.3109 42.428Z" fill="white"/>
<path d="M52.4679 36.9905V38.1837H48.7051V36.9905H52.4679ZM49.6341 35.4224H51.1767V41.5672C51.1767 41.7746 51.2079 41.9337 51.2704 42.0445C51.3358 42.1525 51.421 42.2263 51.5261 42.2661C51.6312 42.3059 51.7477 42.3258 51.8755 42.3258C51.9721 42.3258 52.0602 42.3187 52.1397 42.3045C52.2221 42.2903 52.2846 42.2775 52.3272 42.2661L52.5872 43.4721C52.5048 43.5005 52.3869 43.5317 52.2335 43.5658C52.0829 43.5999 51.8983 43.6198 51.6795 43.6255C51.2931 43.6369 50.9451 43.5786 50.6355 43.4508C50.3258 43.3201 50.0801 43.1184 49.8983 42.8457C49.7193 42.5729 49.6312 42.232 49.6341 41.8229V35.4224Z" fill="white"/>
<path d="M44.4325 43.6681C44.0178 43.6681 43.6442 43.5942 43.3118 43.4465C42.9822 43.2959 42.7209 43.0743 42.5277 42.7817C42.3374 42.4891 42.2422 42.1283 42.2422 41.6993C42.2422 41.33 42.3104 41.0246 42.4467 40.7831C42.5831 40.5416 42.7692 40.3485 43.005 40.2036C43.2408 40.0587 43.5064 39.9493 43.8018 39.8754C44.1001 39.7987 44.4084 39.7433 44.7266 39.7093C45.1101 39.6695 45.4212 39.634 45.6598 39.6027C45.8984 39.5686 46.0717 39.5175 46.1797 39.4493C46.2905 39.3783 46.3459 39.2689 46.3459 39.1212V39.0956C46.3459 38.7746 46.2507 38.526 46.0604 38.3499C45.87 38.1737 45.5959 38.0857 45.2379 38.0857C44.8601 38.0857 44.5604 38.1681 44.3388 38.3328C44.12 38.4976 43.9723 38.6922 43.8956 38.9166L42.4553 38.7121C42.5689 38.3144 42.7564 37.982 43.0178 37.7149C43.2791 37.445 43.5987 37.2433 43.9766 37.1098C44.3544 36.9735 44.772 36.9053 45.2294 36.9053C45.5447 36.9053 45.8587 36.9422 46.1712 37.0161C46.4837 37.0899 46.7692 37.2121 47.0277 37.3825C47.2862 37.5502 47.4936 37.7789 47.6499 38.0686C47.8089 38.3584 47.8885 38.7206 47.8885 39.1553V43.536H46.4055V42.6368H46.3544C46.2607 42.8186 46.1286 42.9891 45.9581 43.1482C45.7905 43.3044 45.5788 43.4308 45.3232 43.5274C45.0703 43.6212 44.7734 43.6681 44.4325 43.6681ZM44.8331 42.5345C45.1428 42.5345 45.4112 42.4735 45.6385 42.3513C45.8658 42.2263 46.0405 42.0615 46.1626 41.857C46.2876 41.6524 46.3501 41.4294 46.3501 41.1879V40.4166C46.3018 40.4564 46.2195 40.4933 46.103 40.5274C45.9893 40.5615 45.8615 40.5914 45.7195 40.6169C45.5774 40.6425 45.4368 40.6652 45.2976 40.6851C45.1584 40.705 45.0376 40.722 44.9354 40.7362C44.7053 40.7675 44.4993 40.8186 44.3175 40.8896C44.1357 40.9607 43.9922 41.0601 43.8871 41.1879C43.782 41.3129 43.7294 41.4749 43.7294 41.6737C43.7294 41.9578 43.8331 42.1723 44.0405 42.3172C44.2479 42.4621 44.5121 42.5345 44.8331 42.5345Z" fill="white"/>
<path d="M36.2853 45.9821C35.3904 45.9821 34.595 45.86 33.899 45.6156C33.2058 45.3742 32.6206 45.0176 32.1433 44.546C31.666 44.0773 31.3038 43.5048 31.0566 42.8287C30.8095 42.1526 30.6845 41.3798 30.6816 40.5105C30.6845 39.6611 30.8109 38.8955 31.0609 38.2136C31.3109 37.529 31.676 36.9438 32.1561 36.458C32.6362 35.9693 33.2228 35.5943 33.916 35.333C34.6092 35.0716 35.3976 34.9409 36.2811 34.9409C37.1135 34.9409 37.8507 35.0673 38.4927 35.3202C39.1376 35.573 39.6816 35.9253 40.1248 36.377C40.5708 36.8259 40.9075 37.3514 41.1348 37.9537C41.3649 38.5531 41.4799 39.2037 41.4799 39.9054C41.4799 40.3912 41.443 40.8514 41.3691 41.2861C41.2953 41.7179 41.1689 42.1014 40.9899 42.4367C40.8137 42.7719 40.5737 43.0389 40.2697 43.2378C39.9657 43.4338 39.5851 43.5404 39.1277 43.5574C38.8407 43.5716 38.5893 43.5446 38.3734 43.4764C38.1575 43.4082 37.9828 43.3017 37.8493 43.1568C37.7186 43.0091 37.6362 42.8287 37.6021 42.6156H37.551C37.4856 42.7861 37.362 42.9423 37.1802 43.0844C37.0012 43.2236 36.7797 43.333 36.5154 43.4125C36.2512 43.4892 35.9572 43.5205 35.6333 43.5063C35.2868 43.4892 34.9657 43.4097 34.6703 43.2676C34.3777 43.1227 34.122 42.921 33.9032 42.6625C33.6873 42.4011 33.5197 42.0858 33.4004 41.7165C33.2811 41.3472 33.2214 40.9281 33.2214 40.4594C33.2214 40.002 33.2868 39.5986 33.4174 39.2492C33.5481 38.8997 33.7228 38.6014 33.9416 38.3543C34.1632 38.1071 34.4132 37.9139 34.6916 37.7747C34.97 37.6327 35.2569 37.5418 35.5524 37.502C35.8592 37.4594 36.1476 37.4636 36.4174 37.5148C36.6873 37.5659 36.9118 37.644 37.0907 37.7492C37.2725 37.8543 37.3862 37.9693 37.4316 38.0943H37.4913V37.6171H38.6802V41.6739C38.6831 41.8869 38.7342 42.0588 38.8336 42.1895C38.9359 42.3202 39.0779 42.3855 39.2598 42.3855C39.487 42.3855 39.6703 42.296 39.8095 42.1171C39.9515 41.9352 40.0538 41.6568 40.1163 41.2818C40.1816 40.904 40.2129 40.421 40.21 39.833C40.2129 39.35 40.149 38.9125 40.0183 38.5205C39.8904 38.1256 39.7086 37.779 39.4728 37.4807C39.237 37.1824 38.9544 36.9338 38.6248 36.735C38.2981 36.5332 37.9345 36.3813 37.5339 36.279C37.1333 36.1767 36.7058 36.1256 36.2512 36.1256C35.5552 36.1256 34.943 36.2321 34.4146 36.4452C33.8862 36.6554 33.443 36.9551 33.0851 37.3443C32.7299 37.7335 32.4615 38.1952 32.2797 38.7293C32.1007 39.2605 32.0112 39.8486 32.0112 40.4935C32.0112 41.1838 32.1049 41.796 32.2924 42.3301C32.4828 42.8614 32.7612 43.3088 33.1277 43.6725C33.4941 44.0361 33.9473 44.3117 34.487 44.4992C35.0297 44.6867 35.6532 44.7804 36.3578 44.7804C36.6816 44.7804 36.9984 44.7548 37.3081 44.7037C37.6177 44.6526 37.8961 44.5929 38.1433 44.5247C38.3904 44.4565 38.5808 44.3969 38.7143 44.3457L39.0765 45.4281C38.9004 45.519 38.6618 45.6071 38.3606 45.6923C38.0623 45.7776 37.7328 45.8472 37.372 45.9011C37.014 45.9551 36.6518 45.9821 36.2853 45.9821ZM35.987 42.2832C36.3478 42.2832 36.6362 42.2136 36.8521 42.0744C37.068 41.9324 37.2228 41.7222 37.3166 41.4438C37.4103 41.1654 37.4558 40.8188 37.4529 40.404C37.4529 40.0176 37.4047 39.7009 37.3081 39.4537C37.2115 39.2065 37.0566 39.0233 36.8436 38.904C36.6305 38.7847 36.3478 38.725 35.9956 38.725C35.6774 38.725 35.4061 38.7975 35.1816 38.9423C34.9601 39.0872 34.7896 39.2875 34.6703 39.5432C34.5538 39.796 34.4956 40.0844 34.4956 40.4082C34.4956 40.7321 34.5424 41.0375 34.6362 41.3244C34.7328 41.6085 34.889 41.8401 35.1049 42.019C35.3237 42.1952 35.6177 42.2832 35.987 42.2832Z" fill="white"/>
<path d="M27.9123 43.5364V36.9909H29.4549V43.5364H27.9123ZM28.6879 36.0619C28.4435 36.0619 28.2333 35.981 28.0572 35.819C27.881 35.6543 27.793 35.4568 27.793 35.2267C27.793 34.9937 27.881 34.7963 28.0572 34.6344C28.2333 34.4696 28.4435 34.3872 28.6879 34.3872C28.935 34.3872 29.1452 34.4696 29.3185 34.6344C29.4947 34.7963 29.5827 34.9937 29.5827 35.2267C29.5827 35.4568 29.4947 35.6543 29.3185 35.819C29.1452 35.981 28.935 36.0619 28.6879 36.0619Z" fill="white"/>
<path d="M22.3356 39.7011V43.5364H20.793V34.8091H22.3015V38.1031H22.3782C22.5316 37.7338 22.7688 37.4426 23.0898 37.2295C23.4137 37.0136 23.8256 36.9057 24.3256 36.9057C24.7802 36.9057 25.1765 37.0008 25.5146 37.1912C25.8526 37.3815 26.114 37.6599 26.2987 38.0264C26.4862 38.3929 26.5799 38.8403 26.5799 39.3687V43.5364H25.0373V39.6074C25.0373 39.167 24.9237 38.8247 24.6964 38.5804C24.4719 38.3332 24.1566 38.2097 23.7504 38.2097C23.4776 38.2097 23.2333 38.2693 23.0174 38.3886C22.8043 38.5051 22.6367 38.6741 22.5146 38.8957C22.3952 39.1173 22.3356 39.3858 22.3356 39.7011Z" fill="white"/>
<path d="M60.6966 29.788C60.5024 29.788 60.3355 29.7193 60.1958 29.582C60.0562 29.4423 59.9863 29.2742 59.9863 29.0777C59.9863 28.8836 60.0562 28.7179 60.1958 28.5806C60.3355 28.4409 60.5024 28.371 60.6966 28.371C60.8907 28.371 61.0576 28.4409 61.1973 28.5806C61.3369 28.7179 61.4068 28.8836 61.4068 29.0777C61.4068 29.2079 61.3736 29.3275 61.3074 29.4364C61.2434 29.5429 61.1582 29.6282 61.0517 29.6921C60.9451 29.756 60.8268 29.788 60.6966 29.788ZM60.6966 25.8178C60.5024 25.8178 60.3355 25.7479 60.1958 25.6083C60.0562 25.4686 59.9863 25.3017 59.9863 25.1076C59.9863 24.9134 60.0562 24.7477 60.1958 24.6104C60.3355 24.4707 60.5024 24.4009 60.6966 24.4009C60.8907 24.4009 61.0576 24.4707 61.1973 24.6104C61.3369 24.7477 61.4068 24.9134 61.4068 25.1076C61.4068 25.2378 61.3736 25.3573 61.3074 25.4662C61.2434 25.5728 61.1582 25.658 61.0517 25.7219C60.9451 25.7858 60.8268 25.8178 60.6966 25.8178Z" fill="white"/>
<path d="M56.4703 29.831C55.959 29.831 55.5127 29.7138 55.1316 29.4794C54.7504 29.245 54.4545 28.9171 54.2438 28.4957C54.0331 28.0743 53.9277 27.5819 53.9277 27.0185C53.9277 26.4527 54.0331 25.9579 54.2438 25.5341C54.4545 25.1103 54.7504 24.7812 55.1316 24.5469C55.5127 24.3125 55.959 24.1953 56.4703 24.1953C56.9817 24.1953 57.428 24.3125 57.8091 24.5469C58.1903 24.7812 58.4862 25.1103 58.6969 25.5341C58.9076 25.9579 59.013 26.4527 59.013 27.0185C59.013 27.5819 58.9076 28.0743 58.6969 28.4957C58.4862 28.9171 58.1903 29.245 57.8091 29.4794C57.428 29.7138 56.9817 29.831 56.4703 29.831ZM56.4739 28.9396C56.8053 28.9396 57.08 28.852 57.2978 28.6768C57.5156 28.5017 57.6765 28.2685 57.7807 27.9773C57.8873 27.6861 57.9405 27.3653 57.9405 27.0149C57.9405 26.6669 57.8873 26.3473 57.7807 26.0561C57.6765 25.7625 57.5156 25.527 57.2978 25.3494C57.08 25.1719 56.8053 25.0831 56.4739 25.0831C56.1401 25.0831 55.8631 25.1719 55.6429 25.3494C55.4251 25.527 55.263 25.7625 55.1564 26.0561C55.0523 26.3473 55.0002 26.6669 55.0002 27.0149C55.0002 27.3653 55.0523 27.6861 55.1564 27.9773C55.263 28.2685 55.4251 28.5017 55.6429 28.6768C55.8631 28.852 56.1401 28.9396 56.4739 28.9396Z" fill="white"/>
<path d="M53.2567 24.2663V25.1186H50.2773V24.2663H53.2567ZM51.0763 22.9595H52.1381V28.1193C52.1381 28.3252 52.1689 28.4803 52.2305 28.5845C52.292 28.6863 52.3713 28.7561 52.4684 28.794C52.5678 28.8295 52.6755 28.8473 52.7915 28.8473C52.8768 28.8473 52.9513 28.8413 53.0153 28.8295C53.0792 28.8177 53.1289 28.8082 53.1644 28.8011L53.3562 29.6782C53.2946 29.7019 53.207 29.7256 53.0934 29.7492C52.9798 29.7753 52.8377 29.7895 52.6673 29.7919C52.3879 29.7966 52.1275 29.7469 51.886 29.6427C51.6445 29.5385 51.4492 29.3776 51.3001 29.1598C51.1509 28.942 51.0763 28.6685 51.0763 28.3394V22.9595Z" fill="white"/>
<path d="M45.9728 29.7207V24.2661H47.0346V29.7207H45.9728ZM46.5091 23.4245C46.3244 23.4245 46.1658 23.3629 46.0332 23.2398C45.903 23.1144 45.8379 22.9652 45.8379 22.7924C45.8379 22.6172 45.903 22.4681 46.0332 22.3449C46.1658 22.2195 46.3244 22.1567 46.5091 22.1567C46.6937 22.1567 46.8511 22.2195 46.9814 22.3449C47.1139 22.4681 47.1802 22.6172 47.1802 22.7924C47.1802 22.9652 47.1139 23.1144 46.9814 23.2398C46.8511 23.3629 46.6937 23.4245 46.5091 23.4245Z" fill="white"/>
<path d="M41.22 26.4818V29.7205H40.1582V22.4478H41.2058V25.1537H41.2733C41.4011 24.8602 41.5964 24.627 41.8592 24.4541C42.122 24.2813 42.4653 24.1949 42.889 24.1949C43.2631 24.1949 43.5898 24.2719 43.8691 24.4257C44.1509 24.5796 44.3687 24.8093 44.5226 25.1147C44.6788 25.4177 44.7569 25.7965 44.7569 26.251V29.7205H43.6951V26.3789C43.6951 25.9788 43.5922 25.6686 43.3862 25.4485C43.1802 25.2259 42.8938 25.1147 42.5268 25.1147C42.2759 25.1147 42.051 25.1679 41.8521 25.2745C41.6556 25.381 41.5005 25.5372 41.3869 25.7432C41.2756 25.9468 41.22 26.193 41.22 26.4818Z" fill="white"/>
<path d="M32.9192 31.7661C32.7606 31.7661 32.6162 31.7531 32.486 31.7271C32.3558 31.7034 32.2587 31.6773 32.1948 31.6489L32.4505 30.7789C32.6446 30.831 32.8174 30.8535 32.9689 30.8464C33.1204 30.8393 33.2542 30.7824 33.3702 30.6759C33.4886 30.5694 33.5927 30.3954 33.6827 30.1539L33.8141 29.7917L31.8184 24.2661H32.9547L34.3361 28.4991H34.3929L35.7743 24.2661H36.9142L34.6664 30.4486C34.5622 30.7327 34.4296 30.973 34.2686 31.1695C34.1077 31.3684 33.9159 31.5175 33.6934 31.617C33.4708 31.7164 33.2128 31.7661 32.9192 31.7661Z" fill="white"/>
<path d="M28.5364 29.8416C28.1908 29.8416 27.8783 29.7777 27.5989 29.6499C27.3195 29.5196 27.0982 29.3314 26.9348 29.0852C26.7739 28.839 26.6934 28.5372 26.6934 28.1797C26.6934 27.8719 26.7525 27.6186 26.8709 27.4197C26.9893 27.2209 27.1491 27.0634 27.3503 26.9474C27.5516 26.8314 27.7765 26.7438 28.025 26.6847C28.2736 26.6255 28.5269 26.5805 28.785 26.5497C29.1117 26.5118 29.3768 26.4811 29.5804 26.4574C29.784 26.4313 29.932 26.3899 30.0243 26.3331C30.1167 26.2763 30.1628 26.1839 30.1628 26.0561V26.0312C30.1628 25.7211 30.0752 25.4808 29.9 25.3104C29.7272 25.1399 29.4692 25.0547 29.1259 25.0547C28.7684 25.0547 28.4867 25.134 28.2807 25.2926C28.0771 25.4489 27.9363 25.6229 27.8581 25.8146L26.8603 25.5874C26.9786 25.2559 27.1515 24.9884 27.3787 24.7848C27.6084 24.5788 27.8723 24.4297 28.1706 24.3374C28.4689 24.2427 28.7826 24.1953 29.1117 24.1953C29.3295 24.1953 29.5603 24.2214 29.8042 24.2734C30.0504 24.3232 30.28 24.4155 30.4931 24.5504C30.7085 24.6854 30.8849 24.8783 31.0222 25.1293C31.1595 25.3778 31.2282 25.701 31.2282 26.0987V29.7209H30.1912V28.9751H30.1486C30.08 29.1125 29.977 29.2474 29.8397 29.38C29.7024 29.5125 29.526 29.6226 29.3105 29.7102C29.0951 29.7978 28.8371 29.8416 28.5364 29.8416ZM28.7672 28.9893C29.0608 28.9893 29.3117 28.9313 29.5201 28.8153C29.7308 28.6993 29.8906 28.5478 29.9995 28.3608C30.1107 28.1714 30.1664 27.969 30.1664 27.7536V27.0504C30.1285 27.0883 30.0551 27.1238 29.9462 27.157C29.8397 27.1877 29.7177 27.215 29.5804 27.2386C29.4431 27.2599 29.3094 27.2801 29.1792 27.299C29.0489 27.3156 28.94 27.3298 28.8525 27.3416C28.6465 27.3677 28.4583 27.4115 28.2878 27.473C28.1197 27.5346 27.9848 27.6233 27.883 27.7393C27.7836 27.853 27.7338 28.0045 27.7338 28.1939C27.7338 28.4567 27.8309 28.6555 28.025 28.7905C28.2192 28.9231 28.4666 28.9893 28.7672 28.9893Z" fill="white"/>
<path d="M24.766 24.3586C24.7281 24.0224 24.5719 23.762 24.2972 23.5773C24.0226 23.3903 23.677 23.2968 23.2603 23.2968C22.962 23.2968 22.704 23.3441 22.4862 23.4388C22.2683 23.5312 22.0991 23.659 21.9783 23.8224C21.86 23.9833 21.8008 24.1668 21.8008 24.3728C21.8008 24.5456 21.841 24.6948 21.9215 24.8202C22.0044 24.9457 22.1121 25.051 22.2447 25.1363C22.3796 25.2191 22.524 25.289 22.6779 25.3458C22.8318 25.4002 22.9798 25.4452 23.1218 25.4807L23.832 25.6654C24.064 25.7222 24.302 25.7992 24.5458 25.8962C24.7897 25.9933 25.0157 26.1211 25.2241 26.2797C25.4324 26.4384 25.6005 26.6349 25.7283 26.8692C25.8585 27.1036 25.9237 27.3841 25.9237 27.7108C25.9237 28.1228 25.8171 28.4885 25.604 28.8081C25.3933 29.1278 25.0868 29.3799 24.6843 29.5645C24.2842 29.7492 23.8001 29.8415 23.2319 29.8415C22.6874 29.8415 22.2163 29.7551 21.8185 29.5823C21.4208 29.4095 21.1095 29.1644 20.8846 28.8472C20.6597 28.5276 20.5354 28.1488 20.5117 27.7108H21.6126C21.6339 27.9736 21.7191 28.1926 21.8683 28.3678C22.0198 28.5406 22.2127 28.6697 22.4471 28.7549C22.6838 28.8377 22.9431 28.8792 23.2248 28.8792C23.5349 28.8792 23.8107 28.8306 24.0522 28.7336C24.296 28.6341 24.4878 28.4968 24.6275 28.3216C24.7672 28.1441 24.837 27.9369 24.837 27.7002C24.837 27.4848 24.7755 27.3084 24.6523 27.1711C24.5316 27.0338 24.3671 26.9201 24.1587 26.8302C23.9528 26.7402 23.7196 26.6609 23.4592 26.5922L22.5998 26.3579C22.0174 26.1992 21.5558 25.9661 21.2148 25.6583C20.8763 25.3505 20.707 24.9433 20.707 24.4367C20.707 24.0177 20.8207 23.6519 21.0479 23.3394C21.2752 23.0269 21.583 22.7842 21.9712 22.6114C22.3595 22.4362 22.7975 22.3486 23.2852 22.3486C23.7776 22.3486 24.212 22.435 24.5884 22.6079C24.9672 22.7807 25.2655 23.0186 25.4833 23.3216C25.7011 23.6223 25.8147 23.968 25.8242 24.3586H24.766Z" fill="white"/>
<path opacity="0.7" d="M295.338 130.542V137.815H294.053V130.542H295.338Z" fill="white"/>
<path opacity="0.7" d="M290.081 137.926C289.735 137.926 289.424 137.864 289.147 137.741C288.873 137.616 288.655 137.431 288.494 137.187C288.335 136.943 288.256 136.643 288.256 136.285C288.256 135.977 288.313 135.723 288.426 135.522C288.54 135.32 288.695 135.159 288.892 135.039C289.088 134.918 289.309 134.827 289.556 134.765C289.804 134.701 290.061 134.655 290.326 134.627C290.646 134.594 290.905 134.564 291.104 134.538C291.303 134.509 291.447 134.467 291.537 134.41C291.629 134.351 291.676 134.26 291.676 134.137V134.115C291.676 133.848 291.596 133.641 291.438 133.494C291.279 133.347 291.051 133.274 290.752 133.274C290.437 133.274 290.188 133.342 290.003 133.48C289.821 133.617 289.698 133.779 289.634 133.966L288.433 133.796C288.528 133.464 288.684 133.187 288.902 132.965C289.12 132.74 289.386 132.572 289.701 132.46C290.016 132.347 290.364 132.29 290.745 132.29C291.008 132.29 291.27 132.321 291.53 132.382C291.79 132.444 292.028 132.546 292.244 132.688C292.459 132.827 292.632 133.018 292.762 133.259C292.895 133.501 292.961 133.803 292.961 134.165V137.816H291.725V137.066H291.683C291.605 137.218 291.494 137.36 291.352 137.492C291.213 137.623 291.036 137.728 290.823 137.809C290.613 137.887 290.365 137.926 290.081 137.926ZM290.415 136.981C290.673 136.981 290.897 136.93 291.086 136.828C291.276 136.724 291.421 136.587 291.523 136.416C291.627 136.246 291.679 136.06 291.679 135.859V135.216C291.639 135.249 291.57 135.28 291.473 135.309C291.378 135.337 291.272 135.362 291.154 135.383C291.035 135.404 290.918 135.423 290.802 135.44C290.686 135.456 290.585 135.471 290.5 135.483C290.308 135.509 290.137 135.551 289.985 135.61C289.834 135.67 289.714 135.752 289.627 135.859C289.539 135.963 289.495 136.098 289.495 136.264C289.495 136.501 289.582 136.679 289.754 136.8C289.927 136.921 290.147 136.981 290.415 136.981Z" fill="white"/>
<path opacity="0.7" d="M283.903 134.62V137.816H282.617V132.361H283.846V133.288H283.91C284.035 132.983 284.235 132.74 284.51 132.56C284.787 132.38 285.129 132.29 285.536 132.29C285.913 132.29 286.241 132.371 286.52 132.532C286.802 132.693 287.019 132.926 287.173 133.231C287.33 133.536 287.406 133.907 287.404 134.343V137.816H286.119V134.541C286.119 134.177 286.024 133.892 285.835 133.686C285.647 133.48 285.388 133.377 285.057 133.377C284.832 133.377 284.632 133.426 284.457 133.526C284.284 133.623 284.148 133.764 284.048 133.948C283.951 134.133 283.903 134.357 283.903 134.62Z" fill="white"/>
<path opacity="0.7" d="M279.112 137.922C278.579 137.922 278.117 137.805 277.727 137.571C277.336 137.336 277.033 137.008 276.818 136.587C276.605 136.166 276.498 135.673 276.498 135.11C276.498 134.546 276.605 134.053 276.818 133.629C277.033 133.205 277.336 132.876 277.727 132.642C278.117 132.407 278.579 132.29 279.112 132.29C279.644 132.29 280.106 132.407 280.497 132.642C280.887 132.876 281.189 133.205 281.402 133.629C281.618 134.053 281.725 134.546 281.725 135.11C281.725 135.673 281.618 136.166 281.402 136.587C281.189 137.008 280.887 137.336 280.497 137.571C280.106 137.805 279.644 137.922 279.112 137.922ZM279.119 136.892C279.408 136.892 279.649 136.813 279.843 136.654C280.037 136.493 280.182 136.278 280.276 136.008C280.374 135.738 280.422 135.438 280.422 135.106C280.422 134.772 280.374 134.47 280.276 134.201C280.182 133.928 280.037 133.712 279.843 133.551C279.649 133.39 279.408 133.309 279.119 133.309C278.823 133.309 278.577 133.39 278.38 133.551C278.186 133.712 278.04 133.928 277.943 134.201C277.849 134.47 277.801 134.772 277.801 135.106C277.801 135.438 277.849 135.738 277.943 136.008C278.04 136.278 278.186 136.493 278.38 136.654C278.577 136.813 278.823 136.892 279.119 136.892Z" fill="white"/>
<path opacity="0.7" d="M274.326 137.815V132.361H275.612V137.815H274.326ZM274.972 131.587C274.769 131.587 274.594 131.519 274.447 131.384C274.3 131.247 274.227 131.082 274.227 130.89C274.227 130.696 274.3 130.532 274.447 130.397C274.594 130.26 274.769 130.191 274.972 130.191C275.178 130.191 275.353 130.26 275.498 130.397C275.645 130.532 275.718 130.696 275.718 130.89C275.718 131.082 275.645 131.247 275.498 131.384C275.353 131.519 275.178 131.587 274.972 131.587Z" fill="white"/>
<path opacity="0.7" d="M273.349 133.803L272.178 133.931C272.144 133.812 272.086 133.701 272.004 133.597C271.923 133.493 271.814 133.409 271.677 133.345C271.54 133.281 271.371 133.249 271.173 133.249C270.905 133.249 270.68 133.307 270.498 133.423C270.318 133.539 270.229 133.689 270.232 133.874C270.229 134.032 270.287 134.161 270.406 134.261C270.526 134.36 270.725 134.442 271.002 134.506L271.933 134.705C272.449 134.816 272.832 134.992 273.083 135.234C273.336 135.475 273.464 135.791 273.467 136.182C273.464 136.525 273.364 136.828 273.165 137.091C272.968 137.352 272.695 137.555 272.344 137.702C271.994 137.849 271.592 137.922 271.137 137.922C270.469 137.922 269.932 137.782 269.525 137.503C269.118 137.221 268.875 136.83 268.797 136.328L270.05 136.207C270.107 136.453 270.228 136.639 270.413 136.764C270.597 136.89 270.838 136.953 271.134 136.953C271.439 136.953 271.684 136.89 271.869 136.764C272.056 136.639 272.149 136.484 272.149 136.299C272.149 136.143 272.089 136.014 271.968 135.912C271.85 135.81 271.665 135.732 271.414 135.678L270.484 135.483C269.96 135.374 269.573 135.19 269.322 134.932C269.071 134.672 268.947 134.343 268.95 133.945C268.947 133.609 269.038 133.318 269.223 133.071C269.41 132.823 269.669 132.631 270.001 132.496C270.335 132.359 270.719 132.29 271.155 132.29C271.794 132.29 272.297 132.426 272.664 132.698C273.033 132.971 273.262 133.339 273.349 133.803Z" fill="white"/>
<path opacity="0.7" d="M268.06 133.803L266.888 133.931C266.855 133.812 266.797 133.701 266.714 133.597C266.634 133.493 266.525 133.409 266.388 133.345C266.25 133.281 266.082 133.249 265.884 133.249C265.616 133.249 265.391 133.307 265.209 133.423C265.029 133.539 264.94 133.689 264.942 133.874C264.94 134.032 264.998 134.161 265.116 134.261C265.237 134.36 265.436 134.442 265.713 134.506L266.643 134.705C267.16 134.816 267.543 134.992 267.794 135.234C268.047 135.475 268.175 135.791 268.178 136.182C268.175 136.525 268.075 136.828 267.876 137.091C267.679 137.352 267.406 137.555 267.055 137.702C266.705 137.849 266.303 137.922 265.848 137.922C265.18 137.922 264.643 137.782 264.236 137.503C263.829 137.221 263.586 136.83 263.508 136.328L264.761 136.207C264.818 136.453 264.939 136.639 265.124 136.764C265.308 136.89 265.549 136.953 265.844 136.953C266.15 136.953 266.395 136.89 266.58 136.764C266.767 136.639 266.86 136.484 266.86 136.299C266.86 136.143 266.8 136.014 266.679 135.912C266.561 135.81 266.376 135.732 266.125 135.678L265.195 135.483C264.671 135.374 264.284 135.19 264.033 134.932C263.782 134.672 263.658 134.343 263.661 133.945C263.658 133.609 263.749 133.318 263.934 133.071C264.121 132.823 264.38 132.631 264.712 132.496C265.045 132.359 265.43 132.29 265.866 132.29C266.505 132.29 267.008 132.426 267.375 132.698C267.744 132.971 267.973 133.339 268.06 133.803Z" fill="white"/>
<path opacity="0.7" d="M260.436 137.922C259.889 137.922 259.417 137.809 259.019 137.581C258.624 137.352 258.32 137.027 258.107 136.608C257.894 136.187 257.787 135.691 257.787 135.12C257.787 134.559 257.894 134.067 258.107 133.643C258.322 133.217 258.623 132.885 259.009 132.649C259.395 132.41 259.848 132.29 260.369 132.29C260.705 132.29 261.022 132.344 261.32 132.453C261.621 132.56 261.886 132.726 262.116 132.951C262.348 133.175 262.53 133.462 262.663 133.81C262.795 134.156 262.862 134.568 262.862 135.046V135.44H258.391V134.573H261.629C261.627 134.327 261.574 134.108 261.47 133.916C261.365 133.722 261.22 133.57 261.033 133.458C260.848 133.347 260.633 133.291 260.387 133.291C260.124 133.291 259.893 133.355 259.694 133.483C259.495 133.609 259.34 133.774 259.229 133.98C259.12 134.184 259.064 134.408 259.062 134.652V135.408C259.062 135.725 259.12 135.997 259.236 136.225C259.352 136.45 259.514 136.622 259.722 136.743C259.931 136.862 260.175 136.921 260.454 136.921C260.641 136.921 260.81 136.895 260.962 136.843C261.113 136.788 261.245 136.709 261.356 136.605C261.467 136.501 261.551 136.371 261.608 136.218L262.808 136.353C262.733 136.67 262.588 136.947 262.375 137.184C262.164 137.418 261.895 137.6 261.566 137.73C261.236 137.858 260.86 137.922 260.436 137.922Z" fill="white"/>
<path opacity="0.7" d="M257.42 132.361V133.355H254.195V132.361H257.42ZM255.001 137.815V131.846C255.001 131.479 255.077 131.173 255.229 130.93C255.383 130.686 255.589 130.504 255.847 130.383C256.105 130.262 256.391 130.202 256.706 130.202C256.929 130.202 257.126 130.219 257.299 130.255C257.472 130.29 257.6 130.322 257.683 130.351L257.427 131.345C257.372 131.329 257.304 131.312 257.221 131.295C257.138 131.276 257.046 131.267 256.944 131.267C256.705 131.267 256.536 131.325 256.436 131.441C256.339 131.555 256.29 131.718 256.29 131.931V137.815H255.001Z" fill="white"/>
<path opacity="0.7" d="M251.153 137.922C250.62 137.922 250.158 137.805 249.768 137.571C249.377 137.336 249.074 137.008 248.859 136.587C248.646 136.166 248.539 135.673 248.539 135.11C248.539 134.546 248.646 134.053 248.859 133.629C249.074 133.205 249.377 132.876 249.768 132.642C250.158 132.407 250.62 132.29 251.153 132.29C251.685 132.29 252.147 132.407 252.538 132.642C252.928 132.876 253.23 133.205 253.443 133.629C253.659 134.053 253.766 134.546 253.766 135.11C253.766 135.673 253.659 136.166 253.443 136.587C253.23 137.008 252.928 137.336 252.538 137.571C252.147 137.805 251.685 137.922 251.153 137.922ZM251.16 136.892C251.449 136.892 251.69 136.813 251.884 136.654C252.078 136.493 252.223 136.278 252.317 136.008C252.415 135.738 252.463 135.438 252.463 135.106C252.463 134.772 252.415 134.47 252.317 134.201C252.223 133.928 252.078 133.712 251.884 133.551C251.69 133.39 251.449 133.309 251.16 133.309C250.864 133.309 250.618 133.39 250.421 133.551C250.227 133.712 250.081 133.928 249.984 134.201C249.89 134.47 249.842 134.772 249.842 135.106C249.842 135.438 249.89 135.738 249.984 136.008C250.081 136.278 250.227 136.493 250.421 136.654C250.618 136.813 250.864 136.892 251.16 136.892Z" fill="white"/>
<path opacity="0.7" d="M245.232 137.815V132.361H246.479V133.27H246.536C246.635 132.955 246.806 132.712 247.047 132.542C247.291 132.369 247.569 132.283 247.882 132.283C247.953 132.283 248.032 132.286 248.119 132.293C248.209 132.298 248.284 132.306 248.343 132.318V133.501C248.289 133.482 248.202 133.465 248.084 133.451C247.968 133.434 247.856 133.426 247.747 133.426C247.512 133.426 247.302 133.477 247.115 133.579C246.93 133.678 246.784 133.817 246.678 133.994C246.571 134.172 246.518 134.377 246.518 134.609V137.815H245.232Z" fill="white"/>
<path opacity="0.7" d="M239.055 137.815V130.542H241.782C242.341 130.542 242.809 130.647 243.188 130.855C243.569 131.063 243.857 131.35 244.051 131.714C244.248 132.077 244.346 132.489 244.346 132.95C244.346 133.417 244.248 133.831 244.051 134.193C243.855 134.555 243.565 134.841 243.181 135.049C242.798 135.255 242.325 135.358 241.764 135.358H239.957V134.275H241.587C241.913 134.275 242.181 134.218 242.389 134.104C242.598 133.991 242.751 133.834 242.851 133.636C242.953 133.437 243.004 133.208 243.004 132.95C243.004 132.692 242.953 132.465 242.851 132.268C242.751 132.072 242.596 131.919 242.386 131.81C242.177 131.699 241.909 131.643 241.58 131.643H240.372V137.815H239.055Z" fill="white"/>
<path d="M295.419 116.364V117.756H291.029V116.364H295.419ZM292.113 114.534H293.913V121.703C293.913 121.945 293.949 122.131 294.022 122.26C294.098 122.386 294.198 122.472 294.32 122.519C294.443 122.565 294.579 122.588 294.728 122.588C294.841 122.588 294.944 122.58 295.036 122.563C295.133 122.547 295.205 122.532 295.255 122.519L295.558 123.926C295.462 123.959 295.325 123.995 295.146 124.035C294.97 124.075 294.755 124.098 294.499 124.104C294.049 124.118 293.643 124.05 293.281 123.901C292.92 123.748 292.633 123.513 292.421 123.195C292.213 122.877 292.11 122.479 292.113 122.002V114.534Z" fill="white"/>
<path d="M288.237 124V116.364H290.037V124H288.237ZM289.142 115.28C288.857 115.28 288.611 115.186 288.406 114.997C288.2 114.804 288.098 114.574 288.098 114.306C288.098 114.034 288.2 113.803 288.406 113.615C288.611 113.422 288.857 113.326 289.142 113.326C289.43 113.326 289.675 113.422 289.877 113.615C290.083 113.803 290.186 114.034 290.186 114.306C290.186 114.574 290.083 114.804 289.877 114.997C289.675 115.186 289.43 115.28 289.142 115.28Z" fill="white"/>
<path d="M280.406 124.149C279.64 124.149 278.979 123.99 278.422 123.672C277.869 123.35 277.443 122.896 277.145 122.31C276.846 121.72 276.697 121.025 276.697 120.227C276.697 119.441 276.846 118.752 277.145 118.158C277.446 117.562 277.867 117.098 278.407 116.766C278.948 116.432 279.582 116.264 280.312 116.264C280.782 116.264 281.226 116.34 281.644 116.493C282.065 116.642 282.436 116.874 282.758 117.189C283.082 117.504 283.338 117.905 283.523 118.392C283.709 118.876 283.802 119.453 283.802 120.122V120.674H277.542V119.461H282.077C282.073 119.116 281.999 118.81 281.853 118.541C281.707 118.269 281.503 118.056 281.241 117.9C280.983 117.744 280.681 117.666 280.336 117.666C279.969 117.666 279.645 117.756 279.367 117.935C279.089 118.11 278.872 118.342 278.716 118.631C278.563 118.916 278.485 119.229 278.482 119.57V120.629C278.482 121.073 278.563 121.455 278.726 121.773C278.888 122.088 279.115 122.33 279.407 122.499C279.698 122.664 280.04 122.747 280.431 122.747C280.693 122.747 280.93 122.711 281.142 122.638C281.354 122.562 281.538 122.45 281.694 122.305C281.849 122.159 281.967 121.978 282.047 121.763L283.727 121.952C283.621 122.396 283.419 122.784 283.121 123.115C282.826 123.443 282.448 123.698 281.987 123.881C281.526 124.06 280.999 124.149 280.406 124.149Z" fill="white"/>
<path d="M271.289 121.604L271.284 119.431H271.572L274.317 116.364H276.42L273.044 120.122H272.671L271.289 121.604ZM269.648 124V113.818H271.448V124H269.648ZM274.441 124L271.955 120.525L273.168 119.257L276.594 124H274.441Z" fill="white"/>
<path d="M264.087 124.154C263.603 124.154 263.167 124.068 262.779 123.896C262.395 123.72 262.09 123.461 261.864 123.12C261.642 122.779 261.531 122.358 261.531 121.857C261.531 121.426 261.611 121.07 261.77 120.788C261.929 120.507 262.146 120.281 262.421 120.112C262.696 119.943 263.006 119.816 263.351 119.729C263.699 119.64 264.058 119.575 264.43 119.535C264.877 119.489 265.24 119.448 265.518 119.411C265.797 119.371 265.999 119.312 266.125 119.232C266.254 119.149 266.319 119.022 266.319 118.849V118.82C266.319 118.445 266.208 118.155 265.986 117.95C265.764 117.744 265.444 117.641 265.026 117.641C264.585 117.641 264.236 117.737 263.977 117.93C263.722 118.122 263.55 118.349 263.46 118.611L261.78 118.372C261.912 117.908 262.131 117.52 262.436 117.209C262.741 116.894 263.114 116.659 263.555 116.503C263.996 116.344 264.483 116.264 265.016 116.264C265.384 116.264 265.75 116.307 266.115 116.393C266.48 116.48 266.813 116.622 267.114 116.821C267.416 117.017 267.658 117.283 267.84 117.621C268.026 117.959 268.119 118.382 268.119 118.889V124H266.388V122.951H266.329C266.219 123.163 266.065 123.362 265.866 123.548C265.671 123.73 265.424 123.877 265.126 123.99C264.831 124.099 264.484 124.154 264.087 124.154ZM264.554 122.832C264.915 122.832 265.228 122.76 265.494 122.618C265.759 122.472 265.963 122.28 266.105 122.041C266.251 121.803 266.324 121.542 266.324 121.261V120.361C266.268 120.407 266.171 120.45 266.036 120.49C265.903 120.53 265.754 120.565 265.588 120.594C265.422 120.624 265.258 120.651 265.096 120.674C264.933 120.697 264.793 120.717 264.673 120.734C264.405 120.77 264.165 120.83 263.952 120.913C263.74 120.995 263.573 121.111 263.45 121.261C263.328 121.406 263.266 121.595 263.266 121.827C263.266 122.159 263.387 122.409 263.629 122.578C263.871 122.747 264.179 122.832 264.554 122.832Z" fill="white"/>
<path d="M249.605 124V116.364H251.326V117.661H251.415C251.574 117.224 251.838 116.882 252.206 116.637C252.574 116.388 253.013 116.264 253.523 116.264C254.04 116.264 254.476 116.39 254.831 116.642C255.189 116.891 255.44 117.23 255.586 117.661H255.666C255.835 117.237 256.12 116.899 256.521 116.647C256.925 116.392 257.404 116.264 257.958 116.264C258.66 116.264 259.234 116.486 259.678 116.93C260.122 117.374 260.344 118.022 260.344 118.874V124H258.539V119.153C258.539 118.679 258.413 118.332 258.162 118.114C257.91 117.892 257.601 117.78 257.237 117.78C256.803 117.78 256.463 117.916 256.218 118.188C255.976 118.457 255.855 118.806 255.855 119.237V124H254.09V119.078C254.09 118.684 253.971 118.369 253.732 118.133C253.497 117.898 253.188 117.78 252.807 117.78C252.549 117.78 252.313 117.847 252.101 117.979C251.889 118.109 251.72 118.293 251.594 118.531C251.468 118.767 251.405 119.042 251.405 119.356V124H249.605Z" fill="white"/>
<path d="M245.044 118.382L243.403 118.561C243.356 118.395 243.275 118.24 243.159 118.094C243.047 117.948 242.894 117.83 242.702 117.741C242.51 117.651 242.274 117.606 241.996 117.606C241.621 117.606 241.307 117.688 241.051 117.85C240.799 118.013 240.675 118.223 240.678 118.481C240.675 118.704 240.756 118.884 240.922 119.023C241.091 119.163 241.369 119.277 241.757 119.366L243.06 119.645C243.782 119.801 244.319 120.048 244.671 120.386C245.025 120.724 245.204 121.166 245.208 121.713C245.204 122.194 245.063 122.618 244.785 122.986C244.51 123.35 244.127 123.635 243.637 123.841C243.146 124.046 242.583 124.149 241.946 124.149C241.012 124.149 240.259 123.954 239.689 123.562C239.119 123.168 238.779 122.62 238.67 121.917L240.425 121.748C240.504 122.093 240.673 122.353 240.932 122.528C241.191 122.704 241.527 122.792 241.941 122.792C242.369 122.792 242.712 122.704 242.97 122.528C243.232 122.353 243.363 122.136 243.363 121.877C243.363 121.658 243.279 121.478 243.11 121.335C242.944 121.193 242.685 121.083 242.334 121.007L241.031 120.734C240.299 120.581 239.757 120.324 239.406 119.963C239.054 119.598 238.88 119.138 238.884 118.581C238.88 118.11 239.008 117.703 239.267 117.358C239.528 117.01 239.891 116.741 240.355 116.553C240.823 116.36 241.361 116.264 241.971 116.264C242.866 116.264 243.57 116.455 244.084 116.836C244.601 117.217 244.921 117.732 245.044 118.382Z" fill="white"/>
<path d="M238.818 113.818V114.833C238.818 115.124 238.762 115.427 238.649 115.742C238.54 116.054 238.389 116.352 238.197 116.637C238.004 116.919 237.786 117.161 237.54 117.363L236.705 116.821C236.887 116.546 237.046 116.249 237.182 115.931C237.318 115.61 237.386 115.247 237.386 114.843V113.818H238.818Z" fill="white"/>
<path d="M235.712 116.364V117.756H231.322V116.364H235.712ZM232.406 114.534H234.206V121.703C234.206 121.945 234.242 122.131 234.315 122.26C234.391 122.386 234.491 122.472 234.613 122.519C234.736 122.565 234.872 122.588 235.021 122.588C235.134 122.588 235.237 122.58 235.329 122.563C235.425 122.547 235.498 122.532 235.548 122.519L235.851 123.926C235.755 123.959 235.618 123.995 235.439 124.035C235.263 124.075 235.048 124.098 234.792 124.104C234.342 124.118 233.936 124.05 233.574 123.901C233.213 123.748 232.926 123.513 232.714 123.195C232.506 122.877 232.403 122.479 232.406 122.002V114.534Z" fill="white"/>
<path d="M227.26 124.149C226.494 124.149 225.833 123.99 225.276 123.672C224.722 123.35 224.297 122.896 223.998 122.31C223.7 121.72 223.551 121.025 223.551 120.227C223.551 119.441 223.7 118.752 223.998 118.158C224.3 117.562 224.721 117.098 225.261 116.766C225.801 116.432 226.436 116.264 227.165 116.264C227.636 116.264 228.08 116.34 228.498 116.493C228.918 116.642 229.29 116.874 229.611 117.189C229.936 117.504 230.191 117.905 230.377 118.392C230.562 118.876 230.655 119.453 230.655 120.122V120.674H224.396V119.461H228.93C228.927 119.116 228.852 118.81 228.706 118.541C228.56 118.269 228.357 118.056 228.095 117.9C227.836 117.744 227.535 117.666 227.19 117.666C226.822 117.666 226.499 117.756 226.221 117.935C225.942 118.11 225.725 118.342 225.569 118.631C225.417 118.916 225.339 119.229 225.336 119.57V120.629C225.336 121.073 225.417 121.455 225.579 121.773C225.742 122.088 225.969 122.33 226.26 122.499C226.552 122.664 226.893 122.747 227.284 122.747C227.546 122.747 227.783 122.711 227.995 122.638C228.208 122.562 228.391 122.45 228.547 122.305C228.703 122.159 228.821 121.978 228.9 121.763L230.581 121.952C230.475 122.396 230.272 122.784 229.974 123.115C229.679 123.443 229.301 123.698 228.841 123.881C228.38 124.06 227.853 124.149 227.26 124.149Z" fill="white"/>
<path d="M216.309 124V113.818H218.153V122.454H222.637V124H216.309Z" fill="white"/>
<path d="M429.754 232.946L429.75 231.084H429.997L432.349 228.455H434.152L431.258 231.676H430.939L429.754 232.946ZM428.348 235V226.273H429.89V235H428.348ZM432.456 235L430.325 232.022L431.365 230.935L434.301 235H432.456Z" fill="white"/>
<path d="M424.517 235.128C423.864 235.128 423.303 234.984 422.834 234.697C422.368 234.41 422.009 234.014 421.756 233.508C421.506 233 421.381 232.415 421.381 231.753C421.381 231.088 421.509 230.501 421.764 229.993C422.02 229.481 422.381 229.084 422.847 228.8C423.316 228.513 423.87 228.369 424.509 228.369C425.04 228.369 425.51 228.467 425.919 228.663C426.331 228.856 426.659 229.131 426.904 229.486C427.148 229.838 427.287 230.25 427.321 230.721H425.847C425.787 230.406 425.645 230.143 425.421 229.933C425.199 229.72 424.902 229.613 424.53 229.613C424.215 229.613 423.938 229.699 423.699 229.869C423.46 230.037 423.274 230.278 423.141 230.594C423.01 230.909 422.945 231.287 422.945 231.727C422.945 232.173 423.01 232.557 423.141 232.878C423.271 233.196 423.455 233.442 423.691 233.615C423.929 233.785 424.209 233.871 424.53 233.871C424.757 233.871 424.96 233.828 425.139 233.743C425.321 233.655 425.473 233.528 425.595 233.363C425.718 233.199 425.801 232.998 425.847 232.763H427.321C427.284 233.226 427.148 233.636 426.912 233.994C426.676 234.349 426.355 234.628 425.949 234.829C425.543 235.028 425.066 235.128 424.517 235.128Z" fill="white"/>
<path d="M416.895 235.132C416.481 235.132 416.107 235.058 415.775 234.91C415.445 234.76 415.184 234.538 414.991 234.246C414.8 233.953 414.705 233.592 414.705 233.163C414.705 232.794 414.773 232.488 414.91 232.247C415.046 232.006 415.232 231.812 415.468 231.667C415.704 231.523 415.969 231.413 416.265 231.339C416.563 231.263 416.871 231.207 417.189 231.173C417.573 231.133 417.884 231.098 418.123 231.067C418.361 231.032 418.535 230.981 418.643 230.913C418.753 230.842 418.809 230.733 418.809 230.585V230.559C418.809 230.238 418.714 229.99 418.523 229.814C418.333 229.638 418.059 229.55 417.701 229.55C417.323 229.55 417.023 229.632 416.802 229.797C416.583 229.961 416.435 230.156 416.358 230.381L414.918 230.176C415.032 229.778 415.219 229.446 415.481 229.179C415.742 228.909 416.062 228.707 416.439 228.574C416.817 228.437 417.235 228.369 417.692 228.369C418.008 228.369 418.322 228.406 418.634 228.48C418.947 228.554 419.232 228.676 419.491 228.846C419.749 229.014 419.956 229.243 420.113 229.532C420.272 229.822 420.351 230.184 420.351 230.619V235H418.868V234.101H418.817C418.724 234.282 418.591 234.453 418.421 234.612C418.253 234.768 418.042 234.895 417.786 234.991C417.533 235.085 417.236 235.132 416.895 235.132ZM417.296 233.998C417.606 233.998 417.874 233.937 418.101 233.815C418.329 233.69 418.503 233.525 418.626 233.321C418.751 233.116 418.813 232.893 418.813 232.652V231.881C418.765 231.92 418.682 231.957 418.566 231.991C418.452 232.025 418.324 232.055 418.182 232.081C418.04 232.106 417.9 232.129 417.76 232.149C417.621 232.169 417.501 232.186 417.398 232.2C417.168 232.231 416.962 232.282 416.78 232.354C416.599 232.425 416.455 232.524 416.35 232.652C416.245 232.777 416.192 232.939 416.192 233.138C416.192 233.422 416.296 233.636 416.503 233.781C416.711 233.926 416.975 233.998 417.296 233.998Z" fill="white"/>
<path d="M413.666 226.273V235H412.123V226.273H413.666Z" fill="white"/>
<path d="M404.873 235V226.273H406.416V229.537H406.48C406.559 229.378 406.671 229.209 406.816 229.03C406.961 228.848 407.157 228.693 407.404 228.566C407.651 228.435 407.967 228.37 408.35 228.37C408.856 228.37 409.312 228.499 409.718 228.757C410.127 229.013 410.451 229.392 410.69 229.895C410.931 230.395 411.052 231.009 411.052 231.736C411.052 232.455 410.934 233.066 410.698 233.568C410.463 234.071 410.142 234.455 409.735 234.719C409.329 234.983 408.869 235.115 408.355 235.115C407.98 235.115 407.669 235.053 407.421 234.928C407.174 234.803 406.975 234.652 406.825 234.476C406.677 234.297 406.562 234.128 406.48 233.969H406.39V235H404.873ZM406.386 231.727C406.386 232.151 406.445 232.522 406.565 232.84C406.687 233.158 406.862 233.406 407.089 233.585C407.319 233.762 407.597 233.85 407.924 233.85C408.265 233.85 408.551 233.759 408.781 233.577C409.011 233.392 409.184 233.141 409.301 232.823C409.42 232.502 409.48 232.137 409.48 231.727C409.48 231.321 409.421 230.96 409.305 230.645C409.188 230.33 409.015 230.083 408.785 229.904C408.555 229.725 408.268 229.635 407.924 229.635C407.595 229.635 407.315 229.722 407.085 229.895C406.855 230.068 406.68 230.311 406.561 230.624C406.444 230.936 406.386 231.304 406.386 231.727Z" fill="white"/>
<path d="M402.514 235.094C402.255 235.094 402.034 235.003 401.849 234.821C401.664 234.639 401.573 234.417 401.576 234.156C401.573 233.9 401.664 233.682 401.849 233.5C402.034 233.318 402.255 233.227 402.514 233.227C402.764 233.227 402.981 233.318 403.166 233.5C403.353 233.682 403.448 233.9 403.451 234.156C403.448 234.329 403.403 234.487 403.315 234.629C403.23 234.771 403.116 234.885 402.974 234.97C402.835 235.052 402.681 235.094 402.514 235.094Z" fill="white"/>
<path d="M397.732 235.128C397.079 235.128 396.518 234.984 396.049 234.697C395.583 234.41 395.224 234.014 394.971 233.508C394.721 233 394.596 232.415 394.596 231.753C394.596 231.088 394.724 230.501 394.979 229.993C395.235 229.481 395.596 229.084 396.062 228.8C396.53 228.513 397.084 228.369 397.724 228.369C398.255 228.369 398.725 228.467 399.134 228.663C399.546 228.856 399.874 229.131 400.118 229.486C400.363 229.838 400.502 230.25 400.536 230.721H399.062C399.002 230.406 398.86 230.143 398.635 229.933C398.414 229.72 398.117 229.613 397.745 229.613C397.43 229.613 397.153 229.699 396.914 229.869C396.675 230.037 396.489 230.278 396.356 230.594C396.225 230.909 396.16 231.287 396.16 231.727C396.16 232.173 396.225 232.557 396.356 232.878C396.486 233.196 396.67 233.442 396.905 233.615C397.144 233.785 397.424 233.871 397.745 233.871C397.972 233.871 398.175 233.828 398.354 233.743C398.536 233.655 398.688 233.528 398.81 233.363C398.932 233.199 399.016 232.998 399.062 232.763H400.536C400.499 233.226 400.363 233.636 400.127 233.994C399.891 234.349 399.57 234.628 399.164 234.829C398.758 235.028 398.28 235.128 397.732 235.128Z" fill="white"/>
<path d="M391.988 235V228.455H393.531V235H391.988ZM392.764 227.526C392.52 227.526 392.309 227.445 392.133 227.283C391.957 227.118 391.869 226.921 391.869 226.691C391.869 226.458 391.957 226.26 392.133 226.098C392.309 225.933 392.52 225.851 392.764 225.851C393.011 225.851 393.221 225.933 393.395 226.098C393.571 226.26 393.659 226.458 393.659 226.691C393.659 226.921 393.571 227.118 393.395 227.283C393.221 227.445 393.011 227.526 392.764 227.526Z" fill="white"/>
<path d="M381.459 235V228.454H382.933V229.567H383.01C383.146 229.192 383.372 228.899 383.688 228.689C384.003 228.476 384.379 228.369 384.817 228.369C385.26 228.369 385.634 228.477 385.938 228.693C386.244 228.906 386.46 229.197 386.585 229.567H386.654C386.798 229.203 387.043 228.913 387.387 228.697C387.733 228.479 388.144 228.369 388.618 228.369C389.22 228.369 389.712 228.559 390.093 228.94C390.473 229.321 390.664 229.876 390.664 230.606V235H389.117V230.845C389.117 230.439 389.009 230.142 388.793 229.954C388.577 229.764 388.313 229.669 388 229.669C387.628 229.669 387.337 229.785 387.127 230.018C386.919 230.248 386.816 230.548 386.816 230.917V235H385.303V230.781C385.303 230.443 385.2 230.173 384.996 229.971C384.794 229.77 384.53 229.669 384.203 229.669C383.982 229.669 383.78 229.726 383.598 229.839C383.416 229.95 383.271 230.108 383.164 230.312C383.056 230.514 383.002 230.75 383.002 231.02V235H381.459Z" fill="white"/>
<path d="M377.254 235.128C376.614 235.128 376.06 234.987 375.592 234.706C375.123 234.425 374.759 234.031 374.501 233.525C374.245 233.02 374.117 232.429 374.117 231.753C374.117 231.077 374.245 230.484 374.501 229.976C374.759 229.467 375.123 229.072 375.592 228.791C376.06 228.51 376.614 228.369 377.254 228.369C377.893 228.369 378.447 228.51 378.915 228.791C379.384 229.072 379.746 229.467 380.002 229.976C380.261 230.484 380.39 231.077 380.39 231.753C380.39 232.429 380.261 233.02 380.002 233.525C379.746 234.031 379.384 234.425 378.915 234.706C378.447 234.987 377.893 235.128 377.254 235.128ZM377.262 233.892C377.609 233.892 377.898 233.797 378.131 233.606C378.364 233.413 378.538 233.155 378.651 232.831C378.768 232.507 378.826 232.146 378.826 231.748C378.826 231.348 378.768 230.986 378.651 230.662C378.538 230.335 378.364 230.075 378.131 229.882C377.898 229.689 377.609 229.592 377.262 229.592C376.907 229.592 376.612 229.689 376.376 229.882C376.143 230.075 375.968 230.335 375.852 230.662C375.738 230.986 375.681 231.348 375.681 231.748C375.681 232.146 375.738 232.507 375.852 232.831C375.968 233.155 376.143 233.413 376.376 233.606C376.612 233.797 376.907 233.892 377.262 233.892Z" fill="white"/>
<path d="M373.419 228.454V229.648H369.656V228.454H373.419ZM370.585 226.886H372.128V233.031C372.128 233.239 372.159 233.398 372.222 233.508C372.287 233.616 372.372 233.69 372.477 233.73C372.582 233.77 372.699 233.79 372.827 233.79C372.923 233.79 373.011 233.783 373.091 233.768C373.173 233.754 373.236 233.741 373.278 233.73L373.538 234.936C373.456 234.964 373.338 234.996 373.185 235.03C373.034 235.064 372.849 235.084 372.631 235.089C372.244 235.101 371.896 235.042 371.587 234.915C371.277 234.784 371.031 234.582 370.849 234.31C370.67 234.037 370.582 233.696 370.585 233.287V226.886Z" fill="white"/>
<path d="M365.384 235.132C364.969 235.132 364.595 235.058 364.263 234.91C363.933 234.76 363.672 234.538 363.479 234.246C363.289 233.953 363.193 233.592 363.193 233.163C363.193 232.794 363.262 232.488 363.398 232.247C363.534 232.006 363.72 231.812 363.956 231.667C364.192 231.523 364.458 231.413 364.753 231.339C365.051 231.263 365.36 231.207 365.678 231.173C366.061 231.133 366.372 231.098 366.611 231.067C366.85 231.032 367.023 230.981 367.131 230.913C367.242 230.842 367.297 230.733 367.297 230.585V230.559C367.297 230.238 367.202 229.99 367.012 229.814C366.821 229.638 366.547 229.55 366.189 229.55C365.811 229.55 365.512 229.632 365.29 229.797C365.071 229.961 364.923 230.156 364.847 230.381L363.406 230.176C363.52 229.778 363.708 229.446 363.969 229.179C364.23 228.909 364.55 228.707 364.928 228.574C365.306 228.437 365.723 228.369 366.181 228.369C366.496 228.369 366.81 228.406 367.122 228.48C367.435 228.554 367.72 228.676 367.979 228.846C368.237 229.014 368.445 229.243 368.601 229.532C368.76 229.822 368.84 230.184 368.84 230.619V235H367.357V234.101H367.306C367.212 234.282 367.08 234.453 366.909 234.612C366.742 234.768 366.53 234.895 366.274 234.991C366.021 235.085 365.725 235.132 365.384 235.132ZM365.784 233.998C366.094 233.998 366.362 233.937 366.59 233.815C366.817 233.69 366.992 233.525 367.114 233.321C367.239 233.116 367.301 232.893 367.301 232.652V231.881C367.253 231.92 367.171 231.957 367.054 231.991C366.941 232.025 366.813 232.055 366.671 232.081C366.529 232.106 366.388 232.129 366.249 232.149C366.11 232.169 365.989 232.186 365.887 232.2C365.656 232.231 365.45 232.282 365.269 232.354C365.087 232.425 364.943 232.524 364.838 232.652C364.733 232.777 364.681 232.939 364.681 233.138C364.681 233.422 364.784 233.636 364.992 233.781C365.199 233.926 365.463 233.998 365.784 233.998Z" fill="white"/>
</g>
<defs>
<filter id="filter0_f_332_613" x="-603.387" y="-330.275" width="836.796" height="600.67" filterUnits="userSpaceOnUse" color-interpolation-filters="sRGB">
<feFlood flood-opacity="0" result="BackgroundImageFix"/>
<feBlend mode="normal" in="SourceGraphic" in2="BackgroundImageFix" result="shape"/>
<feGaussianBlur stdDeviation="112.979" result="effect1_foregroundBlur_332_613"/>
</filter>
<filter id="filter1_f_332_613" x="-192.899" y="2.63631" width="836.796" height="600.67" filterUnits="userSpaceOnUse" color-interpolation-filters="sRGB">
<feFlood flood-opacity="0" result="BackgroundImageFix"/>
<feBlend mode="normal" in="SourceGraphic" in2="BackgroundImageFix" result="shape"/>
<feGaussianBlur stdDeviation="112.979" result="effect1_foregroundBlur_332_613"/>
</filter>
<filter id="filter2_f_332_613" x="-321.118" y="-99.9643" width="704.233" height="549.453" filterUnits="userSpaceOnUse" color-interpolation-filters="sRGB">
<feFlood flood-opacity="0" result="BackgroundImageFix"/>
<feBlend mode="normal" in="SourceGraphic" in2="BackgroundImageFix" result="shape"/>
<feGaussianBlur stdDeviation="112.979" result="effect1_foregroundBlur_332_613"/>
</filter>
<linearGradient id="paint0_linear_332_613" x1="455" y1="254" x2="178.444" y2="179.079" gradientUnits="userSpaceOnUse">
<stop stop-color="#FF6200"/>
<stop offset="1" stop-color="#FF4400"/>
</linearGradient>
<clipPath id="clip0_332_613">
<rect width="455" height="254" fill="white"/>
</clipPath>
</defs>
</svg>
