<svg width="32" height="32" viewBox="0 0 32 32" fill="none" xmlns="http://www.w3.org/2000/svg">
<g opacity="0.6" clip-path="url(#clip0_157_375)">
<path d="M15.9993 29.3337C8.63535 29.3337 2.66602 23.3643 2.66602 16.0003C2.66602 8.63633 8.63535 2.66699 15.9993 2.66699C23.3633 2.66699 29.3327 8.63633 29.3327 16.0003C29.3327 23.3643 23.3633 29.3337 15.9993 29.3337ZM12.946 26.223C11.6306 23.4327 10.8685 20.4139 10.702 17.3337H5.41535C5.6748 19.3855 6.52458 21.3179 7.86144 22.8959C9.1983 24.474 10.9647 25.6298 12.946 26.223ZM13.3727 17.3337C13.574 20.5857 14.5033 23.6403 15.9993 26.3363C17.5358 23.5691 18.4333 20.493 18.626 17.3337H13.3727ZM26.5833 17.3337H21.2967C21.1302 20.4139 20.3681 23.4327 19.0527 26.223C21.034 25.6298 22.8004 24.474 24.1373 22.8959C25.4741 21.3179 26.3239 19.3855 26.5833 17.3337ZM5.41535 14.667H10.702C10.8685 11.5867 11.6306 8.56791 12.946 5.77766C10.9647 6.37083 9.1983 7.52666 7.86144 9.10472C6.52458 10.6828 5.6748 12.6151 5.41535 14.667ZM13.374 14.667H18.6247C18.4323 11.5078 17.5353 8.4317 15.9993 5.66433C14.4629 8.43159 13.5654 11.5077 13.3727 14.667H13.374ZM19.0527 5.77766C20.3681 8.56791 21.1302 11.5867 21.2967 14.667H26.5833C26.3239 12.6151 25.4741 10.6828 24.1373 9.10472C22.8004 7.52666 21.034 6.37083 19.0527 5.77766Z" fill="#C5C5C5"/>
</g>
<defs>
<clipPath id="clip0_157_375">
<rect width="32" height="32" fill="white"/>
</clipPath>
</defs>
</svg>
